<svg width="154" height="38" viewBox="0 0 154 38" fill="none" xmlns="http://www.w3.org/2000/svg">
<g clip-path="url(#clip0_0_728)">
<path d="M20.9951 32.8662L12.4961 38.002V18.8301L20.9951 13.6953V32.8662ZM28.3867 13.6953H0L5.09961 5.13672H33.4854L28.3867 13.6953Z" fill="#3EA0EB"/>
<path d="M48.4356 32.5232V12.4346H52.1989V32.5232H48.4356ZM42.3164 14.0368V10.4627H58.3181V14.0368H42.3164ZM59.9208 32.5232V10.4627H67.784C69.1914 10.4627 70.4255 10.7605 71.4861 11.3562C72.5672 11.9313 73.4137 12.7324 74.0256 13.7595C74.6375 14.7865 74.9435 15.9676 74.9435 17.3027C74.9435 18.2681 74.7497 19.1616 74.3622 19.9832C73.995 20.7843 73.4647 21.493 72.7712 22.1092C72.0777 22.7254 71.2516 23.2081 70.2929 23.5573C69.3342 23.8859 68.2736 24.0503 67.1109 24.0503H62.0014V20.5995H67.7228C68.3755 20.5995 68.9569 20.4557 69.4668 20.1681C69.9971 19.8805 70.4153 19.4903 70.7212 18.9973C71.0272 18.4838 71.1802 17.9086 71.1802 17.2719C71.1802 16.6968 71.0476 16.1627 70.7824 15.6697C70.5377 15.1768 70.1603 14.7762 69.6504 14.4681C69.1405 14.1395 68.5285 13.9751 67.8146 13.9751H63.6842V32.5232H59.9208ZM64.8774 22.4789L69.222 22.4481L76.045 32.3076V32.5232H71.7309L64.8774 22.4789ZM76.1821 32.5232L84.4125 10.4627H88.6959L96.9568 32.5232H92.8264L87.4721 17.4259L86.6766 14.8378H86.4624L85.6363 17.4259L80.3126 32.5232H76.1821ZM86.3094 27.0389V23.5881H91.3883L92.6428 27.0389H86.3094ZM80.3432 27.0389L81.567 23.5881H86.3094V27.0389H80.3432ZM107.779 33.0162C106.168 33.0162 104.658 32.7286 103.251 32.1535C101.864 31.5578 100.65 30.7362 99.6098 29.6886C98.5696 28.6411 97.7639 27.4189 97.1928 26.0222C96.6216 24.6254 96.3361 23.1157 96.3361 21.493C96.3361 19.8703 96.6216 18.3605 97.1928 16.9638C97.7639 15.567 98.5696 14.3449 99.6098 13.2973C100.65 12.2497 101.864 11.4384 103.251 10.8632C104.658 10.2676 106.168 9.96973 107.779 9.96973C108.921 9.96973 109.982 10.1135 110.961 10.4011C111.94 10.6681 112.838 11.0686 113.653 11.6027C114.49 12.1368 115.244 12.7941 115.918 13.5746L113.286 16.1627C112.817 15.6081 112.307 15.1357 111.756 14.7454C111.226 14.3551 110.624 14.0573 109.951 13.8519C109.299 13.6465 108.574 13.5438 107.779 13.5438C106.372 13.5438 105.087 13.8724 103.924 14.5297C102.761 15.187 101.833 16.1113 101.14 17.3027C100.446 18.4735 100.099 19.8703 100.099 21.493C100.099 23.0951 100.446 24.4919 101.14 25.6832C101.833 26.8746 102.761 27.7989 103.924 28.4562C105.087 29.1135 106.372 29.4422 107.779 29.4422C109.064 29.4422 110.196 29.1751 111.175 28.6411C112.175 28.107 113.062 27.3778 113.837 26.4535L116.499 29.0108C115.805 29.8324 115.01 30.5513 114.112 31.1676C113.215 31.7632 112.236 32.2151 111.175 32.5232C110.114 32.8519 108.982 33.0162 107.779 33.0162ZM118.615 32.5232V10.4627H132.2V14.0368H122.378V28.9492H132.2V32.5232H118.615ZM120.696 23.28V19.7059H131.221V23.28H120.696ZM132.695 32.5232L140.926 10.4627H145.209L153.47 32.5232H149.339L143.985 17.4259L143.19 14.8378H142.975L142.149 17.4259L136.826 32.5232H132.695ZM142.822 27.0389V23.5881H147.901L149.156 27.0389H142.822ZM136.856 27.0389L138.08 23.5881H142.822V27.0389H136.856Z" fill="#3EA0EB"/>
</g>
<defs>
<clipPath id="clip0_0_728">
<rect width="154" height="38" fill="white"/>
</clipPath>
</defs>
</svg>
