<svg width="429" height="395" viewBox="0 0 429 395" fill="none" xmlns="http://www.w3.org/2000/svg">
<g filter="url(#filter0_f_45_11)">
<circle cx="34" cy="-39" r="204" fill="url(#paint0_radial_45_11)"/>
</g>
<g filter="url(#filter1_f_45_11)" style="mix-blend-mode:overlay">
<path d="M33.5 -349L50.6377 -64.4588L207.75 -302.31L80.3211 -47.3211L335.31 -174.75L97.4588 -17.6377L382 -0.5L97.4588 16.6377L335.31 173.75L80.3211 46.3211L207.75 301.31L50.6377 63.4588L33.5 348L16.3623 63.4588L-140.75 301.31L-13.3211 46.3211L-268.31 173.75L-30.4588 16.6377L-315 -0.5L-30.4588 -17.6377L-268.31 -174.75L-13.3211 -47.3211L-140.75 -302.31L16.3623 -64.4588L33.5 -349Z" fill="white"/>
</g>
<defs>
<filter id="filter0_f_45_11" x="-357.1" y="-430.1" width="782.2" height="782.2" filterUnits="userSpaceOnUse" color-interpolation-filters="sRGB">
<feFlood flood-opacity="0" result="BackgroundImageFix"/>
<feBlend mode="normal" in="SourceGraphic" in2="BackgroundImageFix" result="shape"/>
<feGaussianBlur stdDeviation="93.55" result="effect1_foregroundBlur_45_11"/>
</filter>
<filter id="filter1_f_45_11" x="-361.2" y="-395.2" width="789.4" height="789.4" filterUnits="userSpaceOnUse" color-interpolation-filters="sRGB">
<feFlood flood-opacity="0" result="BackgroundImageFix"/>
<feBlend mode="normal" in="SourceGraphic" in2="BackgroundImageFix" result="shape"/>
<feGaussianBlur stdDeviation="23.1" result="effect1_foregroundBlur_45_11"/>
</filter>
<radialGradient id="paint0_radial_45_11" cx="0" cy="0" r="1" gradientTransform="matrix(14.2459 -142.953 289.101 1.88574 48.0101 -44.5343)" gradientUnits="userSpaceOnUse">
<stop stop-color="#CBE8FF"/>
<stop offset="1" stop-color="#3EA0EB"/>
</radialGradient>
</defs>
</svg>
