<svg width="698" height="272" viewBox="0 0 698 272" fill="none" xmlns="http://www.w3.org/2000/svg">
<path d="M-18 169L714 169" stroke="#EAEAEA" stroke-dasharray="12 12"/>
<path d="M668 -17L668 292" stroke="#EAEAEA" stroke-dasharray="12 12"/>
<path d="M30 -17L30 292" stroke="#EAEAEA" stroke-dasharray="12 12"/>
<path d="M-18 30L714 30.0001" stroke="#EAEAEA" stroke-dasharray="12 12"/>
<g filter="url(#filter0_di_45_9)">
<rect x="242" y="76.0723" width="213.497" height="55.8572" rx="27.9286" fill="url(#paint0_linear_45_9)" shape-rendering="crispEdges"/>
<rect x="242.615" y="76.6876" width="212.266" height="54.6267" rx="27.3133" stroke="url(#paint1_linear_45_9)" stroke-width="1.23057" shape-rendering="crispEdges"/>
<path d="M284.114 102.141V94.1206C284.114 91.9058 282.319 90.1104 280.104 90.1104H277.096C274.882 90.1104 273.086 91.9058 273.086 94.1206V99.022" stroke="url(#paint2_linear_45_9)" stroke-width="2.00513"/>
<g filter="url(#filter1_d_45_9)">
<rect x="268.067" y="101.997" width="21.0539" height="15.0385" rx="2.00513" fill="url(#paint3_linear_45_9)"/>
<rect x="268.067" y="101.997" width="21.0539" height="15.0385" rx="2.00513" fill="url(#paint4_linear_45_9)"/>
</g>
<path d="M278.595 105.005C279.703 105.005 280.6 105.903 280.6 107.01C280.6 107.614 280.333 108.155 279.911 108.522C279.731 108.679 279.598 108.893 279.598 109.132V113.025H277.593V109.132C277.593 108.893 277.459 108.679 277.28 108.522C276.857 108.155 276.59 107.614 276.59 107.01C276.59 105.903 277.488 105.005 278.595 105.005Z" fill="url(#paint5_linear_45_9)"/>
<path d="M310.033 114.501H300.899V97.2682H309.648V99.0948H302.918V104.827H309.143V106.642H302.918V112.674H310.033V114.501ZM321.894 114.501H319.923V112.578H319.875C319.018 114.052 317.756 114.789 316.089 114.789C314.864 114.789 313.902 114.465 313.205 113.816C312.516 113.167 312.172 112.306 312.172 111.232C312.172 108.933 313.526 107.595 316.234 107.218L319.923 106.702C319.923 104.611 319.078 103.565 317.387 103.565C315.905 103.565 314.567 104.07 313.373 105.079V103.061C314.583 102.291 315.977 101.907 317.555 101.907C320.448 101.907 321.894 103.437 321.894 106.497V114.501ZM319.923 108.276L316.955 108.685C316.041 108.813 315.352 109.041 314.888 109.37C314.423 109.69 314.191 110.263 314.191 111.088C314.191 111.689 314.403 112.182 314.827 112.566C315.26 112.943 315.833 113.131 316.546 113.131C317.523 113.131 318.329 112.791 318.961 112.11C319.602 111.421 319.923 110.551 319.923 109.502V108.276ZM332.024 104.19C331.68 103.926 331.183 103.794 330.534 103.794C329.693 103.794 328.988 104.19 328.419 104.983C327.858 105.776 327.578 106.858 327.578 108.228V114.501H325.607V102.195H327.578V104.731H327.626C327.906 103.866 328.335 103.193 328.912 102.712C329.489 102.223 330.134 101.979 330.847 101.979C331.359 101.979 331.752 102.035 332.024 102.147V104.19ZM336.134 114.501H334.163V96.2828H336.134V114.501ZM349.918 102.195L344.258 116.472C343.248 119.019 341.83 120.293 340.004 120.293C339.491 120.293 339.062 120.241 338.718 120.137V118.371C339.142 118.515 339.531 118.587 339.884 118.587C340.877 118.587 341.622 117.994 342.119 116.808L343.104 114.477L338.297 102.195H340.484L343.813 111.665C343.853 111.785 343.937 112.098 344.066 112.602H344.138C344.178 112.41 344.258 112.106 344.378 111.689L347.875 102.195H349.918ZM372.402 114.501H370.167L368.341 109.67H361.034L359.316 114.501H357.068L363.678 97.2682H365.769L372.402 114.501ZM367.68 107.855L364.976 100.513C364.888 100.272 364.799 99.8879 364.711 99.3592H364.663C364.583 99.8479 364.491 100.232 364.387 100.513L361.707 107.855H367.68ZM383.074 113.936C382.128 114.505 381.007 114.789 379.709 114.789C377.954 114.789 376.536 114.221 375.455 113.083C374.381 111.937 373.844 110.455 373.844 108.637C373.844 106.61 374.425 104.983 375.587 103.758C376.749 102.524 378.299 101.907 380.238 101.907C381.319 101.907 382.273 102.107 383.098 102.508V104.527C382.184 103.886 381.207 103.565 380.166 103.565C378.908 103.565 377.874 104.018 377.065 104.923C376.264 105.82 375.863 107.002 375.863 108.468C375.863 109.91 376.24 111.048 376.993 111.881C377.754 112.714 378.772 113.131 380.045 113.131C381.119 113.131 382.128 112.774 383.074 112.061V113.936ZM394.442 113.936C393.497 114.505 392.375 114.789 391.077 114.789C389.323 114.789 387.905 114.221 386.823 113.083C385.75 111.937 385.213 110.455 385.213 108.637C385.213 106.61 385.794 104.983 386.955 103.758C388.117 102.524 389.667 101.907 391.606 101.907C392.688 101.907 393.641 102.107 394.466 102.508V104.527C393.553 103.886 392.575 103.565 391.534 103.565C390.276 103.565 389.243 104.018 388.433 104.923C387.632 105.82 387.232 107.002 387.232 108.468C387.232 109.91 387.608 111.048 388.361 111.881C389.122 112.714 390.14 113.131 391.414 113.131C392.487 113.131 393.497 112.774 394.442 112.061V113.936ZM407.313 108.841H398.624C398.656 110.211 399.025 111.268 399.73 112.013C400.435 112.758 401.404 113.131 402.638 113.131C404.024 113.131 405.298 112.674 406.459 111.761V113.612C405.378 114.397 403.948 114.789 402.169 114.789C400.431 114.789 399.065 114.233 398.071 113.119C397.078 111.997 396.581 110.423 396.581 108.396C396.581 106.481 397.122 104.923 398.204 103.721C399.293 102.512 400.643 101.907 402.253 101.907C403.864 101.907 405.109 102.428 405.991 103.469C406.872 104.511 407.313 105.957 407.313 107.807V108.841ZM405.294 107.17C405.286 106.033 405.009 105.148 404.465 104.515C403.928 103.882 403.179 103.565 402.217 103.565C401.288 103.565 400.499 103.898 399.85 104.563C399.201 105.228 398.8 106.097 398.648 107.17H405.294ZM409.56 114.056V111.941C410.633 112.734 411.815 113.131 413.105 113.131C414.835 113.131 415.701 112.554 415.701 111.401C415.701 111.072 415.625 110.796 415.472 110.571C415.328 110.339 415.128 110.135 414.872 109.958C414.623 109.782 414.327 109.626 413.982 109.49C413.646 109.346 413.281 109.197 412.889 109.045C412.344 108.829 411.863 108.613 411.447 108.396C411.038 108.172 410.693 107.924 410.413 107.651C410.141 107.371 409.932 107.054 409.788 106.702C409.652 106.349 409.584 105.937 409.584 105.464C409.584 104.887 409.716 104.378 409.98 103.938C410.245 103.489 410.597 103.117 411.038 102.82C411.479 102.516 411.979 102.287 412.54 102.135C413.109 101.983 413.694 101.907 414.295 101.907C415.36 101.907 416.314 102.091 417.155 102.46V104.455C416.249 103.862 415.208 103.565 414.03 103.565C413.662 103.565 413.329 103.609 413.033 103.697C412.736 103.778 412.48 103.894 412.264 104.046C412.055 104.198 411.891 104.382 411.771 104.599C411.659 104.807 411.603 105.039 411.603 105.296C411.603 105.616 411.659 105.885 411.771 106.101C411.891 106.317 412.063 106.509 412.288 106.678C412.512 106.846 412.784 106.998 413.105 107.134C413.425 107.271 413.79 107.419 414.199 107.579C414.743 107.787 415.232 108.004 415.665 108.228C416.097 108.444 416.466 108.693 416.77 108.973C417.075 109.245 417.307 109.562 417.467 109.922C417.635 110.283 417.72 110.712 417.72 111.208C417.72 111.817 417.583 112.346 417.311 112.795C417.047 113.243 416.69 113.616 416.241 113.912C415.793 114.209 415.276 114.429 414.691 114.573C414.106 114.717 413.494 114.789 412.853 114.789C411.587 114.789 410.489 114.545 409.56 114.056ZM420.015 114.056V111.941C421.088 112.734 422.27 113.131 423.56 113.131C425.29 113.131 426.156 112.554 426.156 111.401C426.156 111.072 426.08 110.796 425.927 110.571C425.783 110.339 425.583 110.135 425.327 109.958C425.078 109.782 424.782 109.626 424.437 109.49C424.101 109.346 423.736 109.197 423.344 109.045C422.799 108.829 422.318 108.613 421.902 108.396C421.493 108.172 421.149 107.924 420.868 107.651C420.596 107.371 420.387 107.054 420.243 106.702C420.107 106.349 420.039 105.937 420.039 105.464C420.039 104.887 420.171 104.378 420.436 103.938C420.7 103.489 421.052 103.117 421.493 102.82C421.934 102.516 422.434 102.287 422.995 102.135C423.564 101.983 424.149 101.907 424.75 101.907C425.815 101.907 426.769 102.091 427.61 102.46V104.455C426.705 103.862 425.663 103.565 424.485 103.565C424.117 103.565 423.784 103.609 423.488 103.697C423.191 103.778 422.935 103.894 422.719 104.046C422.51 104.198 422.346 104.382 422.226 104.599C422.114 104.807 422.058 105.039 422.058 105.296C422.058 105.616 422.114 105.885 422.226 106.101C422.346 106.317 422.519 106.509 422.743 106.678C422.967 106.846 423.24 106.998 423.56 107.134C423.88 107.271 424.245 107.419 424.654 107.579C425.198 107.787 425.687 108.004 426.12 108.228C426.552 108.444 426.921 108.693 427.225 108.973C427.53 109.245 427.762 109.562 427.922 109.922C428.091 110.283 428.175 110.712 428.175 111.208C428.175 111.817 428.038 112.346 427.766 112.795C427.502 113.243 427.145 113.616 426.697 113.912C426.248 114.209 425.731 114.429 425.146 114.573C424.561 114.717 423.949 114.789 423.308 114.789C422.042 114.789 420.944 114.545 420.015 114.056Z" fill="url(#paint6_linear_45_9)"/>
</g>
<g filter="url(#filter2_d_45_9)">
<rect x="116" y="131.078" width="104.873" height="29.4994" rx="14.617" transform="rotate(-4.41789 116 131.078)" fill="url(#paint7_linear_45_9)" shape-rendering="crispEdges"/>
<rect x="116" y="131.078" width="104.873" height="29.4994" rx="14.617" transform="rotate(-4.41789 116 131.078)" stroke="url(#paint8_linear_45_9)" stroke-width="1.15778" stroke-dasharray="7.53 7.53" shape-rendering="crispEdges"/>
<path opacity="0.86" d="M140.648 149.484L139.315 149.587L133.97 142.562C133.835 142.385 133.721 142.199 133.627 142.002L133.589 142.005C133.638 142.201 133.688 142.625 133.739 143.276L134.257 149.978L133.17 150.062L132.453 140.785L133.863 140.676L139.07 147.595C139.288 147.882 139.429 148.079 139.494 148.187L139.519 148.185C139.456 147.921 139.399 147.468 139.349 146.825L138.844 140.291L139.931 140.207L140.648 149.484ZM148.027 145.849L143.35 146.21C143.424 146.946 143.666 147.5 144.077 147.872C144.487 148.244 145.024 148.404 145.689 148.353C146.435 148.295 147.101 147.996 147.689 147.456L147.766 148.452C147.216 148.92 146.463 149.191 145.505 149.265C144.569 149.337 143.811 149.094 143.23 148.536C142.648 147.974 142.316 147.147 142.231 146.056C142.152 145.025 142.378 144.164 142.91 143.472C143.446 142.775 144.148 142.393 145.015 142.326C145.882 142.259 146.574 142.488 147.092 143.012C147.609 143.536 147.907 144.296 147.984 145.292L148.027 145.849ZM146.87 145.033C146.819 144.421 146.633 143.956 146.314 143.638C145.998 143.32 145.582 143.181 145.064 143.221C144.564 143.259 144.153 143.471 143.831 143.856C143.51 144.241 143.33 144.726 143.293 145.31L146.87 145.033ZM157.706 141.502L156.232 148.28L155.132 148.365L153.401 143.728C153.335 143.551 153.285 143.349 153.25 143.122L153.224 143.124C153.223 143.28 153.193 143.484 153.135 143.736L152.021 148.605L150.96 148.687L148.442 142.218L149.555 142.132L151.311 147.007C151.366 147.155 151.412 147.351 151.448 147.595L151.5 147.591C151.498 147.4 151.521 147.195 151.569 146.974L152.712 141.888L153.682 141.813L155.44 146.701C155.495 146.857 155.543 147.053 155.583 147.289L155.634 147.285C155.63 147.116 155.651 146.915 155.698 146.681L156.658 141.583L157.706 141.502ZM167.825 147.384L166.764 147.466L166.684 146.431L166.658 146.433C166.258 147.262 165.609 147.712 164.712 147.781C164.052 147.832 163.521 147.697 163.119 147.377C162.721 147.056 162.5 146.607 162.455 146.029C162.36 144.791 163.033 144.015 164.475 143.699L166.439 143.268C166.352 142.142 165.854 141.614 164.944 141.685C164.146 141.746 163.447 142.074 162.846 142.667L162.762 141.58C163.381 141.116 164.116 140.851 164.965 140.785C166.522 140.665 167.364 141.428 167.492 143.076L167.825 147.384ZM166.505 144.115L164.924 144.459C164.438 144.566 164.076 144.717 163.84 144.913C163.603 145.105 163.502 145.423 163.536 145.867C163.561 146.191 163.696 146.447 163.94 146.637C164.189 146.821 164.505 146.899 164.889 146.869C165.415 146.829 165.834 146.612 166.147 146.219C166.463 145.821 166.599 145.34 166.556 144.775L166.505 144.115ZM175.322 146.805L174.261 146.887L173.969 143.109C173.861 141.703 173.293 141.04 172.267 141.119C171.736 141.16 171.312 141.395 170.994 141.823C170.679 142.246 170.546 142.762 170.593 143.37L170.884 147.148L169.824 147.23L169.312 140.605L170.373 140.524L170.458 141.623L170.483 141.621C170.919 140.746 171.611 140.272 172.56 140.198C173.285 140.142 173.857 140.335 174.277 140.775C174.697 141.211 174.941 141.871 175.009 142.755L175.322 146.805ZM182.069 146.284L181.009 146.366L180.929 145.331L180.903 145.333C180.503 146.162 179.854 146.611 178.957 146.68C178.297 146.731 177.766 146.597 177.364 146.276C176.966 145.956 176.745 145.506 176.7 144.928C176.604 143.691 177.278 142.914 178.72 142.599L180.684 142.167C180.597 141.042 180.099 140.514 179.189 140.584C178.391 140.646 177.692 140.973 177.091 141.566L177.007 140.479C177.626 140.015 178.361 139.75 179.21 139.685C180.767 139.564 181.609 140.328 181.737 141.975L182.069 146.284ZM180.75 143.015L179.169 143.358C178.682 143.465 178.321 143.617 178.085 143.813C177.848 144.005 177.747 144.323 177.781 144.767C177.806 145.09 177.941 145.347 178.185 145.536C178.434 145.721 178.75 145.798 179.134 145.769C179.66 145.728 180.079 145.511 180.392 145.118C180.708 144.721 180.844 144.239 180.801 143.675L180.75 143.015ZM185.129 146.047L184.068 146.129L183.311 136.322L184.372 136.24L185.129 146.047ZM192.038 138.85L189.584 146.77C189.147 148.184 188.437 148.928 187.453 149.004C187.177 149.026 186.944 149.016 186.755 148.974L186.681 148.023C186.916 148.083 187.128 148.105 187.318 148.091C187.852 148.05 188.229 147.699 188.447 147.04L188.88 145.744L185.782 139.333L186.959 139.242L189.145 144.201C189.172 144.264 189.23 144.429 189.32 144.695L189.359 144.692C189.372 144.587 189.403 144.42 189.45 144.191L190.938 138.935L192.038 138.85ZM193.275 145.177L193.187 144.039C193.798 144.421 194.45 144.585 195.145 144.532C196.076 144.46 196.518 144.113 196.47 143.492C196.456 143.315 196.404 143.17 196.313 143.055C196.225 142.936 196.109 142.835 195.964 142.75C195.823 142.666 195.657 142.594 195.466 142.535C195.278 142.471 195.076 142.407 194.858 142.341C194.556 142.247 194.288 142.151 194.055 142.052C193.826 141.948 193.63 141.829 193.468 141.694C193.309 141.554 193.184 141.392 193.092 141.209C193.004 141.025 192.95 140.805 192.93 140.551C192.906 140.24 192.956 139.961 193.08 139.713C193.204 139.46 193.378 139.245 193.603 139.067C193.828 138.885 194.088 138.741 194.383 138.636C194.683 138.53 194.995 138.465 195.318 138.44C195.892 138.396 196.413 138.455 196.881 138.619L196.964 139.693C196.452 139.411 195.879 139.295 195.245 139.344C195.047 139.359 194.869 139.397 194.714 139.456C194.557 139.512 194.424 139.585 194.314 139.676C194.208 139.767 194.127 139.873 194.072 139.994C194.02 140.111 194 140.238 194.01 140.376C194.024 140.549 194.065 140.691 194.134 140.803C194.208 140.914 194.309 141.01 194.436 141.092C194.564 141.173 194.717 141.244 194.895 141.304C195.073 141.364 195.276 141.428 195.502 141.497C195.804 141.587 196.076 141.683 196.319 141.786C196.561 141.884 196.769 142.003 196.945 142.141C197.12 142.275 197.258 142.436 197.36 142.623C197.465 142.81 197.528 143.037 197.549 143.305C197.574 143.632 197.523 143.923 197.395 144.176C197.271 144.428 197.095 144.643 196.866 144.822C196.636 145 196.367 145.14 196.059 145.242C195.75 145.344 195.423 145.408 195.078 145.435C194.396 145.487 193.795 145.402 193.275 145.177ZM199.224 136.602C199.034 136.617 198.868 136.565 198.724 136.446C198.58 136.327 198.501 136.168 198.485 135.97C198.47 135.771 198.524 135.602 198.648 135.463C198.771 135.319 198.928 135.239 199.118 135.225C199.312 135.21 199.481 135.264 199.625 135.387C199.773 135.506 199.855 135.664 199.87 135.863C199.884 136.052 199.828 136.22 199.7 136.364C199.577 136.508 199.418 136.587 199.224 136.602ZM200.383 144.869L199.322 144.951L198.811 138.326L199.872 138.244L200.383 144.869ZM202.112 144.494L202.024 143.356C202.635 143.738 203.287 143.903 203.981 143.849C204.913 143.777 205.355 143.43 205.307 142.809C205.293 142.633 205.241 142.487 205.149 142.373C205.062 142.253 204.946 142.152 204.8 142.068C204.659 141.983 204.493 141.911 204.302 141.852C204.115 141.789 203.913 141.724 203.695 141.658C203.393 141.565 203.125 141.468 202.892 141.369C202.663 141.265 202.467 141.146 202.304 141.011C202.146 140.871 202.021 140.71 201.929 140.526C201.841 140.342 201.787 140.123 201.767 139.868C201.743 139.558 201.793 139.278 201.917 139.03C202.041 138.777 202.215 138.562 202.44 138.384C202.664 138.202 202.925 138.058 203.22 137.953C203.52 137.848 203.832 137.782 204.155 137.757C204.729 137.713 205.25 137.773 205.718 137.936L205.801 139.01C205.289 138.728 204.716 138.612 204.082 138.661C203.883 138.676 203.706 138.714 203.55 138.774C203.394 138.829 203.261 138.902 203.151 138.993C203.045 139.084 202.964 139.19 202.909 139.311C202.857 139.428 202.836 139.556 202.847 139.694C202.86 139.866 202.902 140.008 202.971 140.12C203.045 140.231 203.145 140.328 203.273 140.409C203.401 140.49 203.554 140.561 203.732 140.621C203.91 140.681 204.113 140.745 204.339 140.815C204.641 140.904 204.913 141 205.155 141.103C205.397 141.201 205.606 141.32 205.782 141.458C205.957 141.592 206.095 141.753 206.196 141.94C206.302 142.127 206.365 142.355 206.386 142.622C206.411 142.95 206.36 143.24 206.232 143.493C206.108 143.745 205.932 143.961 205.702 144.139C205.473 144.317 205.204 144.457 204.895 144.559C204.587 144.661 204.26 144.725 203.915 144.752C203.233 144.805 202.632 144.719 202.112 144.494Z" fill="url(#paint9_linear_45_9)"/>
</g>
<g filter="url(#filter3_d_45_9)">
<rect x="87.1953" y="56" width="73.0354" height="20.2856" rx="10.1428" transform="rotate(6.21788 87.1953 56)" fill="url(#paint10_linear_45_9)" shape-rendering="crispEdges"/>
<rect x="87.1953" y="56" width="73.0354" height="20.2856" rx="10.1428" transform="rotate(6.21788 87.1953 56)" stroke="url(#paint11_linear_45_9)" stroke-width="0.803393" stroke-dasharray="5.22 5.22" shape-rendering="crispEdges"/>
<path opacity="0.86" d="M101.692 71.3031L100.77 71.2027L98.0241 65.7269C97.9546 65.5895 97.9006 65.4477 97.8621 65.3016L97.8353 65.2987C97.8442 65.4386 97.8241 65.7338 97.775 66.1843L97.2698 70.8213L96.5179 70.7394L97.2172 64.321L98.1929 64.4273L100.858 69.8128C100.969 70.0363 101.04 70.189 101.071 70.2708L101.089 70.2727C101.079 70.0845 101.098 69.768 101.147 69.3234L101.639 64.8028L102.391 64.8848L101.692 71.3031ZM107.19 69.7689L103.954 69.4164C103.91 69.9279 104.004 70.3368 104.237 70.6429C104.469 70.949 104.815 71.1271 105.275 71.1771C105.791 71.2334 106.284 71.115 106.753 70.822L106.678 71.5112C106.244 71.7598 105.695 71.8479 105.033 71.7758C104.385 71.7052 103.899 71.4424 103.574 70.9873C103.25 70.5293 103.129 69.9228 103.211 69.1679C103.289 68.4547 103.553 67.8963 104.005 67.4926C104.46 67.0863 104.987 66.9157 105.587 66.9811C106.186 67.0464 106.629 67.2909 106.915 67.7146C107.201 68.1383 107.307 68.6947 107.232 69.384L107.19 69.7689ZM106.506 69.0649C106.549 68.6408 106.482 68.2999 106.304 68.0421C106.13 67.7846 105.864 67.6363 105.506 67.5973C105.16 67.5596 104.852 67.6514 104.584 67.8727C104.315 68.0941 104.131 68.4016 104.03 68.7952L106.506 69.0649ZM114.348 68.0443L112.474 72.4778L111.713 72.3949L111.126 69.0113C111.104 68.882 111.096 68.7377 111.101 68.5783L111.083 68.5763C111.063 68.6828 111.016 68.8181 110.944 68.9823L109.56 72.1604L108.826 72.0804L107.938 67.346L108.708 67.4299L109.282 70.9796C109.3 71.0873 109.306 71.2269 109.299 71.3982L109.335 71.4021C109.358 71.2718 109.401 71.1345 109.462 70.9902L110.892 67.6678L111.564 67.741L112.136 71.2997C112.154 71.4134 112.161 71.5531 112.158 71.7188L112.194 71.7227C112.213 71.607 112.253 71.4725 112.315 71.3192L113.623 67.9653L114.348 68.0443ZM120.495 73.3517L119.761 73.2717L119.839 72.5556L119.821 72.5536C119.442 73.0679 118.942 73.2912 118.321 73.2236C117.865 73.1739 117.52 73.014 117.287 72.744C117.056 72.4744 116.963 72.1396 117.007 71.7398C117.1 70.8834 117.658 70.44 118.682 70.4097L120.077 70.3669C120.162 69.5881 119.89 69.1644 119.26 69.0958C118.708 69.0357 118.189 69.1694 117.704 69.4969L117.786 68.745C118.268 68.5076 118.802 68.4209 119.39 68.485C120.467 68.6023 120.944 69.231 120.82 70.3708L120.495 73.3517ZM120.014 70.9532L118.891 70.985C118.546 70.9957 118.28 71.0527 118.094 71.1562C117.908 71.2567 117.798 71.4606 117.764 71.768C117.74 71.9918 117.799 72.1839 117.942 72.3444C118.088 72.5022 118.293 72.5955 118.559 72.6245C118.923 72.6641 119.237 72.57 119.5 72.342C119.767 72.1114 119.921 71.8007 119.964 71.4098L120.014 70.9532ZM125.682 73.9169L124.948 73.8369L125.233 71.223C125.339 70.2503 125.037 69.7252 124.327 69.6478C123.96 69.6079 123.64 69.7134 123.368 69.9646C123.1 70.2131 122.943 70.5477 122.897 70.9685L122.612 73.5824L121.878 73.5024L122.377 68.9191L123.111 68.9991L123.028 69.76L123.046 69.7619C123.456 69.2208 123.988 68.986 124.645 69.0575C125.146 69.1121 125.512 69.3165 125.742 69.6707C125.972 70.0219 126.054 70.5033 125.988 71.115L125.682 73.9169ZM130.351 74.4255L129.617 74.3455L129.695 73.6294L129.677 73.6274C129.298 74.1417 128.798 74.365 128.177 74.2974C127.721 74.2476 127.376 74.0878 127.142 73.8178C126.912 73.5482 126.819 73.2134 126.862 72.8136C126.956 71.9572 127.514 71.5138 128.538 71.4835L129.933 71.4407C130.018 70.6619 129.746 70.2382 129.116 70.1696C128.564 70.1095 128.045 70.2432 127.56 70.5707L127.642 69.8188C128.123 69.5814 128.658 69.4947 129.246 69.5588C130.323 69.6761 130.8 70.3047 130.676 71.4446L130.351 74.4255ZM129.869 72.027L128.747 72.0588C128.402 72.0695 128.136 72.1265 127.95 72.23C127.763 72.3305 127.654 72.5344 127.62 72.8418C127.596 73.0656 127.655 73.2577 127.797 73.4182C127.943 73.576 128.149 73.6693 128.415 73.6983C128.779 73.7379 129.092 73.6438 129.356 73.4158C129.622 73.1852 129.777 72.8745 129.82 72.4836L129.869 72.027ZM132.468 74.6562L131.734 74.5762L132.473 67.7908L133.207 67.8708L132.468 74.6562ZM138.101 70.6322L135.413 75.7198C134.934 76.6278 134.354 77.0447 133.674 76.9705C133.483 76.9497 133.325 76.9129 133.201 76.8602L133.273 76.2022C133.425 76.2732 133.567 76.3158 133.698 76.3301C134.068 76.3704 134.37 76.1798 134.603 75.7584L135.065 74.93L133.773 70.1607L134.587 70.2494L135.443 73.9115C135.453 73.9578 135.472 74.0776 135.499 74.2708L135.526 74.2737C135.548 74.2038 135.591 74.0936 135.652 73.9433L137.34 70.5493L138.101 70.6322ZM138.134 75.106L138.22 74.3182C138.588 74.6572 139.012 74.8528 139.492 74.9052C140.137 74.9754 140.482 74.7957 140.529 74.366C140.543 74.2436 140.525 74.1376 140.478 74.0479C140.434 73.9555 140.367 73.8713 140.279 73.7952C140.194 73.7195 140.09 73.6493 139.967 73.5846C139.847 73.5172 139.718 73.4472 139.578 73.3746C139.383 73.2719 139.213 73.1719 139.067 73.0744C138.924 72.9743 138.805 72.8678 138.712 72.755C138.622 72.6395 138.557 72.5132 138.518 72.376C138.481 72.2392 138.473 72.0828 138.492 71.9067C138.515 71.6919 138.585 71.5078 138.702 71.3544C138.818 71.198 138.965 71.0736 139.141 70.981C139.317 70.8855 139.513 70.8208 139.728 70.7869C139.946 70.7533 140.167 70.7486 140.391 70.773C140.788 70.8163 141.135 70.9236 141.434 71.095L141.353 71.838C141.04 71.5804 140.664 71.4277 140.225 71.38C140.088 71.365 139.962 71.3679 139.848 71.3887C139.735 71.4065 139.634 71.4394 139.548 71.4873C139.464 71.5355 139.395 71.5975 139.342 71.6732C139.291 71.7462 139.261 71.8305 139.251 71.926C139.238 72.0453 139.248 72.1476 139.281 72.2327C139.317 72.3181 139.373 72.3967 139.45 72.4685C139.527 72.5403 139.622 72.608 139.736 72.6717C139.849 72.7355 139.979 72.8055 140.125 72.8817C140.319 72.9814 140.493 73.0818 140.645 73.1829C140.797 73.281 140.924 73.3885 141.026 73.5053C141.128 73.6191 141.202 73.7464 141.247 73.8871C141.295 74.0282 141.309 74.1913 141.289 74.3763C141.264 74.6031 141.192 74.7945 141.072 74.9505C140.956 75.1069 140.808 75.2312 140.629 75.3234C140.45 75.4156 140.248 75.4767 140.025 75.5066C139.801 75.5366 139.57 75.5386 139.331 75.5126C138.86 75.4612 138.461 75.3257 138.134 75.106ZM143.29 70.02C143.159 70.0057 143.052 69.9488 142.969 69.8492C142.886 69.7496 142.852 69.6312 142.867 69.4939C142.882 69.3566 142.941 69.2483 143.043 69.1689C143.146 69.0864 143.262 69.0524 143.394 69.0667C143.528 69.0813 143.636 69.1399 143.719 69.2425C143.805 69.3424 143.84 69.461 143.825 69.5983C143.811 69.7296 143.751 69.8362 143.645 69.9183C143.543 70.0008 143.424 70.0347 143.29 70.02ZM143.022 75.806L142.288 75.726L142.787 71.1428L143.521 71.2228L143.022 75.806ZM144.248 75.7721L144.334 74.9843C144.702 75.3233 145.126 75.519 145.606 75.5713C146.251 75.6415 146.596 75.4618 146.643 75.0321C146.657 74.9098 146.639 74.8037 146.592 74.714C146.548 74.6216 146.481 74.5374 146.393 74.4614C146.308 74.3856 146.204 74.3154 146.081 74.2507C145.961 74.1834 145.832 74.1134 145.692 74.0407C145.497 73.9381 145.327 73.838 145.181 73.7405C145.038 73.6404 144.919 73.5339 144.826 73.4211C144.736 73.3056 144.671 73.1793 144.632 73.0421C144.595 72.9053 144.587 72.7489 144.606 72.5728C144.629 72.358 144.699 72.1739 144.816 72.0205C144.932 71.8641 145.079 71.7397 145.255 71.6472C145.431 71.5516 145.627 71.4869 145.842 71.453C146.06 71.4194 146.281 71.4148 146.505 71.4391C146.902 71.4824 147.249 71.5897 147.548 71.7611L147.467 72.5041C147.154 72.2465 146.778 72.0939 146.339 72.0461C146.202 72.0311 146.076 72.034 145.962 72.0548C145.849 72.0726 145.748 72.1055 145.662 72.1534C145.578 72.2017 145.509 72.2636 145.456 72.3393C145.405 72.4124 145.375 72.4966 145.365 72.5921C145.352 72.7115 145.362 72.8137 145.395 72.8988C145.431 72.9842 145.487 73.0628 145.564 73.1346C145.64 73.2064 145.736 73.2741 145.85 73.3379C145.963 73.4016 146.093 73.4716 146.239 73.5478C146.433 73.6475 146.607 73.7479 146.759 73.849C146.911 73.9471 147.038 74.0546 147.14 74.1714C147.242 74.2852 147.316 74.4125 147.361 74.5533C147.409 74.6944 147.423 74.8574 147.403 75.0424C147.378 75.2692 147.306 75.4606 147.186 75.6166C147.07 75.773 146.922 75.8973 146.743 75.9895C146.564 76.0817 146.362 76.1428 146.139 76.1728C145.915 76.2027 145.684 76.2047 145.445 76.1787C144.974 76.1274 144.575 75.9918 144.248 75.7721Z" fill="url(#paint12_linear_45_9)"/>
</g>
<g filter="url(#filter4_d_45_9)">
<g clip-path="url(#clip0_45_9)">
<rect x="474.434" y="50" width="119.959" height="32.9852" rx="16.4926" transform="rotate(9.47976 474.434 50)" fill="url(#paint13_linear_45_9)" shape-rendering="crispEdges"/>
<path opacity="0.86" d="M496.72 77.0323L495.215 76.781L491.218 67.5307C491.116 67.2985 491.041 67.0606 490.991 66.8171L490.948 66.8098C490.949 67.0403 490.889 67.5233 490.766 68.2587L489.502 75.8271L488.275 75.6222L490.024 65.1462L491.617 65.4121L495.49 74.5066C495.652 74.8841 495.754 75.1415 495.796 75.2787L495.825 75.2835C495.827 74.9734 495.889 74.4556 496.01 73.7299L497.242 66.3514L498.469 66.5564L496.72 77.0323ZM505.893 75.0272L500.611 74.1453C500.491 74.9814 500.608 75.6616 500.961 76.1861C501.314 76.7106 501.865 77.0355 502.616 77.1608C503.458 77.3014 504.279 77.1531 505.078 76.7159L504.89 77.8409C504.153 78.2084 503.243 78.3019 502.162 78.1213C501.105 77.9449 500.332 77.4677 499.841 76.6899C499.351 75.9072 499.208 74.8998 499.414 73.6676C499.609 72.5036 500.095 71.6112 500.875 70.9905C501.66 70.3657 502.542 70.135 503.521 70.2985C504.5 70.4619 505.204 70.9049 505.634 71.6275C506.064 72.3501 506.186 73.2739 505.998 74.399L505.893 75.0272ZM504.835 73.8069C504.946 73.1145 504.867 72.5482 504.601 72.1082C504.338 71.669 503.915 71.4005 503.331 71.303C502.766 71.2086 502.252 71.3306 501.79 71.669C501.328 72.0073 500.997 72.4951 500.795 73.1323L504.835 73.8069ZM517.81 72.8647L514.319 79.971L513.077 79.7636L512.429 74.1513C512.405 73.937 512.405 73.6992 512.428 73.4378L512.399 73.4329C512.355 73.6058 512.266 73.8237 512.132 74.0867L509.563 79.1768L508.365 78.9768L507.349 71.1179L508.606 71.3277L509.215 77.2115C509.235 77.3901 509.232 77.6198 509.205 77.9006L509.264 77.9104C509.314 77.6986 509.396 77.477 509.51 77.2457L512.171 71.923L513.266 72.106L513.873 78.0043C513.892 78.1927 513.891 78.4228 513.871 78.6947L513.929 78.7045C513.971 78.5162 514.05 78.2991 514.166 78.0531L516.627 72.6671L517.81 72.8647ZM527.41 82.1569L526.212 81.9569L526.407 80.788L526.378 80.7831C525.707 81.5923 524.865 81.9122 523.852 81.7431C523.107 81.6187 522.555 81.3238 522.198 80.8586C521.845 80.3941 521.723 79.8356 521.832 79.183C522.065 77.7852 523.024 77.1093 524.708 77.1553L527.003 77.2157C527.216 75.9445 526.808 75.2232 525.78 75.0516C524.879 74.9011 524.015 75.0721 523.187 75.5646L523.392 74.3373C524.205 73.9926 525.092 73.9003 526.051 74.0605C527.809 74.3541 528.533 75.4311 528.222 77.2915L527.41 82.1569ZM526.844 78.1727L524.998 78.1198C524.429 78.105 523.987 78.1738 523.672 78.3263C523.357 78.474 523.157 78.7986 523.073 79.3003C523.012 79.6655 523.092 79.9866 523.311 80.2635C523.535 80.5363 523.865 80.7089 524.298 80.7813C524.892 80.8805 525.416 80.7552 525.87 80.4055C526.33 80.0517 526.613 79.5558 526.719 78.9178L526.844 78.1727ZM535.877 83.5707L534.679 83.3707L535.391 79.1043C535.656 77.5166 535.209 76.626 534.05 76.4324C533.451 76.3324 532.916 76.4759 532.446 76.863C531.982 77.246 531.692 77.7809 531.578 78.4676L530.865 82.7339L529.667 82.5339L530.916 75.0531L532.114 75.2532L531.907 76.4951L531.936 76.5C532.659 75.6495 533.556 75.3137 534.628 75.4926C535.446 75.6292 536.027 75.9992 536.372 76.6024C536.718 77.2008 536.807 77.9992 536.64 78.9976L535.877 83.5707ZM543.496 84.8431L542.298 84.643L542.493 83.4741L542.464 83.4693C541.793 84.2784 540.952 84.5984 539.939 84.4292C539.193 84.3048 538.642 84.0099 538.284 83.5447C537.931 83.0803 537.809 82.5217 537.918 81.8691C538.151 80.4714 539.11 79.7955 540.795 79.8414L543.09 79.9018C543.302 78.6306 542.895 77.9093 541.867 77.7377C540.966 77.5872 540.101 77.7583 539.273 78.2507L539.478 77.0234C540.292 76.6787 541.178 76.5864 542.138 76.7466C543.896 77.0402 544.619 78.1172 544.309 79.9776L543.496 84.8431ZM542.93 80.8588L541.084 80.8059C540.516 80.7911 540.074 80.86 539.758 81.0125C539.443 81.1601 539.244 81.4848 539.16 81.9864C539.099 82.3517 539.178 82.6727 539.397 82.9496C539.622 83.2224 539.951 83.395 540.385 83.4674C540.979 83.5666 541.503 83.4414 541.957 83.0916C542.416 82.7379 542.699 82.242 542.806 81.6039L542.93 80.8588ZM546.952 85.42L545.754 85.22L547.603 74.145L548.801 74.345L546.952 85.42ZM556.58 79.3385L551.69 87.4428C550.818 88.889 549.827 89.5195 548.716 89.3341C548.404 89.282 548.149 89.2068 547.95 89.1086L548.13 88.0347C548.373 88.1654 548.602 88.2487 548.816 88.2845C549.42 88.3853 549.933 88.1006 550.356 87.4302L551.191 86.113L549.516 78.1589L550.846 78.3809L551.908 84.4755C551.92 84.5526 551.939 84.7511 551.966 85.0709L552.01 85.0782C552.054 84.9654 552.133 84.7885 552.249 84.5474L555.338 79.1311L556.58 79.3385ZM556.216 86.6892L556.431 85.4035C557.003 85.9946 557.681 86.3556 558.465 86.4865C559.517 86.6622 560.102 86.3994 560.219 85.6981C560.252 85.4984 560.234 85.3226 560.164 85.1708C560.1 85.0149 559.999 84.8704 559.861 84.7372C559.728 84.6049 559.564 84.4798 559.368 84.3621C559.178 84.2402 558.972 84.1131 558.749 83.9807C558.439 83.7939 558.169 83.6137 557.938 83.4399C557.712 83.262 557.528 83.0761 557.385 82.882C557.248 82.6839 557.154 82.4704 557.102 82.2415C557.055 82.0133 557.055 81.7556 557.103 81.4683C557.162 81.1176 557.294 80.8218 557.499 80.5807C557.705 80.3348 557.958 80.1442 558.256 80.0087C558.554 79.8683 558.882 79.7804 559.238 79.7448C559.599 79.71 559.963 79.7231 560.328 79.784C560.976 79.8922 561.537 80.101 562.011 80.4104L561.808 81.6231C561.318 81.1708 560.715 80.8849 559.999 80.7654C559.775 80.728 559.568 80.721 559.379 80.7445C559.191 80.7631 559.023 80.8077 558.876 80.8783C558.734 80.9496 558.616 81.045 558.521 81.1643C558.431 81.2795 558.374 81.4151 558.348 81.5709C558.315 81.7657 558.322 81.9346 558.368 82.0775C558.419 82.2212 558.504 82.3555 558.624 82.4806C558.743 82.6056 558.893 82.7258 559.074 82.8411C559.255 82.9565 559.462 83.0836 559.694 83.2224C560.004 83.4044 560.279 83.5855 560.519 83.7658C560.76 83.9412 560.959 84.1296 561.116 84.3309C561.273 84.5274 561.382 84.7434 561.443 84.9788C561.509 85.215 561.516 85.4841 561.466 85.7861C561.404 86.1562 561.268 86.4639 561.056 86.7089C560.85 86.9548 560.596 87.1451 560.293 87.2798C559.99 87.4144 559.654 87.4959 559.283 87.5242C558.913 87.5525 558.533 87.5341 558.144 87.4691C557.374 87.3406 556.732 87.0806 556.216 86.6892ZM565.16 78.8187C564.946 78.7829 564.775 78.6794 564.649 78.5081C564.522 78.3367 564.477 78.1391 564.515 77.915C564.552 77.691 564.659 77.5185 564.834 77.3976C565.01 77.2719 565.205 77.2269 565.42 77.2627C565.639 77.2993 565.811 77.4057 565.937 77.5818C566.069 77.754 566.116 77.9521 566.078 78.1761C566.042 78.3904 565.934 78.56 565.753 78.685C565.577 78.8107 565.379 78.8553 565.16 78.8187ZM564.178 88.2965L562.98 88.0964L564.229 80.6157L565.427 80.8157L564.178 88.2965ZM566.196 88.3555L566.41 87.0698C566.982 87.6609 567.661 88.0219 568.445 88.1529C569.497 88.3285 570.081 88.0657 570.198 87.3644C570.232 87.1647 570.213 86.9889 570.144 86.8371C570.08 86.6812 569.979 86.5367 569.841 86.4036C569.707 86.2712 569.543 86.1461 569.348 86.0284C569.158 85.9066 568.951 85.7795 568.728 85.6471C568.419 85.4603 568.148 85.28 567.917 85.1062C567.691 84.9283 567.507 84.7424 567.364 84.5483C567.227 84.3502 567.133 84.1367 567.081 83.9078C567.034 83.6797 567.034 83.4219 567.082 83.1346C567.141 82.7839 567.273 82.4881 567.478 82.2471C567.685 82.0012 567.937 81.8105 568.235 81.675C568.533 81.5347 568.861 81.4467 569.217 81.4111C569.579 81.3763 569.942 81.3894 570.307 81.4504C570.955 81.5585 571.516 81.7673 571.99 82.0767L571.787 83.2894C571.297 82.8371 570.694 82.5512 569.978 82.4317C569.754 82.3943 569.548 82.3873 569.358 82.4108C569.17 82.4294 569.002 82.474 568.855 82.5446C568.713 82.616 568.595 82.7113 568.5 82.8306C568.41 82.9459 568.353 83.0814 568.327 83.2373C568.294 83.4321 568.301 83.6009 568.347 83.7438C568.398 83.8875 568.484 84.0219 568.603 84.1469C568.722 84.272 568.872 84.3921 569.053 84.5075C569.234 84.6228 569.441 84.7499 569.673 84.8888C569.983 85.0707 570.258 85.2518 570.498 85.4321C570.739 85.6075 570.938 85.7959 571.095 85.9972C571.252 86.1937 571.361 86.4097 571.422 86.6451C571.488 86.8814 571.495 87.1505 571.445 87.4524C571.383 87.8226 571.247 88.1302 571.036 88.3753C570.829 88.6212 570.575 88.8114 570.272 88.9461C569.969 89.0808 569.633 89.1622 569.263 89.1905C568.892 89.2188 568.512 89.2005 568.123 89.1354C567.353 89.0069 566.711 88.7469 566.196 88.3555Z" fill="url(#paint14_linear_45_9)"/>
</g>
<rect x="474.434" y="50" width="119.959" height="32.9852" rx="16.4926" transform="rotate(9.47976 474.434 50)" stroke="url(#paint15_linear_45_9)" stroke-width="1.32162" stroke-dasharray="8.59 8.59" shape-rendering="crispEdges"/>
</g>
<g filter="url(#filter5_d_45_9)">
<rect x="498" y="142.801" width="64.8716" height="18.4988" rx="9.04741" transform="rotate(-6.01682 498 142.801)" fill="url(#paint16_linear_45_9)" shape-rendering="crispEdges"/>
<rect x="498" y="142.801" width="64.8716" height="18.4988" rx="9.04741" transform="rotate(-6.01682 498 142.801)" stroke="url(#paint17_linear_45_9)" stroke-width="0.716627" stroke-dasharray="4.66 4.66" shape-rendering="crispEdges"/>
<path opacity="0.86" d="M513.538 153.48L512.716 153.567L509.287 149.313C509.2 149.206 509.126 149.093 509.065 148.973L509.041 148.975C509.075 149.095 509.114 149.356 509.156 149.759L509.592 153.896L508.921 153.967L508.318 148.24L509.188 148.148L512.53 152.339C512.669 152.513 512.76 152.632 512.802 152.698L512.818 152.696C512.774 152.534 512.731 152.254 512.689 151.858L512.264 147.824L512.935 147.753L513.538 153.48ZM518.041 151.104L515.153 151.408C515.212 151.862 515.371 152.201 515.632 152.424C515.892 152.647 516.228 152.737 516.638 152.693C517.098 152.645 517.506 152.448 517.86 152.104L517.924 152.719C517.593 153.018 517.131 153.199 516.54 153.261C515.962 153.322 515.489 153.185 515.119 152.849C514.75 152.511 514.53 152.006 514.459 151.332C514.392 150.695 514.517 150.159 514.834 149.721C515.154 149.281 515.581 149.033 516.117 148.976C516.652 148.92 517.084 149.049 517.413 149.365C517.743 149.68 517.94 150.145 518.005 150.76L518.041 151.104ZM517.311 150.619C517.269 150.241 517.146 149.957 516.943 149.766C516.742 149.574 516.482 149.495 516.163 149.529C515.854 149.561 515.603 149.7 515.411 149.943C515.218 150.187 515.116 150.49 515.103 150.852L517.311 150.619ZM523.955 148.247L523.16 152.466L522.481 152.538L521.329 149.699C521.286 149.591 521.251 149.466 521.226 149.326L521.21 149.328C521.212 149.425 521.197 149.552 521.165 149.708L520.56 152.74L519.905 152.809L518.235 148.85L518.922 148.778L520.093 151.764C520.13 151.854 520.161 151.975 520.188 152.125L520.22 152.122C520.216 152.004 520.226 151.876 520.252 151.739L520.871 148.572L521.471 148.509L522.642 151.503C522.679 151.599 522.712 151.719 522.741 151.864L522.773 151.861C522.767 151.756 522.777 151.632 522.802 151.486L523.308 148.315L523.955 148.247ZM530.317 151.712L529.662 151.781L529.595 151.142L529.579 151.144C529.345 151.664 528.952 151.953 528.398 152.011C527.991 152.054 527.66 151.98 527.405 151.789C527.154 151.597 527.009 151.323 526.971 150.966C526.891 150.202 527.294 149.71 528.181 149.49L529.389 149.189C529.315 148.494 528.998 148.176 528.436 148.235C527.943 148.287 527.517 148.502 527.155 148.879L527.084 148.208C527.46 147.91 527.909 147.733 528.434 147.678C529.395 147.577 529.929 148.035 530.037 149.052L530.317 151.712ZM529.444 149.712L528.472 149.952C528.173 150.026 527.952 150.126 527.809 150.252C527.665 150.375 527.608 150.573 527.637 150.847C527.658 151.047 527.746 151.203 527.901 151.316C528.058 151.426 528.255 151.469 528.492 151.444C528.816 151.41 529.072 151.268 529.259 151.02C529.447 150.768 529.524 150.468 529.487 150.119L529.444 149.712ZM534.946 151.224L534.291 151.293L534.045 148.961C533.954 148.093 533.591 147.692 532.957 147.759C532.63 147.793 532.371 147.946 532.182 148.216C531.994 148.483 531.921 148.805 531.96 149.18L532.206 151.513L531.551 151.582L531.12 147.492L531.775 147.423L531.847 148.102L531.863 148.1C532.117 147.551 532.537 147.246 533.123 147.184C533.57 147.137 533.928 147.246 534.195 147.511C534.462 147.774 534.625 148.178 534.682 148.724L534.946 151.224ZM539.112 150.785L538.457 150.854L538.389 150.215L538.373 150.217C538.14 150.737 537.746 151.026 537.193 151.084C536.785 151.127 536.454 151.053 536.2 150.862C535.948 150.67 535.804 150.396 535.766 150.039C535.685 149.275 536.089 148.783 536.975 148.563L538.183 148.262C538.11 147.567 537.793 147.249 537.231 147.308C536.738 147.36 536.311 147.575 535.95 147.952L535.879 147.281C536.254 146.983 536.704 146.806 537.229 146.751C538.19 146.65 538.724 147.108 538.831 148.125L539.112 150.785ZM538.239 148.785L537.266 149.025C536.967 149.099 536.746 149.199 536.603 149.325C536.46 149.448 536.403 149.646 536.432 149.92C536.453 150.12 536.541 150.276 536.695 150.389C536.852 150.499 537.049 150.542 537.286 150.517C537.611 150.483 537.867 150.341 538.053 150.093C538.242 149.841 538.318 149.541 538.281 149.192L538.239 148.785ZM541.001 150.586L540.346 150.655L539.708 144.6L540.363 144.531L541.001 150.586ZM545.151 146.013L543.77 150.956C543.523 151.838 543.097 152.311 542.49 152.375C542.319 152.393 542.175 152.391 542.057 152.368L541.995 151.781C542.141 151.814 542.273 151.825 542.39 151.812C542.72 151.778 542.947 151.554 543.071 151.143L543.316 150.334L541.289 146.42L542.015 146.344L543.453 149.374C543.471 149.413 543.51 149.514 543.57 149.677L543.594 149.674C543.601 149.609 543.617 149.505 543.642 149.362L544.472 146.085L545.151 146.013ZM546.025 149.907L545.951 149.204C546.336 149.43 546.743 149.52 547.171 149.475C547.746 149.414 548.014 149.192 547.973 148.809C547.962 148.7 547.927 148.611 547.868 148.541C547.812 148.469 547.739 148.408 547.647 148.359C547.559 148.309 547.455 148.267 547.335 148.234C547.218 148.198 547.092 148.161 546.956 148.125C546.768 148.072 546.6 148.017 546.454 147.96C546.311 147.899 546.187 147.829 546.085 147.748C545.984 147.664 545.904 147.567 545.844 147.454C545.786 147.342 545.749 147.207 545.732 147.05C545.712 146.859 545.738 146.685 545.811 146.529C545.883 146.371 545.987 146.235 546.123 146.121C546.259 146.004 546.417 145.911 546.598 145.84C546.782 145.77 546.974 145.724 547.174 145.703C547.528 145.666 547.851 145.694 548.143 145.787L548.213 146.45C547.892 146.284 547.535 146.222 547.144 146.263C547.021 146.276 546.912 146.303 546.817 146.342C546.721 146.379 546.64 146.427 546.573 146.485C546.51 146.543 546.461 146.61 546.429 146.686C546.399 146.759 546.389 146.838 546.398 146.924C546.409 147.03 546.437 147.117 546.482 147.185C546.529 147.253 546.593 147.311 546.674 147.359C546.754 147.407 546.85 147.448 546.961 147.482C547.073 147.516 547.199 147.553 547.34 147.592C547.529 147.642 547.699 147.696 547.85 147.756C548.002 147.813 548.133 147.882 548.244 147.965C548.355 148.045 548.443 148.142 548.509 148.256C548.577 148.37 548.62 148.509 548.638 148.674C548.659 148.877 548.632 149.057 548.557 149.216C548.485 149.374 548.38 149.511 548.241 149.625C548.102 149.739 547.938 149.83 547.749 149.899C547.56 149.967 547.359 150.013 547.146 150.035C546.725 150.079 546.351 150.037 546.025 149.907ZM549.558 144.499C549.441 144.511 549.337 144.482 549.246 144.41C549.155 144.339 549.103 144.242 549.09 144.12C549.078 143.997 549.108 143.892 549.182 143.803C549.256 143.712 549.352 143.66 549.469 143.648C549.589 143.635 549.694 143.666 549.785 143.74C549.879 143.811 549.932 143.907 549.945 144.03C549.957 144.147 549.925 144.251 549.849 144.343C549.775 144.434 549.678 144.486 549.558 144.499ZM550.418 149.593L549.763 149.662L549.332 145.572L549.987 145.503L550.418 149.593ZM551.481 149.332L551.407 148.629C551.792 148.855 552.198 148.945 552.627 148.9C553.202 148.839 553.47 148.617 553.429 148.234C553.418 148.125 553.383 148.036 553.324 147.966C553.268 147.894 553.194 147.833 553.103 147.784C553.014 147.734 552.91 147.692 552.791 147.659C552.674 147.623 552.548 147.586 552.412 147.55C552.223 147.497 552.056 147.442 551.91 147.384C551.766 147.324 551.643 147.254 551.54 147.173C551.44 147.089 551.36 146.992 551.299 146.879C551.242 146.767 551.205 146.632 551.188 146.475C551.168 146.283 551.194 146.11 551.267 145.954C551.339 145.796 551.443 145.66 551.579 145.546C551.715 145.429 551.873 145.336 552.054 145.265C552.238 145.195 552.43 145.149 552.629 145.128C552.983 145.091 553.307 145.118 553.599 145.211L553.669 145.874C553.347 145.709 552.991 145.647 552.599 145.688C552.477 145.701 552.368 145.728 552.273 145.767C552.177 145.804 552.096 145.852 552.029 145.91C551.965 145.968 551.917 146.035 551.885 146.111C551.855 146.184 551.844 146.263 551.853 146.349C551.865 146.455 551.893 146.542 551.937 146.61C551.985 146.678 552.049 146.736 552.129 146.784C552.21 146.832 552.306 146.873 552.417 146.907C552.528 146.941 552.655 146.978 552.796 147.016C552.984 147.067 553.154 147.121 553.306 147.181C553.457 147.238 553.589 147.307 553.7 147.39C553.81 147.47 553.899 147.567 553.964 147.681C554.033 147.795 554.076 147.934 554.093 148.099C554.115 148.302 554.088 148.482 554.013 148.641C553.941 148.799 553.836 148.935 553.697 149.05C553.558 149.164 553.394 149.255 553.205 149.324C553.015 149.392 552.814 149.438 552.601 149.46C552.181 149.504 551.807 149.462 551.481 149.332Z" fill="url(#paint18_linear_45_9)"/>
</g>
<defs>
<filter id="filter0_di_45_9" x="230.642" y="69.6369" width="236.212" height="78.5727" filterUnits="userSpaceOnUse" color-interpolation-filters="sRGB">
<feFlood flood-opacity="0" result="BackgroundImageFix"/>
<feColorMatrix in="SourceAlpha" type="matrix" values="0 0 0 0 0 0 0 0 0 0 0 0 0 0 0 0 0 0 127 0" result="hardAlpha"/>
<feOffset dy="4.92229"/>
<feGaussianBlur stdDeviation="5.67882"/>
<feComposite in2="hardAlpha" operator="out"/>
<feColorMatrix type="matrix" values="0 0 0 0 0 0 0 0 0 0 0 0 0 0 0 0 0 0 0.15 0"/>
<feBlend mode="normal" in2="BackgroundImageFix" result="effect1_dropShadow_45_9"/>
<feBlend mode="normal" in="SourceGraphic" in2="effect1_dropShadow_45_9" result="shape"/>
<feColorMatrix in="SourceAlpha" type="matrix" values="0 0 0 0 0 0 0 0 0 0 0 0 0 0 0 0 0 0 127 0" result="hardAlpha"/>
<feOffset dy="2.46114"/>
<feGaussianBlur stdDeviation="1.23057"/>
<feComposite in2="hardAlpha" operator="arithmetic" k2="-1" k3="1"/>
<feColorMatrix type="matrix" values="0 0 0 0 0.679808 0 0 0 0 0.79988 0 0 0 0 1 0 0 0 1 0"/>
<feBlend mode="normal" in2="shape" result="effect2_innerShadow_45_9"/>
</filter>
<filter id="filter1_d_45_9" x="256.136" y="94.0768" width="40.9048" height="34.8894" filterUnits="userSpaceOnUse" color-interpolation-filters="sRGB">
<feFlood flood-opacity="0" result="BackgroundImageFix"/>
<feColorMatrix in="SourceAlpha" type="matrix" values="0 0 0 0 0 0 0 0 0 0 0 0 0 0 0 0 0 0 127 0" result="hardAlpha"/>
<feOffset dx="-2.00513" dy="2.00513"/>
<feGaussianBlur stdDeviation="4.9627"/>
<feComposite in2="hardAlpha" operator="out"/>
<feColorMatrix type="matrix" values="0 0 0 0 0 0 0 0 0 0 0 0 0 0 0 0 0 0 0.13 0"/>
<feBlend mode="normal" in2="BackgroundImageFix" result="effect1_dropShadow_45_9"/>
<feBlend mode="normal" in="SourceGraphic" in2="effect1_dropShadow_45_9" result="shape"/>
</filter>
<filter id="filter2_d_45_9" x="114.073" y="122.402" width="110.688" height="41.3438" filterUnits="userSpaceOnUse" color-interpolation-filters="sRGB">
<feFlood flood-opacity="0" result="BackgroundImageFix"/>
<feColorMatrix in="SourceAlpha" type="matrix" values="0 0 0 0 0 0 0 0 0 0 0 0 0 0 0 0 0 0 127 0" result="hardAlpha"/>
<feOffset dy="1.32881"/>
<feGaussianBlur stdDeviation="0.963391"/>
<feComposite in2="hardAlpha" operator="out"/>
<feColorMatrix type="matrix" values="0 0 0 0 0 0 0 0 0 0 0 0 0 0 0 0 0 0 0.1 0"/>
<feBlend mode="normal" in2="BackgroundImageFix" result="effect1_dropShadow_45_9"/>
<feBlend mode="normal" in="SourceGraphic" in2="effect1_dropShadow_45_9" result="shape"/>
</filter>
<filter id="filter3_d_45_9" x="83.6613" y="55.5851" width="77.4768" height="30.7507" filterUnits="userSpaceOnUse" color-interpolation-filters="sRGB">
<feFlood flood-opacity="0" result="BackgroundImageFix"/>
<feColorMatrix in="SourceAlpha" type="matrix" values="0 0 0 0 0 0 0 0 0 0 0 0 0 0 0 0 0 0 127 0" result="hardAlpha"/>
<feOffset dy="0.922076"/>
<feGaussianBlur stdDeviation="0.668505"/>
<feComposite in2="hardAlpha" operator="out"/>
<feColorMatrix type="matrix" values="0 0 0 0 0 0 0 0 0 0 0 0 0 0 0 0 0 0 0.1 0"/>
<feBlend mode="normal" in2="BackgroundImageFix" result="effect1_dropShadow_45_9"/>
<feBlend mode="normal" in="SourceGraphic" in2="effect1_dropShadow_45_9" result="shape"/>
</filter>
<filter id="filter4_d_45_9" x="466.802" y="49.3174" width="128.153" height="56.6909" filterUnits="userSpaceOnUse" color-interpolation-filters="sRGB">
<feFlood flood-opacity="0" result="BackgroundImageFix"/>
<feColorMatrix in="SourceAlpha" type="matrix" values="0 0 0 0 0 0 0 0 0 0 0 0 0 0 0 0 0 0 127 0" result="hardAlpha"/>
<feOffset dy="1.51686"/>
<feGaussianBlur stdDeviation="1.09973"/>
<feComposite in2="hardAlpha" operator="out"/>
<feColorMatrix type="matrix" values="0 0 0 0 0 0 0 0 0 0 0 0 0 0 0 0 0 0 0.1 0"/>
<feBlend mode="normal" in2="BackgroundImageFix" result="effect1_dropShadow_45_9"/>
<feBlend mode="normal" in="SourceGraphic" in2="effect1_dropShadow_45_9" result="shape"/>
</filter>
<filter id="filter5_d_45_9" x="496.807" y="135.631" width="68.8386" height="27.582" filterUnits="userSpaceOnUse" color-interpolation-filters="sRGB">
<feFlood flood-opacity="0" result="BackgroundImageFix"/>
<feColorMatrix in="SourceAlpha" type="matrix" values="0 0 0 0 0 0 0 0 0 0 0 0 0 0 0 0 0 0 127 0" result="hardAlpha"/>
<feOffset dy="0.822492"/>
<feGaussianBlur stdDeviation="0.596307"/>
<feComposite in2="hardAlpha" operator="out"/>
<feColorMatrix type="matrix" values="0 0 0 0 0 0 0 0 0 0 0 0 0 0 0 0 0 0 0.1 0"/>
<feBlend mode="normal" in2="BackgroundImageFix" result="effect1_dropShadow_45_9"/>
<feBlend mode="normal" in="SourceGraphic" in2="effect1_dropShadow_45_9" result="shape"/>
</filter>
<linearGradient id="paint0_linear_45_9" x1="349.352" y1="76.0723" x2="349.352" y2="131.93" gradientUnits="userSpaceOnUse">
<stop stop-color="#73C2FF"/>
<stop offset="1" stop-color="#3EA0EB"/>
</linearGradient>
<linearGradient id="paint1_linear_45_9" x1="349.352" y1="76.0723" x2="349.352" y2="131.93" gradientUnits="userSpaceOnUse">
<stop stop-color="#73C2FF"/>
<stop offset="1" stop-color="#0090FF"/>
</linearGradient>
<linearGradient id="paint2_linear_45_9" x1="278.128" y1="97.6296" x2="278.128" y2="102.141" gradientUnits="userSpaceOnUse">
<stop stop-color="white"/>
<stop offset="1" stop-color="#E1E1E1"/>
</linearGradient>
<linearGradient id="paint3_linear_45_9" x1="278.594" y1="101.997" x2="278.594" y2="117.036" gradientUnits="userSpaceOnUse">
<stop stop-color="#729AFF"/>
<stop offset="1" stop-color="#256DFF"/>
</linearGradient>
<linearGradient id="paint4_linear_45_9" x1="277.691" y1="111.396" x2="277.691" y2="117.036" gradientUnits="userSpaceOnUse">
<stop stop-color="white"/>
<stop offset="1" stop-color="#E1E1E1"/>
</linearGradient>
<linearGradient id="paint5_linear_45_9" x1="278.595" y1="105.005" x2="278.595" y2="113.025" gradientUnits="userSpaceOnUse">
<stop stop-color="#6298FF"/>
<stop offset="1" stop-color="#236EFF"/>
</linearGradient>
<linearGradient id="paint6_linear_45_9" x1="358.316" y1="107.126" x2="358.316" y2="116.501" gradientUnits="userSpaceOnUse">
<stop stop-color="white"/>
<stop offset="1" stop-color="#E1E1E1"/>
</linearGradient>
<linearGradient id="paint7_linear_45_9" x1="201.02" y1="137.139" x2="166.311" y2="162.846" gradientUnits="userSpaceOnUse">
<stop stop-color="#FAFAFA" stop-opacity="0.5"/>
<stop offset="1" stop-color="#F5F5F5"/>
</linearGradient>
<linearGradient id="paint8_linear_45_9" x1="209.919" y1="132.31" x2="168.733" y2="160.577" gradientUnits="userSpaceOnUse">
<stop stop-color="#3EA0EB" stop-opacity="0.5"/>
<stop offset="1" stop-color="#3EA0EB"/>
</linearGradient>
<linearGradient id="paint9_linear_45_9" x1="190.236" y1="137.073" x2="173.889" y2="148.982" gradientUnits="userSpaceOnUse">
<stop stop-color="#4A4A4A" stop-opacity="0.5"/>
<stop offset="0.495192" stop-color="#626161"/>
<stop offset="1" stop-color="#4A4A4A"/>
</linearGradient>
<linearGradient id="paint10_linear_45_9" x1="146.405" y1="60.1681" x2="122.45" y2="78.1353" gradientUnits="userSpaceOnUse">
<stop stop-color="#FAFAFA" stop-opacity="0.5"/>
<stop offset="1" stop-color="#F5F5F5"/>
</linearGradient>
<linearGradient id="paint11_linear_45_9" x1="152.602" y1="56.8475" x2="124.153" y2="76.6214" gradientUnits="userSpaceOnUse">
<stop stop-color="#3EA0EB" stop-opacity="0.5"/>
<stop offset="1" stop-color="#3EA0EB"/>
</linearGradient>
<linearGradient id="paint12_linear_45_9" x1="137.265" y1="69.5562" x2="124.648" y2="75.6901" gradientUnits="userSpaceOnUse">
<stop stop-color="#4A4A4A" stop-opacity="0.5"/>
<stop offset="0.495192" stop-color="#626161"/>
<stop offset="1" stop-color="#4A4A4A"/>
</linearGradient>
<linearGradient id="paint13_linear_45_9" x1="485.688" y1="83.6053" x2="555.722" y2="61.1836" gradientUnits="userSpaceOnUse">
<stop stop-color="#FAFAFA" stop-opacity="0.5"/>
<stop offset="1" stop-color="#F5F5F5"/>
</linearGradient>
<linearGradient id="paint14_linear_45_9" x1="493.498" y1="80.5" x2="527.886" y2="76.9216" gradientUnits="userSpaceOnUse">
<stop stop-color="#4A4A4A" stop-opacity="0.5"/>
<stop offset="0.495192" stop-color="#626161"/>
<stop offset="1" stop-color="#4A4A4A"/>
</linearGradient>
<linearGradient id="paint15_linear_45_9" x1="485.193" y1="77.6048" x2="570.172" y2="61.5574" gradientUnits="userSpaceOnUse">
<stop stop-color="#3EA0EB" stop-opacity="0.5"/>
<stop offset="1" stop-color="#3EA0EB"/>
</linearGradient>
<linearGradient id="paint16_linear_45_9" x1="504.086" y1="161.647" x2="542.208" y2="149.879" gradientUnits="userSpaceOnUse">
<stop stop-color="#FAFAFA" stop-opacity="0.5"/>
<stop offset="1" stop-color="#F5F5F5"/>
</linearGradient>
<linearGradient id="paint17_linear_45_9" x1="503.819" y1="158.282" x2="549.885" y2="149.894" gradientUnits="userSpaceOnUse">
<stop stop-color="#3EA0EB" stop-opacity="0.5"/>
<stop offset="1" stop-color="#3EA0EB"/>
</linearGradient>
<linearGradient id="paint18_linear_45_9" x1="512.43" y1="156.586" x2="529.975" y2="149.979" gradientUnits="userSpaceOnUse">
<stop stop-color="#4A4A4A" stop-opacity="0.5"/>
<stop offset="0.495192" stop-color="#626161"/>
<stop offset="1" stop-color="#4A4A4A"/>
</linearGradient>
<clipPath id="clip0_45_9">
<rect x="474.434" y="50" width="119.959" height="32.9852" rx="16.4926" transform="rotate(9.47976 474.434 50)" fill="white"/>
</clipPath>
</defs>
</svg>
