<svg width="336" height="272" viewBox="0 0 336 272" fill="none" xmlns="http://www.w3.org/2000/svg">
<path d="M-15 159L352 159" stroke="#EAEAEA" stroke-dasharray="12 12"/>
<path d="M30 -17L30 292" stroke="#EAEAEA" stroke-dasharray="12 12"/>
<path d="M306 -17L306 292" stroke="#EAEAEA" stroke-dasharray="12 12"/>
<g filter="url(#filter0_i_42_6)">
<rect x="38.7109" y="43" width="258.583" height="193" rx="16.8641" fill="#FEFEFF"/>
<rect x="39.1794" y="43.4684" width="257.646" height="192.063" rx="16.3956" stroke="#EBEBEB" stroke-width="0.936893"/>
<g clip-path="url(#clip0_42_6)">
<rect x="44.332" y="48.623" width="44.9709" height="44.9709" rx="11.2427" fill="#FEFEFE"/>
<g filter="url(#filter1_d_42_6)">
<path fill-rule="evenodd" clip-rule="evenodd" d="M74.1426 57.1369C74.7836 57.0177 75.4424 57.0282 76.0791 57.1682C76.7159 57.3083 77.3175 57.5754 77.8477 57.9524C78.3778 58.3294 78.8258 58.8093 79.1641 59.3625C79.5021 59.9156 79.7244 60.5308 79.8164 61.1711C79.5452 61.1367 79.2715 61.1203 78.998 61.1203H59.9766C58.9196 61.3698 59.0538 62.8625 60.2949 62.8625H78.998C80.2398 62.864 81.4305 63.3538 82.3086 64.2248C83.1868 65.0961 83.6803 66.2779 83.6816 67.51V81.4514C83.6803 82.6834 83.1867 83.8644 82.3086 84.7356C81.4305 85.6067 80.2399 86.0974 78.998 86.0989H55.5752C54.3333 86.0975 53.1428 85.6068 52.2646 84.7356C51.3865 83.8644 50.892 82.6834 50.8906 81.4514V67.51C50.8908 67.324 50.9035 67.1391 50.9258 66.9563V65.1867C50.9258 63.6935 51.7172 61.2427 54.4033 60.508C54.5523 60.4646 54.7046 60.4288 54.8584 60.3996H54.875C55.1129 60.3556 55.3506 60.3158 55.5859 60.2795L74.1426 57.1369ZM76.417 72.3342C75.989 72.1584 75.5178 72.1117 75.0635 72.2014C74.6093 72.2911 74.1917 72.5123 73.8643 72.8371C73.5367 73.1621 73.314 73.5768 73.2236 74.0276C73.1334 74.478 73.1794 74.945 73.3564 75.3694C73.5337 75.7939 73.8345 76.157 74.2197 76.4123C74.6048 76.6676 75.0574 76.8039 75.5205 76.8039C76.1417 76.8039 76.7375 76.559 77.1768 76.1233C77.616 75.6876 77.8632 75.0969 77.8633 74.4807C77.8633 74.0212 77.726 73.5717 77.4688 73.1897C77.2114 72.8076 76.845 72.5101 76.417 72.3342Z" fill="url(#paint0_linear_42_6)"/>
</g>
</g>
<rect x="44.8005" y="49.0915" width="44.034" height="44.034" rx="10.7743" stroke="#F2F2F2" stroke-width="0.936893"/>
<g clip-path="url(#clip1_42_6)">
<rect x="44.332" y="108.582" width="44.9709" height="44.9709" rx="11.2427" fill="#FEFEFE"/>
<g filter="url(#filter2_d_42_6)">
<path fill-rule="evenodd" clip-rule="evenodd" d="M74.1426 117.096C74.7836 116.977 75.4424 116.987 76.0791 117.127C76.7159 117.267 77.3175 117.534 77.8477 117.911C78.3777 118.288 78.8258 118.768 79.1641 119.322C79.5021 119.875 79.7234 120.49 79.8154 121.13C79.5441 121.096 79.2706 121.079 78.9971 121.079H59.9766C58.9196 121.329 59.0538 122.822 60.2949 122.822H78.9971C80.239 122.823 81.4304 123.313 82.3086 124.184C83.1868 125.055 83.6803 126.237 83.6816 127.469V141.41C83.6802 142.642 83.1866 143.823 82.3086 144.695C81.4304 145.566 80.2391 146.056 78.9971 146.058H55.5752C54.3333 146.056 53.1428 145.566 52.2646 144.695C51.3865 143.823 50.892 142.642 50.8906 141.41V127.469C50.8908 127.283 50.9035 127.098 50.9258 126.915V125.146C50.9258 123.652 51.7172 121.202 54.4033 120.467C54.5522 120.424 54.7038 120.388 54.8574 120.359H54.875C55.1129 120.315 55.3506 120.275 55.5859 120.239L74.1426 117.096ZM76.417 132.293C75.989 132.117 75.5178 132.071 75.0635 132.16C74.6092 132.25 74.1918 132.471 73.8643 132.796C73.5367 133.121 73.314 133.536 73.2236 133.987C73.1334 134.437 73.1793 134.904 73.3564 135.328C73.5337 135.753 73.8345 136.116 74.2197 136.371C74.6048 136.627 75.0574 136.763 75.5205 136.763C76.1417 136.763 76.7375 136.518 77.1768 136.082C77.6159 135.647 77.8632 135.056 77.8633 134.44C77.8633 133.98 77.7251 133.531 77.4678 133.149C77.2104 132.767 76.8449 132.469 76.417 132.293Z" fill="url(#paint1_linear_42_6)"/>
</g>
</g>
<rect x="44.8005" y="109.05" width="44.034" height="44.034" rx="10.7743" stroke="#F2F2F2" stroke-width="0.936893"/>
<g clip-path="url(#clip2_42_6)">
<rect x="44.332" y="168.543" width="44.9709" height="44.9709" rx="11.2427" fill="#FEFEFE"/>
<g filter="url(#filter3_d_42_6)">
<path fill-rule="evenodd" clip-rule="evenodd" d="M74.1426 177.059C74.7836 176.94 75.4424 176.95 76.0791 177.09C76.7159 177.23 77.3175 177.497 77.8477 177.874C78.3778 178.251 78.8258 178.731 79.1641 179.284C79.5021 179.837 79.7244 180.453 79.8164 181.093C79.5452 181.059 79.2715 181.042 78.998 181.042H59.9766C58.9196 181.292 59.0538 182.784 60.2949 182.784H78.998C80.2398 182.786 81.4305 183.276 82.3086 184.147C83.1868 185.018 83.6803 186.2 83.6816 187.432V201.373C83.6802 202.605 83.1867 203.786 82.3086 204.657C81.4305 205.529 80.2399 206.019 78.998 206.021H55.5752C54.3333 206.019 53.1428 205.529 52.2646 204.657C51.3865 203.786 50.892 202.605 50.8906 201.373V187.432C50.8908 187.246 50.9035 187.061 50.9258 186.878V185.109C50.9258 183.615 51.7172 181.165 54.4033 180.43C54.5523 180.386 54.7046 180.351 54.8584 180.322H54.875C55.1129 180.278 55.3506 180.238 55.5859 180.201L74.1426 177.059ZM76.417 192.256C75.989 192.08 75.5178 192.034 75.0635 192.123C74.6093 192.213 74.1917 192.434 73.8643 192.759C73.5367 193.084 73.314 193.499 73.2236 193.949C73.1334 194.4 73.1794 194.867 73.3564 195.291C73.5337 195.716 73.8345 196.079 74.2197 196.334C74.6048 196.589 75.0574 196.726 75.5205 196.726C76.1417 196.726 76.7375 196.481 77.1768 196.045C77.616 195.609 77.8632 195.019 77.8633 194.403C77.8633 193.943 77.726 193.494 77.4688 193.112C77.2114 192.729 76.845 192.432 76.417 192.256Z" fill="url(#paint2_linear_42_6)"/>
</g>
</g>
<rect x="44.8005" y="169.011" width="44.034" height="44.034" rx="10.7743" stroke="#F2F2F2" stroke-width="0.936893"/>
<path d="M103.303 67.2608H98.179V71.7988H102.918V73.1804H98.179V78.9902H96.642V65.8701H103.303V67.2608ZM119.168 78.9902H117.64V70.1886C117.64 69.4932 117.682 68.6423 117.768 67.6359H117.731C117.585 68.2276 117.454 68.6515 117.338 68.9077L112.855 78.9902H112.104L107.63 68.9808C107.502 68.6881 107.371 68.2398 107.237 67.6359H107.2C107.249 68.1605 107.273 69.0174 107.273 70.2069V78.9902H105.791V65.8701H107.822L111.848 75.0194C112.159 75.7209 112.361 76.2454 112.452 76.5931H112.507C112.769 75.8734 112.98 75.3366 113.138 74.9828L117.246 65.8701H119.168V78.9902ZM132.489 78.9902H130.952V73.0066H124.163V78.9902H122.626V65.8701H124.163V71.625H130.952V65.8701H132.489V78.9902ZM137.265 77.6361H137.228V78.9902H135.728V65.1198H137.228V71.2682H137.265C138.003 70.0239 139.083 69.4017 140.504 69.4017C141.706 69.4017 142.645 69.8226 143.322 70.6643C144.005 71.5 144.347 72.6223 144.347 74.0313C144.347 75.5989 143.965 76.8554 143.203 77.8008C142.441 78.7402 141.398 79.2098 140.074 79.2098C138.836 79.2098 137.899 78.6853 137.265 77.6361ZM137.228 73.8575V75.1658C137.228 75.9405 137.479 76.5992 137.979 77.1421C138.485 77.6788 139.125 77.9472 139.9 77.9472C140.809 77.9472 141.519 77.5995 142.032 76.9042C142.55 76.2088 142.81 75.2421 142.81 74.0038C142.81 72.9608 142.569 72.1435 142.087 71.5518C141.605 70.9602 140.952 70.6643 140.129 70.6643C139.257 70.6643 138.555 70.9693 138.024 71.5793C137.494 72.1831 137.228 72.9425 137.228 73.8575ZM150.303 74.2875C150.303 75.8429 149.973 77.0536 149.315 77.9198C148.656 78.7798 147.775 79.2098 146.671 79.2098C146.158 79.2098 145.737 79.1366 145.408 78.9902V77.4714C145.737 77.7093 146.164 77.8283 146.689 77.8283C148.073 77.8283 148.766 76.6541 148.766 74.3058V65.8701H150.303V74.2875ZM160.788 74.9828C160.788 75.6233 160.678 76.2027 160.459 76.7212C160.239 77.2397 159.925 77.6849 159.516 78.057C159.114 78.4291 158.626 78.7158 158.052 78.917C157.479 79.1183 156.842 79.219 156.14 79.219C154.92 79.219 154.014 79.036 153.423 78.67V77.078C154.313 77.6514 155.225 77.9381 156.158 77.9381C156.634 77.9381 157.061 77.8679 157.439 77.7276C157.824 77.5873 158.15 77.3921 158.418 77.1421C158.687 76.892 158.891 76.5901 159.031 76.2363C159.178 75.8825 159.251 75.4952 159.251 75.0743C159.251 74.2204 158.964 73.5525 158.391 73.0706C157.818 72.5826 156.985 72.3387 155.893 72.3387C155.716 72.3387 155.53 72.3417 155.335 72.3478C155.14 72.3539 154.945 72.3631 154.749 72.3753C154.554 72.3814 154.362 72.3905 154.173 72.4027C153.99 72.4149 153.822 72.4302 153.67 72.4485L154.118 65.8701H160.184V67.2242H155.417L155.152 71.076C155.347 71.0638 155.555 71.0547 155.774 71.0486C155.994 71.0364 156.189 71.0303 156.36 71.0303C157.055 71.0303 157.677 71.1218 158.226 71.3048C158.775 71.4878 159.239 71.7501 159.617 72.0916C160.001 72.4271 160.291 72.8419 160.486 73.3359C160.687 73.8239 160.788 74.3729 160.788 74.9828ZM168.647 78.9902H167.147V67.6542C167.031 67.7701 166.86 67.9043 166.634 68.0568C166.415 68.2032 166.165 68.3495 165.884 68.4959C165.61 68.6423 165.317 68.7796 165.006 68.9077C164.701 69.0357 164.402 69.1364 164.109 69.2096V67.6908C164.439 67.5993 164.786 67.4773 165.152 67.3248C165.524 67.1662 165.887 66.9924 166.241 66.8033C166.601 66.6081 166.939 66.4068 167.257 66.1994C167.574 65.986 167.848 65.7786 168.08 65.5773H168.647V78.9902ZM181.639 78.24C181.639 81.6801 179.993 83.4002 176.699 83.4002C175.54 83.4002 174.527 83.1806 173.661 82.7415V81.241C174.716 81.8265 175.723 82.1193 176.68 82.1193C178.986 82.1193 180.139 80.8933 180.139 78.4413V77.4165H180.102C179.389 78.6121 178.315 79.2098 176.882 79.2098C175.717 79.2098 174.777 78.795 174.064 77.9655C173.356 77.1299 173.002 76.0106 173.002 74.6077C173.002 73.0157 173.384 71.7501 174.146 70.8107C174.915 69.8714 175.964 69.4017 177.293 69.4017C178.556 69.4017 179.492 69.908 180.102 70.9205H180.139V69.6213H181.639V78.24ZM180.139 74.7541V73.3725C180.139 72.6284 179.886 71.991 179.38 71.4603C178.879 70.9297 178.254 70.6643 177.504 70.6643C176.577 70.6643 175.851 71.0029 175.326 71.6799C174.802 72.3509 174.539 73.2932 174.539 74.5071C174.539 75.5501 174.79 76.3857 175.29 77.014C175.796 77.6361 176.464 77.9472 177.293 77.9472C178.135 77.9472 178.818 77.6483 179.343 77.0506C179.874 76.4528 180.139 75.6873 180.139 74.7541ZM192.674 83.2996H191.173V77.3799H191.136C190.484 78.5999 189.416 79.2098 187.934 79.2098C186.757 79.2098 185.811 78.792 185.098 77.9564C184.39 77.1146 184.037 75.9709 184.037 74.5254C184.037 72.97 184.427 71.7287 185.208 70.8016C185.988 69.8683 187.038 69.4017 188.355 69.4017C189.636 69.4017 190.563 69.908 191.136 70.9205H191.173V69.6213H192.674V83.2996ZM191.173 74.7724V73.4091C191.173 72.6406 190.92 71.991 190.414 71.4603C189.913 70.9297 189.276 70.6643 188.501 70.6643C187.599 70.6643 186.885 70.9998 186.36 71.6708C185.836 72.3356 185.574 73.2749 185.574 74.4888C185.574 75.5684 185.827 76.4162 186.333 77.0323C186.839 77.6422 187.492 77.9472 188.291 77.9472C189.169 77.9472 189.868 77.6483 190.386 77.0506C190.911 76.4467 191.173 75.6873 191.173 74.7724ZM195.016 75.3305C195.016 74.9828 195.071 74.6351 195.18 74.2875C195.29 73.9337 195.446 73.6043 195.647 73.2993C195.854 72.9944 196.108 72.7168 196.406 72.4667C196.711 72.2167 197.056 72.0184 197.44 71.872C196.873 71.5549 196.422 71.1492 196.086 70.6552C195.751 70.155 195.583 69.603 195.583 68.9991C195.583 68.5173 195.674 68.072 195.857 67.6633C196.047 67.2547 196.306 66.9009 196.635 66.602C196.965 66.3031 197.355 66.0714 197.806 65.9067C198.258 65.7359 198.746 65.6505 199.27 65.6505C199.801 65.6505 200.292 65.7359 200.743 65.9067C201.195 66.0775 201.585 66.3123 201.914 66.6112C202.244 66.91 202.5 67.2638 202.683 67.6725C202.866 68.0812 202.957 68.5234 202.957 68.9991C202.957 69.603 202.79 70.155 202.454 70.6552C202.119 71.1492 201.673 71.5549 201.118 71.872C201.497 72.0184 201.835 72.2167 202.134 72.4667C202.433 72.7168 202.683 72.9944 202.884 73.2993C203.092 73.6043 203.25 73.9337 203.36 74.2875C203.47 74.6351 203.525 74.9828 203.525 75.3305C203.525 75.9039 203.421 76.4284 203.214 76.9042C203.006 77.3799 202.713 77.7886 202.335 78.1302C201.963 78.4657 201.515 78.728 200.99 78.917C200.472 79.1061 199.898 79.2007 199.27 79.2007C198.648 79.2007 198.078 79.1061 197.559 78.917C197.041 78.728 196.592 78.4657 196.214 78.1302C195.836 77.7886 195.54 77.3799 195.327 76.9042C195.119 76.4284 195.016 75.9039 195.016 75.3305ZM196.644 75.2024C196.644 75.6111 196.705 75.9801 196.827 76.3095C196.955 76.6389 197.132 76.9194 197.358 77.1512C197.59 77.383 197.867 77.5629 198.191 77.691C198.52 77.813 198.883 77.874 199.279 77.874C199.664 77.874 200.017 77.81 200.341 77.6819C200.664 77.5538 200.941 77.3738 201.173 77.1421C201.411 76.9103 201.594 76.6297 201.722 76.3003C201.856 75.9709 201.923 75.605 201.923 75.2024C201.923 74.8364 201.859 74.4949 201.731 74.1777C201.609 73.8544 201.432 73.5708 201.201 73.3268C200.969 73.0828 200.691 72.8907 200.368 72.7504C200.045 72.6101 199.682 72.5399 199.279 72.5399C198.901 72.5399 198.55 72.607 198.227 72.7412C197.91 72.8693 197.632 73.0523 197.395 73.2902C197.163 73.522 196.98 73.8026 196.846 74.1319C196.711 74.4552 196.644 74.812 196.644 75.2024ZM197.111 69.1181C197.111 69.4292 197.166 69.7189 197.276 69.9873C197.392 70.2496 197.547 70.4813 197.742 70.6826C197.944 70.8778 198.175 71.0334 198.438 71.1492C198.7 71.259 198.98 71.3139 199.279 71.3139C199.578 71.3139 199.859 71.256 200.121 71.1401C200.389 71.0242 200.621 70.8687 200.816 70.6735C201.012 70.4722 201.167 70.2404 201.283 69.9781C201.399 69.7097 201.457 69.4231 201.457 69.1181C201.457 68.8009 201.399 68.5081 201.283 68.2398C201.173 67.9714 201.021 67.7396 200.826 67.5444C200.63 67.3492 200.399 67.1967 200.13 67.0869C199.868 66.971 199.584 66.9131 199.279 66.9131C198.956 66.9131 198.66 66.971 198.392 67.0869C198.13 67.2028 197.901 67.3614 197.706 67.5627C197.517 67.7579 197.37 67.9897 197.266 68.258C197.163 68.5264 197.111 68.8131 197.111 69.1181ZM210.442 66.4373C210.149 66.2726 209.816 66.1903 209.444 66.1903C208.395 66.1903 207.871 66.8521 207.871 68.1757V69.6213H210.066V70.9022H207.871V78.9902H206.379V70.9022H204.778V69.6213H206.379V68.1025C206.379 67.1205 206.663 66.3458 207.23 65.7786C207.797 65.2052 208.505 64.9185 209.353 64.9185C209.81 64.9185 210.173 64.9734 210.442 65.0832V66.4373ZM211.119 78.6517V77.0414C211.936 77.6453 212.836 77.9472 213.818 77.9472C215.135 77.9472 215.794 77.508 215.794 76.6297C215.794 76.3796 215.736 76.1692 215.62 75.9984C215.51 75.8215 215.358 75.666 215.163 75.5318C214.974 75.3976 214.748 75.2786 214.486 75.175C214.229 75.0652 213.952 74.9523 213.653 74.8364C213.238 74.6717 212.872 74.5071 212.555 74.3424C212.244 74.1716 211.982 73.9825 211.768 73.7751C211.561 73.5616 211.402 73.3207 211.292 73.0523C211.189 72.7839 211.137 72.4698 211.137 72.1099C211.137 71.6708 211.238 71.2834 211.439 70.948C211.64 70.6064 211.908 70.3228 212.244 70.0971C212.579 69.8653 212.961 69.6914 213.388 69.5756C213.821 69.4597 214.266 69.4017 214.723 69.4017C215.535 69.4017 216.261 69.542 216.901 69.8226V71.3414C216.212 70.89 215.419 70.6643 214.522 70.6643C214.242 70.6643 213.988 70.6979 213.763 70.765C213.537 70.826 213.342 70.9144 213.177 71.0303C213.019 71.1462 212.894 71.2865 212.802 71.4512C212.717 71.6098 212.674 71.7866 212.674 71.9818C212.674 72.2258 212.717 72.4302 212.802 72.5948C212.894 72.7595 213.025 72.9059 213.195 73.034C213.366 73.1621 213.574 73.278 213.818 73.3817C214.062 73.4854 214.339 73.5982 214.65 73.7202C215.065 73.8788 215.437 74.0435 215.766 74.2143C216.096 74.379 216.376 74.568 216.608 74.7815C216.84 74.9889 217.017 75.2299 217.139 75.5043C217.267 75.7788 217.331 76.1051 217.331 76.4833C217.331 76.9469 217.227 77.3495 217.02 77.691C216.819 78.0326 216.547 78.3162 216.206 78.5419C215.864 78.7676 215.471 78.9353 215.025 79.0451C214.58 79.1549 214.113 79.2098 213.626 79.2098C212.662 79.2098 211.826 79.0238 211.119 78.6517ZM228.978 78.9902H226.837L221.768 72.9883C221.579 72.7626 221.463 72.6101 221.421 72.5308H221.384V78.9902H219.847V65.8701H221.384V72.0367H221.421C221.506 71.9025 221.622 71.7531 221.768 71.5884L226.672 65.8701H228.585L222.958 72.1648L228.978 78.9902ZM244.093 78.9902H242.565V70.1886C242.565 69.4932 242.608 68.6423 242.693 67.6359H242.656C242.51 68.2276 242.379 68.6515 242.263 68.9077L237.78 78.9902H237.03L232.556 68.9808C232.427 68.6881 232.296 68.2398 232.162 67.6359H232.125C232.174 68.1605 232.199 69.0174 232.199 70.2069V78.9902H230.716V65.8701H232.748L236.773 75.0194C237.084 75.7209 237.286 76.2454 237.377 76.5931H237.432C237.694 75.8734 237.905 75.3366 238.063 74.9828L242.171 65.8701H244.093V78.9902ZM248.887 77.6361H248.85V83.2996H247.35V69.6213H248.85V71.2682H248.887C249.625 70.0239 250.705 69.4017 252.126 69.4017C253.334 69.4017 254.276 69.8226 254.953 70.6643C255.63 71.5 255.969 72.6223 255.969 74.0313C255.969 75.5989 255.587 76.8554 254.825 77.8008C254.063 78.7402 253.02 79.2098 251.696 79.2098C250.482 79.2098 249.546 78.6853 248.887 77.6361ZM248.85 73.8575V75.1658C248.85 75.9405 249.101 76.5992 249.601 77.1421C250.107 77.6788 250.747 77.9472 251.522 77.9472C252.431 77.9472 253.142 77.5995 253.654 76.9042C254.172 76.2088 254.432 75.2421 254.432 74.0038C254.432 72.9608 254.191 72.1435 253.709 71.5518C253.227 70.9602 252.574 70.6643 251.751 70.6643C250.879 70.6643 250.177 70.9693 249.646 71.5793C249.116 72.1831 248.85 72.9425 248.85 73.8575ZM270.168 69.6213L267.36 78.9902H265.804L263.874 72.2838C263.801 72.0276 263.752 71.7379 263.727 71.4146H263.691C263.672 71.6342 263.608 71.9178 263.499 72.2655L261.403 78.9902H259.903L257.067 69.6213H258.64L260.58 76.6663C260.641 76.8798 260.684 77.1604 260.708 77.508H260.781C260.8 77.2397 260.854 76.953 260.946 76.648L263.105 69.6213H264.478L266.417 76.6846C266.478 76.9103 266.524 77.1909 266.554 77.5263H266.628C266.64 77.2885 266.692 77.0079 266.783 76.6846L268.686 69.6213H270.168ZM281.843 79.1549C281.562 79.1549 281.325 79.0573 281.129 78.8621C280.94 78.667 280.846 78.4291 280.846 78.1485C280.846 77.8679 280.94 77.627 281.129 77.4257C281.325 77.2183 281.562 77.1146 281.843 77.1146C282.118 77.1146 282.352 77.2183 282.548 77.4257C282.749 77.627 282.849 77.8679 282.849 78.1485C282.849 78.4291 282.749 78.667 282.548 78.8621C282.352 79.0573 282.118 79.1549 281.843 79.1549ZM277.25 79.1549C276.969 79.1549 276.729 79.0573 276.527 78.8621C276.332 78.667 276.234 78.4291 276.234 78.1485C276.234 77.8679 276.332 77.627 276.527 77.4257C276.729 77.2183 276.969 77.1146 277.25 77.1146C277.525 77.1146 277.759 77.2183 277.955 77.4257C278.156 77.627 278.257 77.8679 278.257 78.1485C278.257 78.4291 278.156 78.667 277.955 78.8621C277.759 79.0573 277.525 79.1549 277.25 79.1549ZM272.657 79.1549C272.377 79.1549 272.142 79.0573 271.953 78.8621C271.764 78.667 271.669 78.4291 271.669 78.1485C271.669 77.8679 271.764 77.627 271.953 77.4257C272.142 77.2183 272.377 77.1146 272.657 77.1146C272.932 77.1146 273.166 77.2183 273.362 77.4257C273.563 77.627 273.664 77.8679 273.664 78.1485C273.664 78.4291 273.566 78.667 273.371 78.8621C273.176 79.0573 272.938 79.1549 272.657 79.1549Z" fill="#2D2D2D"/>
<path d="M101.93 139.171C100.076 139.171 98.5847 138.558 97.4562 137.332C96.34 136.106 95.7819 134.511 95.7819 132.547C95.7819 130.43 96.3522 128.747 97.4928 127.496C98.6396 126.24 100.192 125.611 102.15 125.611C103.955 125.611 105.413 126.221 106.523 127.441C107.633 128.661 108.188 130.256 108.188 132.226C108.188 134.367 107.621 136.06 106.487 137.304C106.218 137.603 105.932 137.859 105.627 138.073L109.314 140.717H106.523L104.053 138.869C103.406 139.07 102.699 139.171 101.93 139.171ZM102.04 127.002C100.662 127.002 99.5423 127.499 98.6823 128.493C97.8222 129.488 97.3922 130.793 97.3922 132.409C97.3922 134.02 97.81 135.322 98.6457 136.316C99.4874 137.298 100.582 137.789 101.93 137.789C103.37 137.789 104.504 137.32 105.334 136.38C106.163 135.441 106.578 134.126 106.578 132.437C106.578 130.698 106.176 129.36 105.37 128.42C104.565 127.475 103.455 127.002 102.04 127.002ZM118.344 138.951H116.844V133.553C116.844 131.601 116.118 130.625 114.666 130.625C113.934 130.625 113.318 130.909 112.818 131.476C112.318 132.037 112.068 132.76 112.068 133.645V138.951H110.567V125.081H112.068V131.138H112.104C112.824 129.954 113.849 129.363 115.179 129.363C117.289 129.363 118.344 130.634 118.344 133.178V138.951ZM129.177 138.201C129.177 141.641 127.53 143.361 124.236 143.361C123.077 143.361 122.065 143.142 121.199 142.702V141.202C122.254 141.787 123.26 142.08 124.218 142.08C126.524 142.08 127.677 140.854 127.677 138.402V137.377H127.64C126.926 138.573 125.853 139.171 124.419 139.171C123.254 139.171 122.315 138.756 121.601 137.926C120.894 137.091 120.54 135.972 120.54 134.569C120.54 132.977 120.921 131.711 121.684 130.772C122.452 129.832 123.501 129.363 124.831 129.363C126.094 129.363 127.03 129.869 127.64 130.881H127.677V129.582H129.177V138.201ZM127.677 134.715V133.333C127.677 132.589 127.423 131.952 126.917 131.421C126.417 130.891 125.792 130.625 125.042 130.625C124.114 130.625 123.389 130.964 122.864 131.641C122.339 132.312 122.077 133.254 122.077 134.468C122.077 135.511 122.327 136.347 122.827 136.975C123.334 137.597 124.002 137.908 124.831 137.908C125.673 137.908 126.356 137.609 126.881 137.012C127.411 136.414 127.677 135.648 127.677 134.715ZM140.98 126.197L133.294 137.56H140.797V138.951H130.998V138.521L138.619 127.222H131.611V125.831H140.98V126.197ZM150.102 135.237C150.102 135.828 149.989 136.368 149.763 136.856C149.543 137.338 149.229 137.753 148.821 138.1C148.418 138.442 147.933 138.707 147.366 138.896C146.799 139.085 146.173 139.18 145.49 139.18C144.24 139.18 143.246 138.942 142.508 138.466V136.856C143.392 137.551 144.405 137.899 145.545 137.899C146.003 137.899 146.414 137.841 146.78 137.725C147.152 137.609 147.47 137.442 147.732 137.222C148 137.002 148.205 136.737 148.345 136.426C148.491 136.115 148.565 135.764 148.565 135.374C148.565 133.66 147.345 132.803 144.905 132.803H143.816V131.531H144.85C147.009 131.531 148.089 130.726 148.089 129.116C148.089 127.627 147.265 126.883 145.618 126.883C144.691 126.883 143.822 127.194 143.011 127.816V126.362C143.846 125.862 144.841 125.611 145.994 125.611C146.542 125.611 147.04 125.688 147.485 125.84C147.93 125.993 148.311 126.206 148.629 126.481C148.946 126.755 149.19 127.084 149.36 127.469C149.537 127.853 149.626 128.277 149.626 128.741C149.626 130.467 148.754 131.577 147.009 132.071V132.107C147.454 132.156 147.866 132.266 148.244 132.437C148.622 132.602 148.949 132.818 149.223 133.086C149.498 133.355 149.711 133.672 149.864 134.038C150.022 134.398 150.102 134.797 150.102 135.237ZM160.157 138.951H153.203V125.831H159.864V127.222H154.74V131.586H159.48V132.967H154.74V137.56H160.157V138.951ZM170.477 138.201C170.477 141.641 168.83 143.361 165.537 143.361C164.378 143.361 163.365 143.142 162.499 142.702V141.202C163.554 141.787 164.561 142.08 165.518 142.08C167.824 142.08 168.977 140.854 168.977 138.402V137.377H168.94C168.226 138.573 167.153 139.171 165.72 139.171C164.555 139.171 163.615 138.756 162.902 137.926C162.194 137.091 161.84 135.972 161.84 134.569C161.84 132.977 162.221 131.711 162.984 130.772C163.752 129.832 164.802 129.363 166.131 129.363C167.394 129.363 168.33 129.869 168.94 130.881H168.977V129.582H170.477V138.201ZM168.977 134.715V133.333C168.977 132.589 168.724 131.952 168.217 131.421C167.717 130.891 167.092 130.625 166.342 130.625C165.415 130.625 164.689 130.964 164.164 131.641C163.64 132.312 163.377 133.254 163.377 134.468C163.377 135.511 163.627 136.347 164.128 136.975C164.634 137.597 165.302 137.908 166.131 137.908C166.973 137.908 167.656 137.609 168.181 137.012C168.711 136.414 168.977 135.648 168.977 134.715ZM183.469 125.831L178.611 138.951H176.918L172.161 125.831H173.872L177.504 136.234C177.62 136.569 177.708 136.957 177.769 137.396H177.806C177.855 137.03 177.955 136.636 178.108 136.216L181.813 125.831H183.469ZM191.685 130.012L186.141 137.67H191.63V138.951H183.936V138.485L189.48 130.863H184.457V129.582H191.685V130.012ZM203.634 138.055C202.317 138.799 200.853 139.171 199.243 139.171C197.37 139.171 195.854 138.567 194.696 137.359C193.543 136.151 192.966 134.553 192.966 132.565C192.966 130.534 193.607 128.869 194.888 127.569C196.175 126.264 197.803 125.611 199.773 125.611C201.201 125.611 202.399 125.843 203.369 126.307V128.009C202.308 127.338 201.051 127.002 199.6 127.002C198.13 127.002 196.925 127.508 195.986 128.521C195.046 129.533 194.577 130.845 194.577 132.455C194.577 134.114 195.013 135.42 195.885 136.371C196.757 137.316 197.94 137.789 199.435 137.789C200.46 137.789 201.347 137.585 202.097 137.176V133.498H199.224V132.107H203.634V138.055ZM212.656 130.012L207.111 137.67H212.601V138.951H204.906V138.485L210.451 130.863H205.428V129.582H212.656V130.012ZM224.394 133.645C224.394 137.329 222.732 139.171 219.408 139.171C216.224 139.171 214.632 137.399 214.632 133.855V125.831H216.169V133.754C216.169 136.444 217.304 137.789 219.573 137.789C221.762 137.789 222.857 136.49 222.857 133.892V125.831H224.394V133.645ZM234.934 129.582L230.625 140.452C229.856 142.391 228.777 143.361 227.386 143.361C226.996 143.361 226.669 143.322 226.407 143.242V141.897C226.73 142.007 227.026 142.062 227.295 142.062C228.051 142.062 228.618 141.611 228.996 140.708L229.747 138.933L226.087 129.582H227.752L230.286 136.792C230.317 136.883 230.381 137.121 230.479 137.506H230.534C230.564 137.359 230.625 137.127 230.716 136.81L233.379 129.582H234.934ZM241.183 126.398C240.891 126.234 240.558 126.151 240.186 126.151C239.137 126.151 238.612 126.813 238.612 128.137V129.582H240.808V130.863H238.612V138.951H237.121V130.863H235.52V129.582H237.121V128.063C237.121 127.081 237.405 126.307 237.972 125.74C238.539 125.166 239.247 124.879 240.095 124.879C240.552 124.879 240.915 124.934 241.183 125.044V126.398ZM249.134 138.951H247.634V137.487H247.597C246.944 138.61 245.984 139.171 244.715 139.171C243.782 139.171 243.05 138.924 242.519 138.43C241.995 137.936 241.732 137.28 241.732 136.463C241.732 134.712 242.763 133.693 244.825 133.407L247.634 133.013C247.634 131.421 246.99 130.625 245.703 130.625C244.575 130.625 243.556 131.01 242.647 131.778V130.241C243.568 129.655 244.63 129.363 245.831 129.363C248.033 129.363 249.134 130.528 249.134 132.858V138.951ZM247.634 134.212L245.374 134.523C244.678 134.62 244.154 134.794 243.8 135.044C243.446 135.288 243.269 135.725 243.269 136.353C243.269 136.81 243.431 137.185 243.754 137.478C244.084 137.765 244.52 137.908 245.063 137.908C245.807 137.908 246.42 137.649 246.902 137.13C247.39 136.606 247.634 135.944 247.634 135.145V134.212ZM259.958 138.951H258.457V137.359H258.421C257.725 138.567 256.652 139.171 255.2 139.171C254.023 139.171 253.081 138.753 252.373 137.917C251.672 137.076 251.321 135.932 251.321 134.486C251.321 132.937 251.711 131.696 252.492 130.763C253.273 129.829 254.313 129.363 255.612 129.363C256.899 129.363 257.835 129.869 258.421 130.881H258.457V125.081H259.958V138.951ZM258.457 134.715V133.333C258.457 132.577 258.207 131.937 257.707 131.412C257.207 130.888 256.573 130.625 255.804 130.625C254.889 130.625 254.169 130.961 253.645 131.632C253.12 132.303 252.858 133.23 252.858 134.413C252.858 135.493 253.108 136.347 253.608 136.975C254.114 137.597 254.791 137.908 255.639 137.908C256.475 137.908 257.152 137.606 257.67 137.002C258.195 136.399 258.457 135.636 258.457 134.715ZM272.126 138.402C271.157 138.915 269.949 139.171 268.503 139.171C266.637 139.171 265.142 138.57 264.02 137.368C262.898 136.167 262.337 134.59 262.337 132.638C262.337 130.54 262.968 128.844 264.231 127.551C265.493 126.258 267.094 125.611 269.034 125.611C270.278 125.611 271.309 125.791 272.126 126.151V127.789C271.187 127.264 270.15 127.002 269.016 127.002C267.509 127.002 266.286 127.505 265.347 128.512C264.414 129.518 263.947 130.863 263.947 132.547C263.947 134.145 264.383 135.42 265.255 136.371C266.134 137.316 267.283 137.789 268.705 137.789C270.022 137.789 271.163 137.496 272.126 136.911V138.402ZM284.533 139.116C284.252 139.116 284.014 139.018 283.819 138.823C283.63 138.628 283.536 138.39 283.536 138.109C283.536 137.829 283.63 137.588 283.819 137.387C284.014 137.179 284.252 137.076 284.533 137.076C284.807 137.076 285.042 137.179 285.237 137.387C285.439 137.588 285.539 137.829 285.539 138.109C285.539 138.39 285.439 138.628 285.237 138.823C285.042 139.018 284.807 139.116 284.533 139.116ZM279.94 139.116C279.659 139.116 279.418 139.018 279.217 138.823C279.022 138.628 278.924 138.39 278.924 138.109C278.924 137.829 279.022 137.588 279.217 137.387C279.418 137.179 279.659 137.076 279.94 137.076C280.214 137.076 280.449 137.179 280.644 137.387C280.846 137.588 280.946 137.829 280.946 138.109C280.946 138.39 280.846 138.628 280.644 138.823C280.449 139.018 280.214 139.116 279.94 139.116ZM275.347 139.116C275.066 139.116 274.832 139.018 274.643 138.823C274.453 138.628 274.359 138.39 274.359 138.109C274.359 137.829 274.453 137.588 274.643 137.387C274.832 137.179 275.066 137.076 275.347 137.076C275.621 137.076 275.856 137.179 276.052 137.387C276.253 137.588 276.353 137.829 276.353 138.109C276.353 138.39 276.256 138.628 276.061 138.823C275.865 139.018 275.628 139.116 275.347 139.116Z" fill="#2D2D2D"/>
<path d="M103.303 187.185H98.179V191.723H102.918V193.104H98.179V198.914H96.642V185.794H103.303V187.185ZM119.168 198.914H117.64V190.112C117.64 189.417 117.682 188.566 117.768 187.56H117.731C117.585 188.151 117.454 188.575 117.338 188.831L112.855 198.914H112.104L107.63 188.905C107.502 188.612 107.371 188.164 107.237 187.56H107.2C107.249 188.084 107.273 188.941 107.273 190.131V198.914H105.791V185.794H107.822L111.848 194.943C112.159 195.645 112.361 196.169 112.452 196.517H112.507C112.769 195.797 112.98 195.26 113.138 194.907L117.246 185.794H119.168V198.914ZM132.489 198.914H130.952V192.93H124.163V198.914H122.626V185.794H124.163V191.549H130.952V185.794H132.489V198.914ZM137.265 197.56H137.228V198.914H135.728V185.044H137.228V191.192H137.265C138.003 189.948 139.083 189.326 140.504 189.326C141.706 189.326 142.645 189.746 143.322 190.588C144.005 191.424 144.347 192.546 144.347 193.955C144.347 195.523 143.965 196.779 143.203 197.725C142.441 198.664 141.398 199.134 140.074 199.134C138.836 199.134 137.899 198.609 137.265 197.56ZM137.228 193.781V195.09C137.228 195.864 137.479 196.523 137.979 197.066C138.485 197.603 139.125 197.871 139.9 197.871C140.809 197.871 141.519 197.523 142.032 196.828C142.55 196.133 142.81 195.166 142.81 193.928C142.81 192.885 142.569 192.067 142.087 191.476C141.605 190.884 140.952 190.588 140.129 190.588C139.257 190.588 138.555 190.893 138.024 191.503C137.494 192.107 137.228 192.866 137.228 193.781ZM150.303 194.211C150.303 195.767 149.973 196.977 149.315 197.844C148.656 198.704 147.775 199.134 146.671 199.134C146.158 199.134 145.737 199.06 145.408 198.914V197.395C145.737 197.633 146.164 197.752 146.689 197.752C148.073 197.752 148.766 196.578 148.766 194.23V185.794H150.303V194.211ZM160.788 194.907C160.788 195.547 160.678 196.127 160.459 196.645C160.239 197.163 159.925 197.609 159.516 197.981C159.114 198.353 158.626 198.64 158.052 198.841C157.479 199.042 156.842 199.143 156.14 199.143C154.92 199.143 154.014 198.96 153.423 198.594V197.002C154.313 197.575 155.225 197.862 156.158 197.862C156.634 197.862 157.061 197.792 157.439 197.651C157.824 197.511 158.15 197.316 158.418 197.066C158.687 196.816 158.891 196.514 159.031 196.16C159.178 195.806 159.251 195.419 159.251 194.998C159.251 194.144 158.964 193.476 158.391 192.994C157.818 192.506 156.985 192.262 155.893 192.262C155.716 192.262 155.53 192.266 155.335 192.272C155.14 192.278 154.945 192.287 154.749 192.299C154.554 192.305 154.362 192.314 154.173 192.327C153.99 192.339 153.822 192.354 153.67 192.372L154.118 185.794H160.184V187.148H155.417L155.152 191C155.347 190.988 155.555 190.979 155.774 190.972C155.994 190.96 156.189 190.954 156.36 190.954C157.055 190.954 157.677 191.046 158.226 191.229C158.775 191.412 159.239 191.674 159.617 192.015C160.001 192.351 160.291 192.766 160.486 193.26C160.687 193.748 160.788 194.297 160.788 194.907ZM168.647 198.914H167.147V187.578C167.031 187.694 166.86 187.828 166.634 187.981C166.415 188.127 166.165 188.273 165.884 188.42C165.61 188.566 165.317 188.703 165.006 188.831C164.701 188.96 164.402 189.06 164.109 189.133V187.615C164.439 187.523 164.786 187.401 165.152 187.249C165.524 187.09 165.887 186.916 166.241 186.727C166.601 186.532 166.939 186.331 167.257 186.123C167.574 185.91 167.848 185.702 168.08 185.501H168.647V198.914ZM181.639 198.164C181.639 201.604 179.993 203.324 176.699 203.324C175.54 203.324 174.527 203.104 173.661 202.665V201.165C174.716 201.75 175.723 202.043 176.68 202.043C178.986 202.043 180.139 200.817 180.139 198.365V197.34H180.102C179.389 198.536 178.315 199.134 176.882 199.134C175.717 199.134 174.777 198.719 174.064 197.889C173.356 197.054 173.002 195.934 173.002 194.532C173.002 192.94 173.384 191.674 174.146 190.735C174.915 189.795 175.964 189.326 177.293 189.326C178.556 189.326 179.492 189.832 180.102 190.844H180.139V189.545H181.639V198.164ZM180.139 194.678V193.296C180.139 192.552 179.886 191.915 179.38 191.384C178.879 190.853 178.254 190.588 177.504 190.588C176.577 190.588 175.851 190.927 175.326 191.604C174.802 192.275 174.539 193.217 174.539 194.431C174.539 195.474 174.79 196.31 175.29 196.938C175.796 197.56 176.464 197.871 177.293 197.871C178.135 197.871 178.818 197.572 179.343 196.974C179.874 196.377 180.139 195.611 180.139 194.678ZM192.674 203.223H191.173V197.304H191.136C190.484 198.524 189.416 199.134 187.934 199.134C186.757 199.134 185.811 198.716 185.098 197.88C184.39 197.038 184.037 195.895 184.037 194.449C184.037 192.894 184.427 191.653 185.208 190.725C185.988 189.792 187.038 189.326 188.355 189.326C189.636 189.326 190.563 189.832 191.136 190.844H191.173V189.545H192.674V203.223ZM191.173 194.696V193.333C191.173 192.564 190.92 191.915 190.414 191.384C189.913 190.853 189.276 190.588 188.501 190.588C187.599 190.588 186.885 190.924 186.36 191.595C185.836 192.259 185.574 193.199 185.574 194.413C185.574 195.492 185.827 196.34 186.333 196.956C186.839 197.566 187.492 197.871 188.291 197.871C189.169 197.871 189.868 197.572 190.386 196.974C190.911 196.371 191.173 195.611 191.173 194.696ZM195.016 195.254C195.016 194.907 195.071 194.559 195.18 194.211C195.29 193.858 195.446 193.528 195.647 193.223C195.854 192.918 196.108 192.641 196.406 192.391C196.711 192.14 197.056 191.942 197.44 191.796C196.873 191.479 196.422 191.073 196.086 190.579C195.751 190.079 195.583 189.527 195.583 188.923C195.583 188.441 195.674 187.996 195.857 187.587C196.047 187.178 196.306 186.825 196.635 186.526C196.965 186.227 197.355 185.995 197.806 185.83C198.258 185.66 198.746 185.574 199.27 185.574C199.801 185.574 200.292 185.66 200.743 185.83C201.195 186.001 201.585 186.236 201.914 186.535C202.244 186.834 202.5 187.188 202.683 187.596C202.866 188.005 202.957 188.447 202.957 188.923C202.957 189.527 202.79 190.079 202.454 190.579C202.119 191.073 201.673 191.479 201.118 191.796C201.497 191.942 201.835 192.14 202.134 192.391C202.433 192.641 202.683 192.918 202.884 193.223C203.092 193.528 203.25 193.858 203.36 194.211C203.47 194.559 203.525 194.907 203.525 195.254C203.525 195.828 203.421 196.352 203.214 196.828C203.006 197.304 202.713 197.712 202.335 198.054C201.963 198.389 201.515 198.652 200.99 198.841C200.472 199.03 199.898 199.124 199.27 199.124C198.648 199.124 198.078 199.03 197.559 198.841C197.041 198.652 196.592 198.389 196.214 198.054C195.836 197.712 195.54 197.304 195.327 196.828C195.119 196.352 195.016 195.828 195.016 195.254ZM196.644 195.126C196.644 195.535 196.705 195.904 196.827 196.233C196.955 196.563 197.132 196.843 197.358 197.075C197.59 197.307 197.867 197.487 198.191 197.615C198.52 197.737 198.883 197.798 199.279 197.798C199.664 197.798 200.017 197.734 200.341 197.606C200.664 197.478 200.941 197.298 201.173 197.066C201.411 196.834 201.594 196.554 201.722 196.224C201.856 195.895 201.923 195.529 201.923 195.126C201.923 194.76 201.859 194.419 201.731 194.102C201.609 193.778 201.432 193.495 201.201 193.251C200.969 193.007 200.691 192.814 200.368 192.674C200.045 192.534 199.682 192.464 199.279 192.464C198.901 192.464 198.55 192.531 198.227 192.665C197.91 192.793 197.632 192.976 197.395 193.214C197.163 193.446 196.98 193.726 196.846 194.056C196.711 194.379 196.644 194.736 196.644 195.126ZM197.111 189.042C197.111 189.353 197.166 189.643 197.276 189.911C197.392 190.173 197.547 190.405 197.742 190.606C197.944 190.802 198.175 190.957 198.438 191.073C198.7 191.183 198.98 191.238 199.279 191.238C199.578 191.238 199.859 191.18 200.121 191.064C200.389 190.948 200.621 190.792 200.816 190.597C201.012 190.396 201.167 190.164 201.283 189.902C201.399 189.634 201.457 189.347 201.457 189.042C201.457 188.725 201.399 188.432 201.283 188.164C201.173 187.895 201.021 187.663 200.826 187.468C200.63 187.273 200.399 187.121 200.13 187.011C199.868 186.895 199.584 186.837 199.279 186.837C198.956 186.837 198.66 186.895 198.392 187.011C198.13 187.127 197.901 187.285 197.706 187.487C197.517 187.682 197.37 187.913 197.266 188.182C197.163 188.45 197.111 188.737 197.111 189.042ZM210.442 186.361C210.149 186.196 209.816 186.114 209.444 186.114C208.395 186.114 207.871 186.776 207.871 188.1V189.545H210.066V190.826H207.871V198.914H206.379V190.826H204.778V189.545H206.379V188.026C206.379 187.044 206.663 186.27 207.23 185.702C207.797 185.129 208.505 184.842 209.353 184.842C209.81 184.842 210.173 184.897 210.442 185.007V186.361ZM211.119 198.576V196.965C211.936 197.569 212.836 197.871 213.818 197.871C215.135 197.871 215.794 197.432 215.794 196.554C215.794 196.303 215.736 196.093 215.62 195.922C215.51 195.745 215.358 195.59 215.163 195.456C214.974 195.321 214.748 195.202 214.486 195.099C214.229 194.989 213.952 194.876 213.653 194.76C213.238 194.596 212.872 194.431 212.555 194.266C212.244 194.095 211.982 193.906 211.768 193.699C211.561 193.485 211.402 193.245 211.292 192.976C211.189 192.708 211.137 192.394 211.137 192.034C211.137 191.595 211.238 191.207 211.439 190.872C211.64 190.53 211.908 190.247 212.244 190.021C212.579 189.789 212.961 189.615 213.388 189.499C213.821 189.383 214.266 189.326 214.723 189.326C215.535 189.326 216.261 189.466 216.901 189.746V191.265C216.212 190.814 215.419 190.588 214.522 190.588C214.242 190.588 213.988 190.622 213.763 190.689C213.537 190.75 213.342 190.838 213.177 190.954C213.019 191.07 212.894 191.21 212.802 191.375C212.717 191.534 212.674 191.71 212.674 191.906C212.674 192.15 212.717 192.354 212.802 192.519C212.894 192.683 213.025 192.83 213.195 192.958C213.366 193.086 213.574 193.202 213.818 193.306C214.062 193.409 214.339 193.522 214.65 193.644C215.065 193.803 215.437 193.967 215.766 194.138C216.096 194.303 216.376 194.492 216.608 194.705C216.84 194.913 217.017 195.154 217.139 195.428C217.267 195.703 217.331 196.029 217.331 196.407C217.331 196.871 217.227 197.273 217.02 197.615C216.819 197.956 216.547 198.24 216.206 198.466C215.864 198.691 215.471 198.859 215.025 198.969C214.58 199.079 214.113 199.134 213.626 199.134C212.662 199.134 211.826 198.948 211.119 198.576ZM228.978 198.914H226.837L221.768 192.912C221.579 192.686 221.463 192.534 221.421 192.455H221.384V198.914H219.847V185.794H221.384V191.961H221.421C221.506 191.826 221.622 191.677 221.768 191.512L226.672 185.794H228.585L222.958 192.089L228.978 198.914ZM244.093 198.914H242.565V190.112C242.565 189.417 242.608 188.566 242.693 187.56H242.656C242.51 188.151 242.379 188.575 242.263 188.831L237.78 198.914H237.03L232.556 188.905C232.427 188.612 232.296 188.164 232.162 187.56H232.125C232.174 188.084 232.199 188.941 232.199 190.131V198.914H230.716V185.794H232.748L236.773 194.943C237.084 195.645 237.286 196.169 237.377 196.517H237.432C237.694 195.797 237.905 195.26 238.063 194.907L242.171 185.794H244.093V198.914ZM248.887 197.56H248.85V203.223H247.35V189.545H248.85V191.192H248.887C249.625 189.948 250.705 189.326 252.126 189.326C253.334 189.326 254.276 189.746 254.953 190.588C255.63 191.424 255.969 192.546 255.969 193.955C255.969 195.523 255.587 196.779 254.825 197.725C254.063 198.664 253.02 199.134 251.696 199.134C250.482 199.134 249.546 198.609 248.887 197.56ZM248.85 193.781V195.09C248.85 195.864 249.101 196.523 249.601 197.066C250.107 197.603 250.747 197.871 251.522 197.871C252.431 197.871 253.142 197.523 253.654 196.828C254.172 196.133 254.432 195.166 254.432 193.928C254.432 192.885 254.191 192.067 253.709 191.476C253.227 190.884 252.574 190.588 251.751 190.588C250.879 190.588 250.177 190.893 249.646 191.503C249.116 192.107 248.85 192.866 248.85 193.781ZM270.168 189.545L267.36 198.914H265.804L263.874 192.208C263.801 191.951 263.752 191.662 263.727 191.338H263.691C263.672 191.558 263.608 191.842 263.499 192.189L261.403 198.914H259.903L257.067 189.545H258.64L260.58 196.59C260.641 196.804 260.684 197.084 260.708 197.432H260.781C260.8 197.163 260.854 196.877 260.946 196.572L263.105 189.545H264.478L266.417 196.608C266.478 196.834 266.524 197.115 266.554 197.45H266.628C266.64 197.212 266.692 196.932 266.783 196.608L268.686 189.545H270.168ZM281.843 199.079C281.562 199.079 281.325 198.981 281.129 198.786C280.94 198.591 280.846 198.353 280.846 198.072C280.846 197.792 280.94 197.551 281.129 197.35C281.325 197.142 281.562 197.038 281.843 197.038C282.118 197.038 282.352 197.142 282.548 197.35C282.749 197.551 282.849 197.792 282.849 198.072C282.849 198.353 282.749 198.591 282.548 198.786C282.352 198.981 282.118 199.079 281.843 199.079ZM277.25 199.079C276.969 199.079 276.729 198.981 276.527 198.786C276.332 198.591 276.234 198.353 276.234 198.072C276.234 197.792 276.332 197.551 276.527 197.35C276.729 197.142 276.969 197.038 277.25 197.038C277.525 197.038 277.759 197.142 277.955 197.35C278.156 197.551 278.257 197.792 278.257 198.072C278.257 198.353 278.156 198.591 277.955 198.786C277.759 198.981 277.525 199.079 277.25 199.079ZM272.657 199.079C272.377 199.079 272.142 198.981 271.953 198.786C271.764 198.591 271.669 198.353 271.669 198.072C271.669 197.792 271.764 197.551 271.953 197.35C272.142 197.142 272.377 197.038 272.657 197.038C272.932 197.038 273.166 197.142 273.362 197.35C273.563 197.551 273.664 197.792 273.664 198.072C273.664 198.353 273.566 198.591 273.371 198.786C273.176 198.981 272.938 199.079 272.657 199.079Z" fill="#2D2D2D"/>
</g>
<path d="M-18 30L349 30" stroke="#EAEAEA" stroke-dasharray="12 12"/>
<defs>
<filter id="filter0_i_42_6" x="38.7109" y="40.1893" width="258.583" height="195.811" filterUnits="userSpaceOnUse" color-interpolation-filters="sRGB">
<feFlood flood-opacity="0" result="BackgroundImageFix"/>
<feBlend mode="normal" in="SourceGraphic" in2="BackgroundImageFix" result="shape"/>
<feColorMatrix in="SourceAlpha" type="matrix" values="0 0 0 0 0 0 0 0 0 0 0 0 0 0 0 0 0 0 127 0" result="hardAlpha"/>
<feOffset dy="-2.81068"/>
<feGaussianBlur stdDeviation="5.57451"/>
<feComposite in2="hardAlpha" operator="arithmetic" k2="-1" k3="1"/>
<feColorMatrix type="matrix" values="0 0 0 0 0.471154 0 0 0 0 0.471154 0 0 0 0 0.471154 0 0 0 0.11 0"/>
<feBlend mode="normal" in2="shape" result="effect1_innerShadow_42_6"/>
</filter>
<filter id="filter1_d_42_6" x="44.8008" y="55.6493" width="44.9706" height="41.2236" filterUnits="userSpaceOnUse" color-interpolation-filters="sRGB">
<feFlood flood-opacity="0" result="BackgroundImageFix"/>
<feColorMatrix in="SourceAlpha" type="matrix" values="0 0 0 0 0 0 0 0 0 0 0 0 0 0 0 0 0 0 127 0" result="hardAlpha"/>
<feOffset dy="4.68447"/>
<feGaussianBlur stdDeviation="3.0449"/>
<feComposite in2="hardAlpha" operator="out"/>
<feColorMatrix type="matrix" values="0 0 0 0 0 0 0 0 0 0 0 0 0 0 0 0 0 0 0.11 0"/>
<feBlend mode="normal" in2="BackgroundImageFix" result="effect1_dropShadow_42_6"/>
<feBlend mode="normal" in="SourceGraphic" in2="effect1_dropShadow_42_6" result="shape"/>
</filter>
<filter id="filter2_d_42_6" x="44.8008" y="115.608" width="44.9706" height="41.2236" filterUnits="userSpaceOnUse" color-interpolation-filters="sRGB">
<feFlood flood-opacity="0" result="BackgroundImageFix"/>
<feColorMatrix in="SourceAlpha" type="matrix" values="0 0 0 0 0 0 0 0 0 0 0 0 0 0 0 0 0 0 127 0" result="hardAlpha"/>
<feOffset dy="4.68447"/>
<feGaussianBlur stdDeviation="3.0449"/>
<feComposite in2="hardAlpha" operator="out"/>
<feColorMatrix type="matrix" values="0 0 0 0 0 0 0 0 0 0 0 0 0 0 0 0 0 0 0.11 0"/>
<feBlend mode="normal" in2="BackgroundImageFix" result="effect1_dropShadow_42_6"/>
<feBlend mode="normal" in="SourceGraphic" in2="effect1_dropShadow_42_6" result="shape"/>
</filter>
<filter id="filter3_d_42_6" x="44.8008" y="175.571" width="44.9706" height="41.2236" filterUnits="userSpaceOnUse" color-interpolation-filters="sRGB">
<feFlood flood-opacity="0" result="BackgroundImageFix"/>
<feColorMatrix in="SourceAlpha" type="matrix" values="0 0 0 0 0 0 0 0 0 0 0 0 0 0 0 0 0 0 127 0" result="hardAlpha"/>
<feOffset dy="4.68447"/>
<feGaussianBlur stdDeviation="3.0449"/>
<feComposite in2="hardAlpha" operator="out"/>
<feColorMatrix type="matrix" values="0 0 0 0 0 0 0 0 0 0 0 0 0 0 0 0 0 0 0.11 0"/>
<feBlend mode="normal" in2="BackgroundImageFix" result="effect1_dropShadow_42_6"/>
<feBlend mode="normal" in="SourceGraphic" in2="effect1_dropShadow_42_6" result="shape"/>
</filter>
<linearGradient id="paint0_linear_42_6" x1="67.3788" y1="57.0547" x2="67.3788" y2="86.0989" gradientUnits="userSpaceOnUse">
<stop stop-color="#0485E7"/>
<stop offset="1" stop-color="#49B0FF"/>
</linearGradient>
<linearGradient id="paint1_linear_42_6" x1="67.3788" y1="117.014" x2="67.3788" y2="146.058" gradientUnits="userSpaceOnUse">
<stop stop-color="#0485E7"/>
<stop offset="1" stop-color="#49B0FF"/>
</linearGradient>
<linearGradient id="paint2_linear_42_6" x1="67.3788" y1="176.977" x2="67.3788" y2="206.021" gradientUnits="userSpaceOnUse">
<stop stop-color="#0485E7"/>
<stop offset="1" stop-color="#49B0FF"/>
</linearGradient>
<clipPath id="clip0_42_6">
<rect x="44.332" y="48.623" width="44.9709" height="44.9709" rx="11.2427" fill="white"/>
</clipPath>
<clipPath id="clip1_42_6">
<rect x="44.332" y="108.582" width="44.9709" height="44.9709" rx="11.2427" fill="white"/>
</clipPath>
<clipPath id="clip2_42_6">
<rect x="44.332" y="168.543" width="44.9709" height="44.9709" rx="11.2427" fill="white"/>
</clipPath>
</defs>
</svg>
