<svg width="336" height="272" viewBox="0 0 336 272" fill="none" xmlns="http://www.w3.org/2000/svg">
<g filter="url(#filter0_i_42_8)">
<rect x="164" y="106" width="8" height="104" fill="url(#paint0_linear_42_8)"/>
</g>
<g filter="url(#filter1_i_42_8)">
<path d="M133 71H87C77.0589 71 69 79.0589 69 89V196" stroke="url(#paint1_linear_42_8)" stroke-width="8"/>
</g>
<g filter="url(#filter2_i_42_8)">
<path d="M203 71H249C258.941 71 267 79.0589 267 89V196" stroke="url(#paint2_linear_42_8)" stroke-width="8"/>
</g>
<path d="M-15 159L352 159" stroke="#EAEAEA" stroke-dasharray="12 12"/>
<path d="M306 -17L306 292" stroke="#EAEAEA" stroke-dasharray="12 12"/>
<path d="M30 -17L30 292" stroke="#EAEAEA" stroke-dasharray="12 12"/>
<path d="M-18 30L349 30" stroke="#EAEAEA" stroke-dasharray="12 12"/>
<rect x="239" y="168" width="56" height="32" rx="8" fill="#D9D9D9"/>
<rect x="41" y="168" width="56" height="32" rx="8" fill="#D9D9D9"/>
<rect x="140" y="179" width="56" height="32" rx="8" fill="#D9D9D9"/>
<g filter="url(#filter3_d_42_8)">
<g clip-path="url(#clip0_42_8)">
<rect x="131" y="33" width="75" height="75" rx="18.7573" fill="#FEFEFE"/>
<g filter="url(#filter4_d_42_8)">
<path fill-rule="evenodd" clip-rule="evenodd" d="M180.717 47.1989C181.786 47 182.884 47.018 183.946 47.2516C185.008 47.4853 186.011 47.9297 186.896 48.5583C187.78 49.187 188.527 49.9871 189.091 50.9098C189.655 51.8325 190.024 52.8591 190.178 53.9274C189.725 53.8701 189.27 53.8414 188.813 53.8415H157.095C155.335 54.2536 155.549 56.7299 157.6 56.7477H188.813C190.885 56.75 192.87 57.5673 194.335 59.0202C195.8 60.4731 196.624 62.4431 196.626 64.4977V87.7487C196.624 89.8035 195.8 91.7743 194.335 93.2272C192.87 94.68 190.885 95.4974 188.813 95.4997H149.751C147.68 95.4975 145.693 94.6802 144.229 93.2272C142.764 91.7743 141.941 89.8035 141.938 87.7487V64.4977C141.939 64.1886 141.96 63.8817 141.997 63.5778V60.6237C141.997 58.0792 143.374 53.8652 148.093 52.7429C148.245 52.7046 148.399 52.6698 148.555 52.6403H148.585C148.971 52.5689 149.356 52.5041 149.738 52.445L180.717 47.1989ZM184.51 72.5436C183.796 72.2503 183.011 72.1734 182.253 72.3229C181.495 72.4725 180.799 72.8416 180.253 73.3835C179.707 73.9254 179.334 74.6162 179.184 75.3679C179.033 76.1194 179.111 76.8982 179.406 77.6061C179.702 78.3142 180.202 78.9196 180.845 79.3454C181.487 79.7712 182.242 79.9987 183.015 79.9987C184.051 79.9987 185.045 79.5907 185.777 78.864C186.51 78.1373 186.921 77.1514 186.921 76.1237C186.921 75.3573 186.692 74.6077 186.263 73.9704C185.833 73.3333 185.223 72.8369 184.51 72.5436Z" fill="url(#paint3_linear_42_8)"/>
</g>
</g>
<rect x="131.782" y="33.7816" width="73.4369" height="73.4369" rx="17.9757" stroke="#F2F2F2" stroke-width="1.56311"/>
</g>
<rect x="65" y="111" width="8" height="25" fill="url(#paint4_linear_42_8)" fill-opacity="0.74"/>
<rect x="164" y="130" width="8" height="24" fill="url(#paint5_linear_42_8)" fill-opacity="0.86"/>
<rect x="263" y="98" width="8" height="36" fill="url(#paint6_linear_42_8)"/>
<defs>
<filter id="filter0_i_42_8" x="164" y="106" width="8" height="105" filterUnits="userSpaceOnUse" color-interpolation-filters="sRGB">
<feFlood flood-opacity="0" result="BackgroundImageFix"/>
<feBlend mode="normal" in="SourceGraphic" in2="BackgroundImageFix" result="shape"/>
<feColorMatrix in="SourceAlpha" type="matrix" values="0 0 0 0 0 0 0 0 0 0 0 0 0 0 0 0 0 0 127 0" result="hardAlpha"/>
<feOffset dy="1"/>
<feGaussianBlur stdDeviation="1.85"/>
<feComposite in2="hardAlpha" operator="arithmetic" k2="-1" k3="1"/>
<feColorMatrix type="matrix" values="0 0 0 0 1 0 0 0 0 1 0 0 0 0 1 0 0 0 0.74 0"/>
<feBlend mode="normal" in2="shape" result="effect1_innerShadow_42_8"/>
</filter>
<filter id="filter1_i_42_8" x="65" y="67" width="68" height="130" filterUnits="userSpaceOnUse" color-interpolation-filters="sRGB">
<feFlood flood-opacity="0" result="BackgroundImageFix"/>
<feBlend mode="normal" in="SourceGraphic" in2="BackgroundImageFix" result="shape"/>
<feColorMatrix in="SourceAlpha" type="matrix" values="0 0 0 0 0 0 0 0 0 0 0 0 0 0 0 0 0 0 127 0" result="hardAlpha"/>
<feOffset dy="1"/>
<feGaussianBlur stdDeviation="1.85"/>
<feComposite in2="hardAlpha" operator="arithmetic" k2="-1" k3="1"/>
<feColorMatrix type="matrix" values="0 0 0 0 1 0 0 0 0 1 0 0 0 0 1 0 0 0 0.74 0"/>
<feBlend mode="normal" in2="shape" result="effect1_innerShadow_42_8"/>
</filter>
<filter id="filter2_i_42_8" x="203" y="67" width="68" height="130" filterUnits="userSpaceOnUse" color-interpolation-filters="sRGB">
<feFlood flood-opacity="0" result="BackgroundImageFix"/>
<feBlend mode="normal" in="SourceGraphic" in2="BackgroundImageFix" result="shape"/>
<feColorMatrix in="SourceAlpha" type="matrix" values="0 0 0 0 0 0 0 0 0 0 0 0 0 0 0 0 0 0 127 0" result="hardAlpha"/>
<feOffset dy="1"/>
<feGaussianBlur stdDeviation="1.85"/>
<feComposite in2="hardAlpha" operator="arithmetic" k2="-1" k3="1"/>
<feColorMatrix type="matrix" values="0 0 0 0 1 0 0 0 0 1 0 0 0 0 1 0 0 0 0.74 0"/>
<feBlend mode="normal" in2="shape" result="effect1_innerShadow_42_8"/>
</filter>
<filter id="filter3_d_42_8" x="122.6" y="27.6" width="91.8" height="91.8" filterUnits="userSpaceOnUse" color-interpolation-filters="sRGB">
<feFlood flood-opacity="0" result="BackgroundImageFix"/>
<feColorMatrix in="SourceAlpha" type="matrix" values="0 0 0 0 0 0 0 0 0 0 0 0 0 0 0 0 0 0 127 0" result="hardAlpha"/>
<feOffset dy="3"/>
<feGaussianBlur stdDeviation="4.2"/>
<feComposite in2="hardAlpha" operator="out"/>
<feColorMatrix type="matrix" values="0 0 0 0 0 0 0 0 0 0 0 0 0 0 0 0 0 0 0.19 0"/>
<feBlend mode="normal" in2="BackgroundImageFix" result="effect1_dropShadow_42_8"/>
<feBlend mode="normal" in="SourceGraphic" in2="effect1_dropShadow_42_8" result="shape"/>
</filter>
<filter id="filter4_d_42_8" x="131.778" y="44.7174" width="75.0079" height="68.7579" filterUnits="userSpaceOnUse" color-interpolation-filters="sRGB">
<feFlood flood-opacity="0" result="BackgroundImageFix"/>
<feColorMatrix in="SourceAlpha" type="matrix" values="0 0 0 0 0 0 0 0 0 0 0 0 0 0 0 0 0 0 127 0" result="hardAlpha"/>
<feOffset dy="7.81553"/>
<feGaussianBlur stdDeviation="5.0801"/>
<feComposite in2="hardAlpha" operator="out"/>
<feColorMatrix type="matrix" values="0 0 0 0 0 0 0 0 0 0 0 0 0 0 0 0 0 0 0.11 0"/>
<feBlend mode="normal" in2="BackgroundImageFix" result="effect1_dropShadow_42_8"/>
<feBlend mode="normal" in="SourceGraphic" in2="effect1_dropShadow_42_8" result="shape"/>
</filter>
<linearGradient id="paint0_linear_42_8" x1="167" y1="106" x2="168" y2="131.5" gradientUnits="userSpaceOnUse">
<stop stop-color="#D2D2D2"/>
<stop offset="1" stop-color="#E4E4E4"/>
</linearGradient>
<linearGradient id="paint1_linear_42_8" x1="133" y1="71" x2="101" y2="71" gradientUnits="userSpaceOnUse">
<stop stop-color="#D2D2D2"/>
<stop offset="1" stop-color="#E4E4E4"/>
</linearGradient>
<linearGradient id="paint2_linear_42_8" x1="203" y1="71" x2="235" y2="71" gradientUnits="userSpaceOnUse">
<stop stop-color="#D2D2D2"/>
<stop offset="1" stop-color="#E4E4E4"/>
</linearGradient>
<linearGradient id="paint3_linear_42_8" x1="169.437" y1="47.062" x2="169.437" y2="95.4997" gradientUnits="userSpaceOnUse">
<stop stop-color="#0485E7"/>
<stop offset="1" stop-color="#49B0FF"/>
</linearGradient>
<linearGradient id="paint4_linear_42_8" x1="69" y1="112.389" x2="69" y2="130.444" gradientUnits="userSpaceOnUse">
<stop stop-color="#3EA0EB"/>
<stop offset="1" stop-color="#3EA0EB" stop-opacity="0"/>
</linearGradient>
<linearGradient id="paint5_linear_42_8" x1="168" y1="131.333" x2="168" y2="148.667" gradientUnits="userSpaceOnUse">
<stop stop-color="#3EA0EB"/>
<stop offset="1" stop-color="#3EA0EB" stop-opacity="0"/>
</linearGradient>
<linearGradient id="paint6_linear_42_8" x1="267" y1="100" x2="267" y2="126" gradientUnits="userSpaceOnUse">
<stop stop-color="#3EA0EB"/>
<stop offset="1" stop-color="#3EA0EB" stop-opacity="0"/>
</linearGradient>
<clipPath id="clip0_42_8">
<rect x="131" y="33" width="75" height="75" rx="18.7573" fill="white"/>
</clipPath>
</defs>
</svg>
