<svg width="336" height="272" viewBox="0 0 336 272" fill="none" xmlns="http://www.w3.org/2000/svg">
<path d="M-15 159L352 159" stroke="#EAEAEA" stroke-dasharray="12 12"/>
<path d="M152.348 79H119.667C114.328 79 110 83.3279 110 88.6667V165.602C110 170.941 114.328 175.269 119.667 175.269H216.333C221.672 175.269 226 170.941 226 165.602V97.3405C226 92.0017 221.672 87.6738 216.333 87.6738H169.619C167.312 87.6738 165.081 86.8484 163.329 85.3468L158.639 81.327C156.887 79.8254 154.655 79 152.348 79Z" fill="url(#paint0_linear_42_7)" stroke="#E0E0E0"/>
<rect x="115.062" y="92.8086" width="105.873" height="81.7063" rx="9.66667" fill="white"/>
<g filter="url(#filter0_d_42_7)">
<rect x="110" y="96.7207" width="116" height="78.4841" rx="9.66667" fill="url(#paint1_linear_42_7)"/>
<rect x="110.5" y="97.2207" width="115" height="77.4841" rx="9.16667" stroke="#EBEBEB"/>
</g>
<path d="M306 -17L306 292" stroke="#EAEAEA" stroke-dasharray="12 12"/>
<path d="M30 -17L30 292" stroke="#EAEAEA" stroke-dasharray="12 12"/>
<path d="M-18 30L349 30" stroke="#EAEAEA" stroke-dasharray="12 12"/>
<g filter="url(#filter1_di_42_7)">
<rect x="117" y="36" width="103" height="37" rx="18.5" fill="url(#paint2_linear_42_7)" shape-rendering="crispEdges"/>
<rect x="117.33" y="36.3305" width="102.339" height="36.3391" rx="18.1695" stroke="#004BDE" stroke-width="0.66092" shape-rendering="crispEdges"/>
<path d="M158.818 55.9393V59.4375H157.734V50.182H160.277C161.267 50.182 162.032 50.423 162.575 50.9049C163.121 51.3868 163.394 52.0667 163.394 52.9445C163.394 53.8223 163.091 54.5408 162.484 55.1002C161.882 55.6596 161.066 55.9393 160.038 55.9393H158.818ZM158.818 51.1631V54.9582H159.954C160.703 54.9582 161.273 54.7883 161.665 54.4483C162.06 54.1041 162.258 53.62 162.258 52.9961C162.258 51.7741 161.535 51.1631 160.09 51.1631H158.818ZM168.448 53.8997C168.263 53.7577 167.996 53.6867 167.648 53.6867C167.196 53.6867 166.817 53.8997 166.512 54.3257C166.211 54.7517 166.06 55.3326 166.06 56.0684V59.4375H165.001V52.8283H166.06V54.1902H166.086C166.236 53.7255 166.467 53.364 166.776 53.1058C167.086 52.8434 167.433 52.7121 167.816 52.7121C168.091 52.7121 168.302 52.7422 168.448 52.8025V53.8997ZM174.909 56.3975H170.242C170.26 57.1333 170.457 57.7013 170.836 58.1015C171.215 58.5016 171.735 58.7017 172.398 58.7017C173.142 58.7017 173.827 58.4564 174.451 57.9659V58.9599C173.87 59.3816 173.102 59.5924 172.146 59.5924C171.213 59.5924 170.479 59.2934 169.945 58.6953C169.412 58.0929 169.145 57.2473 169.145 56.1587C169.145 55.1303 169.436 54.2934 170.016 53.648C170.602 52.9983 171.327 52.6734 172.192 52.6734C173.056 52.6734 173.726 52.9531 174.199 53.5125C174.672 54.0718 174.909 54.8485 174.909 55.8425V56.3975ZM173.824 55.5004C173.82 54.8894 173.672 54.4139 173.379 54.074C173.091 53.7341 172.689 53.5641 172.172 53.5641C171.673 53.5641 171.249 53.7427 170.901 54.0998C170.552 54.4569 170.337 54.9238 170.255 55.5004H173.824ZM176.116 59.1987V58.0627C176.692 58.4887 177.327 58.7017 178.02 58.7017C178.949 58.7017 179.414 58.3919 179.414 57.7723C179.414 57.5959 179.373 57.4474 179.291 57.3269C179.214 57.2022 179.106 57.0924 178.969 56.9978C178.835 56.9031 178.676 56.8192 178.491 56.7461C178.31 56.6686 178.114 56.589 177.904 56.5073C177.611 56.3911 177.353 56.2749 177.129 56.1587C176.91 56.0382 176.725 55.9049 176.574 55.7586C176.428 55.608 176.316 55.438 176.238 55.2487C176.165 55.0593 176.129 54.8377 176.129 54.5839C176.129 54.2741 176.2 54.0008 176.342 53.7642C176.484 53.5232 176.673 53.3231 176.91 53.1639C177.146 53.0004 177.415 52.8778 177.716 52.796C178.022 52.7143 178.336 52.6734 178.659 52.6734C179.231 52.6734 179.743 52.7724 180.195 52.9703V54.0417C179.709 53.7233 179.149 53.5641 178.517 53.5641C178.319 53.5641 178.14 53.5878 177.981 53.6351C177.822 53.6781 177.684 53.7405 177.568 53.8223C177.456 53.904 177.368 54.003 177.303 54.1192C177.243 54.231 177.213 54.3558 177.213 54.4935C177.213 54.6656 177.243 54.8098 177.303 54.9259C177.368 55.0421 177.46 55.1454 177.581 55.2358C177.701 55.3261 177.848 55.4079 178.02 55.481C178.192 55.5542 178.388 55.6338 178.607 55.7198C178.9 55.8317 179.162 55.9479 179.395 56.0684C179.627 56.1845 179.825 56.3179 179.988 56.4685C180.152 56.6148 180.277 56.7848 180.363 56.9784C180.453 57.172 180.498 57.4022 180.498 57.669C180.498 57.996 180.425 58.28 180.279 58.521C180.137 58.762 179.945 58.962 179.704 59.1212C179.463 59.2804 179.186 59.3988 178.872 59.4762C178.558 59.5537 178.228 59.5924 177.884 59.5924C177.204 59.5924 176.615 59.4612 176.116 59.1987ZM187.443 56.3975H182.777C182.794 57.1333 182.992 57.7013 183.37 58.1015C183.749 58.5016 184.27 58.7017 184.932 58.7017C185.677 58.7017 186.361 58.4564 186.985 57.9659V58.9599C186.404 59.3816 185.636 59.5924 184.681 59.5924C183.747 59.5924 183.013 59.2934 182.48 58.6953C181.946 58.0929 181.679 57.2473 181.679 56.1587C181.679 55.1303 181.97 54.2934 182.551 53.648C183.136 52.9983 183.861 52.6734 184.726 52.6734C185.591 52.6734 186.26 52.9531 186.733 53.5125C187.206 54.0718 187.443 54.8485 187.443 55.8425V56.3975ZM186.359 55.5004C186.354 54.8894 186.206 54.4139 185.913 54.074C185.625 53.7341 185.223 53.5641 184.706 53.5641C184.207 53.5641 183.783 53.7427 183.435 54.0998C183.086 54.4569 182.871 54.9238 182.789 55.5004H186.359ZM192.116 59.373C191.866 59.5106 191.537 59.5795 191.128 59.5795C189.971 59.5795 189.392 58.9341 189.392 57.6432V53.7319H188.256V52.8283H189.392V51.2147L190.451 50.8727V52.8283H192.116V53.7319H190.451V57.456C190.451 57.8992 190.526 58.2155 190.677 58.4048C190.827 58.5941 191.077 58.6888 191.425 58.6888C191.692 58.6888 191.922 58.6157 192.116 58.4694V59.373ZM193.129 59.1987V58.0627C193.706 58.4887 194.341 58.7017 195.033 58.7017C195.963 58.7017 196.427 58.3919 196.427 57.7723C196.427 57.5959 196.387 57.4474 196.305 57.3269C196.227 57.2022 196.12 57.0924 195.982 56.9978C195.849 56.9031 195.689 56.8192 195.504 56.7461C195.324 56.6686 195.128 56.589 194.917 56.5073C194.624 56.3911 194.366 56.2749 194.143 56.1587C193.923 56.0382 193.738 55.9049 193.588 55.7586C193.441 55.608 193.329 55.438 193.252 55.2487C193.179 55.0593 193.142 54.8377 193.142 54.5839C193.142 54.2741 193.213 54.0008 193.355 53.7642C193.497 53.5232 193.686 53.3231 193.923 53.1639C194.16 53.0004 194.429 52.8778 194.73 52.796C195.035 52.7143 195.35 52.6734 195.672 52.6734C196.245 52.6734 196.757 52.7724 197.208 52.9703V54.0417C196.722 53.7233 196.163 53.5641 195.53 53.5641C195.332 53.5641 195.154 53.5878 194.995 53.6351C194.835 53.6781 194.698 53.7405 194.581 53.8223C194.47 53.904 194.381 54.003 194.317 54.1192C194.257 54.231 194.226 54.3558 194.226 54.4935C194.226 54.6656 194.257 54.8098 194.317 54.9259C194.381 55.0421 194.474 55.1454 194.594 55.2358C194.715 55.3261 194.861 55.4079 195.033 55.481C195.205 55.5542 195.401 55.6338 195.621 55.7198C195.913 55.8317 196.176 55.9479 196.408 56.0684C196.64 56.1845 196.838 56.3179 197.002 56.4685C197.165 56.6148 197.29 56.7848 197.376 56.9784C197.467 57.172 197.512 57.4022 197.512 57.669C197.512 57.996 197.439 58.28 197.292 58.521C197.15 58.762 196.959 58.962 196.718 59.1212C196.477 59.2804 196.199 59.3988 195.885 59.4762C195.571 59.5537 195.242 59.5924 194.898 59.5924C194.218 59.5924 193.628 59.4612 193.129 59.1987Z" fill="url(#paint3_linear_42_7)"/>
<path d="M141 44L143.245 50.9098H150.511L144.633 55.1803L146.878 62.0902L141 57.8197L135.122 62.0902L137.367 55.1803L131.489 50.9098H138.755L141 44Z" fill="#D9D9D9"/>
<path d="M141 44L143.245 50.9098H150.511L144.633 55.1803L146.878 62.0902L141 57.8197L135.122 62.0902L137.367 55.1803L131.489 50.9098H138.755L141 44Z" fill="url(#paint4_linear_42_7)"/>
</g>
<defs>
<filter id="filter0_d_42_7" x="108.9" y="94.6207" width="118.2" height="80.6844" filterUnits="userSpaceOnUse" color-interpolation-filters="sRGB">
<feFlood flood-opacity="0" result="BackgroundImageFix"/>
<feColorMatrix in="SourceAlpha" type="matrix" values="0 0 0 0 0 0 0 0 0 0 0 0 0 0 0 0 0 0 127 0" result="hardAlpha"/>
<feOffset dy="-1"/>
<feGaussianBlur stdDeviation="0.55"/>
<feComposite in2="hardAlpha" operator="out"/>
<feColorMatrix type="matrix" values="0 0 0 0 0 0 0 0 0 0 0 0 0 0 0 0 0 0 0.07 0"/>
<feBlend mode="normal" in2="BackgroundImageFix" result="effect1_dropShadow_42_7"/>
<feBlend mode="normal" in="SourceGraphic" in2="effect1_dropShadow_42_7" result="shape"/>
</filter>
<filter id="filter1_di_42_7" x="110.9" y="32.5437" width="115.2" height="49.2" filterUnits="userSpaceOnUse" color-interpolation-filters="sRGB">
<feFlood flood-opacity="0" result="BackgroundImageFix"/>
<feColorMatrix in="SourceAlpha" type="matrix" values="0 0 0 0 0 0 0 0 0 0 0 0 0 0 0 0 0 0 127 0" result="hardAlpha"/>
<feOffset dy="2.64368"/>
<feGaussianBlur stdDeviation="3.05"/>
<feComposite in2="hardAlpha" operator="out"/>
<feColorMatrix type="matrix" values="0 0 0 0 0 0 0 0 0 0 0 0 0 0 0 0 0 0 0.15 0"/>
<feBlend mode="normal" in2="BackgroundImageFix" result="effect1_dropShadow_42_7"/>
<feBlend mode="normal" in="SourceGraphic" in2="effect1_dropShadow_42_7" result="shape"/>
<feColorMatrix in="SourceAlpha" type="matrix" values="0 0 0 0 0 0 0 0 0 0 0 0 0 0 0 0 0 0 127 0" result="hardAlpha"/>
<feOffset dy="1.32184"/>
<feGaussianBlur stdDeviation="0.66092"/>
<feComposite in2="hardAlpha" operator="arithmetic" k2="-1" k3="1"/>
<feColorMatrix type="matrix" values="0 0 0 0 0.679808 0 0 0 0 0.79988 0 0 0 0 1 0 0 0 1 0"/>
<feBlend mode="normal" in2="shape" result="effect2_innerShadow_42_7"/>
</filter>
<linearGradient id="paint0_linear_42_7" x1="168" y1="79" x2="168" y2="175.269" gradientUnits="userSpaceOnUse">
<stop stop-color="#F0F0F0"/>
<stop offset="1" stop-color="#969696"/>
</linearGradient>
<linearGradient id="paint1_linear_42_7" x1="168" y1="96.7207" x2="168" y2="175.205" gradientUnits="userSpaceOnUse">
<stop stop-color="#F6F6F6"/>
<stop offset="1" stop-color="#EBEBEB"/>
</linearGradient>
<linearGradient id="paint2_linear_42_7" x1="168.791" y1="36" x2="168.791" y2="73" gradientUnits="userSpaceOnUse">
<stop stop-color="#73C2FF"/>
<stop offset="1" stop-color="#3EA0EB"/>
</linearGradient>
<linearGradient id="paint3_linear_42_7" x1="175.497" y1="55.5625" x2="175.497" y2="60.4375" gradientUnits="userSpaceOnUse">
<stop stop-color="white"/>
<stop offset="1" stop-color="#E1E1E1"/>
</linearGradient>
<linearGradient id="paint4_linear_42_7" x1="140.143" y1="56.5" x2="140.143" y2="64" gradientUnits="userSpaceOnUse">
<stop stop-color="white"/>
<stop offset="1" stop-color="#E1E1E1"/>
</linearGradient>
</defs>
</svg>
