<svg width="336" height="272" viewBox="0 0 336 272" fill="none" xmlns="http://www.w3.org/2000/svg">
<path d="M-15 159L352 159" stroke="#EAEAEA" stroke-dasharray="12 12"/>
<path d="M306 -17L306 292" stroke="#EAEAEA" stroke-dasharray="12 12"/>
<path d="M30 -17L30 292" stroke="#EAEAEA" stroke-dasharray="12 12"/>
<g filter="url(#filter0_i_42_5)">
<g clip-path="url(#clip0_42_5)">
<rect x="67" y="103.439" width="202" height="68.8636" rx="27.5455" fill="#FDFDFD"/>
<g filter="url(#filter1_d_42_5)">
<rect x="72.7383" y="109.178" width="190.523" height="57.3864" rx="25.25" fill="#FEFEFE"/>
<rect x="73.3121" y="109.752" width="189.375" height="56.2386" rx="24.6761" stroke="#F2F2F2" stroke-width="1.14773"/>
<path d="M113.898 132.795C113.652 133.221 113.353 133.751 113.002 134.386C112.658 135.022 112.292 135.735 111.903 136.527C111.515 137.319 111.119 138.171 110.715 139.083C110.312 139.994 109.934 140.936 109.583 141.907C109.232 142.879 108.922 143.865 108.653 144.866C108.391 145.86 108.201 146.839 108.081 147.803H106.109C106.243 146.846 106.449 145.871 106.725 144.877C107.009 143.876 107.327 142.897 107.678 141.941C108.037 140.977 108.414 140.05 108.81 139.161C109.206 138.272 109.591 137.454 109.964 136.707C110.338 135.959 110.678 135.302 110.984 134.734C111.298 134.159 111.548 133.71 111.735 133.389H103.677V131.73H113.898V132.795ZM126.609 147.803H124.771V145.852H124.726C123.874 147.332 122.559 148.072 120.78 148.072C119.338 148.072 118.184 147.56 117.317 146.536C116.458 145.505 116.028 144.104 116.028 142.333C116.028 140.435 116.506 138.915 117.463 137.771C118.419 136.628 119.693 136.056 121.285 136.056C122.861 136.056 124.008 136.677 124.726 137.917H124.771V130.811H126.609V147.803ZM124.771 142.613V140.921C124.771 139.994 124.464 139.21 123.851 138.567C123.239 137.925 122.462 137.603 121.52 137.603C120.399 137.603 119.518 138.014 118.875 138.836C118.232 139.658 117.911 140.794 117.911 142.243C117.911 143.566 118.217 144.612 118.83 145.382C119.45 146.144 120.28 146.525 121.318 146.525C122.342 146.525 123.171 146.155 123.807 145.415C124.449 144.676 124.771 143.742 124.771 142.613ZM143.881 131.73L136.169 150.47H134.454L142.143 131.73H143.881ZM160.693 143.252C160.693 143.977 160.555 144.638 160.278 145.236C160.009 145.826 159.625 146.334 159.124 146.76C158.631 147.179 158.037 147.504 157.342 147.735C156.647 147.967 155.881 148.083 155.044 148.083C153.512 148.083 152.294 147.792 151.39 147.209V145.236C152.474 146.088 153.714 146.514 155.111 146.514C155.672 146.514 156.176 146.443 156.624 146.301C157.08 146.159 157.469 145.953 157.79 145.684C158.119 145.415 158.369 145.09 158.541 144.709C158.72 144.328 158.81 143.899 158.81 143.42C158.81 141.321 157.316 140.271 154.327 140.271H152.993V138.713H154.259C156.905 138.713 158.227 137.726 158.227 135.754C158.227 133.931 157.218 133.019 155.201 133.019C154.065 133.019 153 133.4 152.007 134.162V132.38C153.03 131.767 154.248 131.461 155.661 131.461C156.333 131.461 156.942 131.554 157.487 131.741C158.033 131.928 158.5 132.19 158.888 132.526C159.277 132.862 159.576 133.266 159.785 133.736C160.002 134.207 160.11 134.726 160.11 135.294C160.11 137.409 159.042 138.769 156.905 139.374V139.419C157.45 139.479 157.954 139.613 158.418 139.822C158.881 140.024 159.281 140.289 159.617 140.618C159.953 140.947 160.215 141.336 160.402 141.784C160.596 142.225 160.693 142.714 160.693 143.252ZM173.818 139.699C173.818 141.044 173.695 142.236 173.448 143.275C173.209 144.313 172.858 145.191 172.394 145.909C171.939 146.618 171.375 147.16 170.702 147.534C170.037 147.9 169.279 148.083 168.427 148.083C167.62 148.083 166.899 147.907 166.264 147.556C165.636 147.197 165.105 146.678 164.672 145.998C164.239 145.318 163.91 144.485 163.686 143.499C163.461 142.505 163.349 141.369 163.349 140.091C163.349 138.687 163.465 137.446 163.697 136.37C163.936 135.294 164.283 134.394 164.739 133.669C165.195 132.937 165.759 132.388 166.432 132.021C167.112 131.648 167.889 131.461 168.763 131.461C172.133 131.461 173.818 134.207 173.818 139.699ZM171.935 139.878C171.935 135.306 170.848 133.019 168.673 133.019C166.379 133.019 165.232 135.347 165.232 140.002C165.232 144.343 166.357 146.514 168.606 146.514C170.825 146.514 171.935 144.302 171.935 139.878ZM186.416 147.803H184.578V145.852H184.533C183.681 147.332 182.366 148.072 180.588 148.072C179.146 148.072 177.991 147.56 177.124 146.536C176.265 145.505 175.835 144.104 175.835 142.333C175.835 140.435 176.314 138.915 177.27 137.771C178.226 136.628 179.501 136.056 181.092 136.056C182.669 136.056 183.816 136.677 184.533 137.917H184.578V130.811H186.416V147.803ZM184.578 142.613V140.921C184.578 139.994 184.271 139.21 183.659 138.567C183.046 137.925 182.269 137.603 181.327 137.603C180.207 137.603 179.325 138.014 178.682 138.836C178.04 139.658 177.718 140.794 177.718 142.243C177.718 143.566 178.025 144.612 178.637 145.382C179.258 146.144 180.087 146.525 181.126 146.525C182.149 146.525 182.979 146.155 183.614 145.415C184.257 144.676 184.578 143.742 184.578 142.613ZM203.688 131.73L195.977 150.47H194.262L201.951 131.73H203.688ZM217.934 147.803H216.096V133.916C215.954 134.058 215.744 134.222 215.468 134.409C215.199 134.588 214.892 134.768 214.549 134.947C214.213 135.126 213.854 135.294 213.473 135.451C213.099 135.608 212.733 135.731 212.374 135.821V133.961C212.778 133.848 213.204 133.699 213.652 133.512C214.108 133.318 214.553 133.105 214.986 132.873C215.427 132.634 215.841 132.388 216.23 132.134C216.619 131.872 216.955 131.618 217.239 131.371H217.934V147.803ZM233.188 136.325L227.909 149.641C226.968 152.017 225.645 153.205 223.941 153.205C223.463 153.205 223.063 153.157 222.742 153.059V151.412C223.138 151.546 223.5 151.614 223.829 151.614C224.756 151.614 225.451 151.061 225.914 149.955L226.833 147.78L222.35 136.325H224.39L227.494 145.158C227.532 145.27 227.61 145.561 227.73 146.032H227.797C227.834 145.852 227.909 145.569 228.021 145.18L231.283 136.325H233.188Z" fill="#4A4A4A"/>
</g>
</g>
<rect x="67.5739" y="104.013" width="200.852" height="67.7159" rx="26.9716" stroke="url(#paint0_linear_42_5)" stroke-width="1.14773"/>
</g>
<g filter="url(#filter2_d_42_5)">
<rect x="90.4727" y="45.2949" width="156" height="64" rx="28.4989" fill="url(#paint1_linear_42_5)" shape-rendering="crispEdges"/>
<rect x="87.6228" y="42.445" width="161.7" height="69.6998" rx="31.3488" stroke="white" stroke-width="5.69979" stroke-linecap="round" stroke-linejoin="round" shape-rendering="crispEdges"/>
<path d="M135.535 89.2949H132.947L130.832 83.7009H122.371L120.381 89.2949H117.779L125.432 69.3401H127.854L135.535 89.2949ZM130.066 81.5997L126.935 73.0973C126.833 72.819 126.731 72.3737 126.629 71.7614H126.573C126.481 72.3273 126.374 72.7726 126.253 73.0973L123.15 81.5997H130.066ZM140.461 89.2949H138.179V68.199H140.461V89.2949ZM147.363 89.2949H145.081V68.199H147.363V89.2949ZM171.91 71.4553H166.149V89.2949H163.811V71.4553H158.064V69.3401H171.91V71.4553ZM175.918 71.4274C175.51 71.4274 175.162 71.2883 174.874 71.01C174.586 70.7317 174.443 70.3791 174.443 69.9524C174.443 69.5256 174.586 69.1731 174.874 68.8948C175.162 68.6072 175.51 68.4634 175.918 68.4634C176.335 68.4634 176.688 68.6072 176.975 68.8948C177.272 69.1731 177.421 69.5256 177.421 69.9524C177.421 70.3606 177.272 70.7085 176.975 70.996C176.688 71.2836 176.335 71.4274 175.918 71.4274ZM177.031 89.2949H174.749V75.0455H177.031V89.2949ZM201.884 89.2949H199.602V81.1126C199.602 79.5355 199.356 78.3945 198.864 77.6894C198.382 76.9843 197.566 76.6318 196.415 76.6318C195.441 76.6318 194.611 77.0771 193.924 77.9677C193.247 78.8583 192.909 79.9252 192.909 81.1683V89.2949H190.626V80.8343C190.626 78.0326 189.546 76.6318 187.384 76.6318C186.382 76.6318 185.557 77.0539 184.907 77.8981C184.258 78.7331 183.933 79.8231 183.933 81.1683V89.2949H181.651V75.0455H183.933V77.2998H183.989C185 75.5742 186.475 74.7115 188.414 74.7115C189.388 74.7115 190.237 74.9852 190.96 75.5325C191.684 76.0706 192.18 76.7803 192.449 77.6616C193.507 75.6948 195.084 74.7115 197.181 74.7115C200.316 74.7115 201.884 76.6457 201.884 80.5142V89.2949ZM217.65 82.7407H207.589C207.627 84.3271 208.053 85.5517 208.87 86.4144C209.686 87.2772 210.809 87.7086 212.237 87.7086C213.842 87.7086 215.317 87.1798 216.662 86.1222V88.2652C215.41 89.1743 213.754 89.6289 211.694 89.6289C209.681 89.6289 208.1 88.9841 206.949 87.6946C205.799 86.3959 205.224 84.5729 205.224 82.2259C205.224 80.0086 205.85 78.2043 207.102 76.8127C208.364 75.4119 209.927 74.7115 211.792 74.7115C213.657 74.7115 215.099 75.3145 216.12 76.5205C217.14 77.7265 217.65 79.401 217.65 81.544V82.7407ZM215.312 80.8065C215.303 79.4891 214.983 78.464 214.352 77.7311C213.731 76.9983 212.863 76.6318 211.75 76.6318C210.674 76.6318 209.76 77.0168 209.009 77.7868C208.257 78.5568 207.793 79.5634 207.617 80.8065H215.312Z" fill="white"/>
</g>
<path d="M-18 30L349 30" stroke="#EAEAEA" stroke-dasharray="12 12"/>
<defs>
<filter id="filter0_i_42_5" x="67" y="99.9963" width="202" height="72.307" filterUnits="userSpaceOnUse" color-interpolation-filters="sRGB">
<feFlood flood-opacity="0" result="BackgroundImageFix"/>
<feBlend mode="normal" in="SourceGraphic" in2="BackgroundImageFix" result="shape"/>
<feColorMatrix in="SourceAlpha" type="matrix" values="0 0 0 0 0 0 0 0 0 0 0 0 0 0 0 0 0 0 127 0" result="hardAlpha"/>
<feOffset dy="-3.44318"/>
<feGaussianBlur stdDeviation="6.82898"/>
<feComposite in2="hardAlpha" operator="arithmetic" k2="-1" k3="1"/>
<feColorMatrix type="matrix" values="0 0 0 0 0.471154 0 0 0 0 0.471154 0 0 0 0 0.471154 0 0 0 0.25 0"/>
<feBlend mode="normal" in2="shape" result="effect1_innerShadow_42_5"/>
</filter>
<filter id="filter1_d_42_5" x="69.4099" y="108.145" width="197.18" height="64.043" filterUnits="userSpaceOnUse" color-interpolation-filters="sRGB">
<feFlood flood-opacity="0" result="BackgroundImageFix"/>
<feColorMatrix in="SourceAlpha" type="matrix" values="0 0 0 0 0 0 0 0 0 0 0 0 0 0 0 0 0 0 127 0" result="hardAlpha"/>
<feOffset dy="2.29545"/>
<feGaussianBlur stdDeviation="1.6642"/>
<feComposite in2="hardAlpha" operator="out"/>
<feColorMatrix type="matrix" values="0 0 0 0 0 0 0 0 0 0 0 0 0 0 0 0 0 0 0.1 0"/>
<feBlend mode="normal" in2="BackgroundImageFix" result="effect1_dropShadow_42_5"/>
<feBlend mode="normal" in="SourceGraphic" in2="effect1_dropShadow_42_5" result="shape"/>
</filter>
<filter id="filter2_d_42_5" x="75.5108" y="37.4578" width="185.924" height="93.9237" filterUnits="userSpaceOnUse" color-interpolation-filters="sRGB">
<feFlood flood-opacity="0" result="BackgroundImageFix"/>
<feColorMatrix in="SourceAlpha" type="matrix" values="0 0 0 0 0 0 0 0 0 0 0 0 0 0 0 0 0 0 127 0" result="hardAlpha"/>
<feOffset dy="7.12473"/>
<feGaussianBlur stdDeviation="4.63108"/>
<feComposite in2="hardAlpha" operator="out"/>
<feColorMatrix type="matrix" values="0 0 0 0 0 0 0 0 0 0 0 0 0 0 0 0 0 0 0.11 0"/>
<feBlend mode="normal" in2="BackgroundImageFix" result="effect1_dropShadow_42_5"/>
<feBlend mode="normal" in="SourceGraphic" in2="effect1_dropShadow_42_5" result="shape"/>
</filter>
<linearGradient id="paint0_linear_42_5" x1="168" y1="103.439" x2="168" y2="172.303" gradientUnits="userSpaceOnUse">
<stop stop-color="#EAEAEA"/>
<stop offset="1" stop-color="#D3D3D3"/>
</linearGradient>
<linearGradient id="paint1_linear_42_5" x1="168.913" y1="45.2949" x2="168.913" y2="109.295" gradientUnits="userSpaceOnUse">
<stop stop-color="#73C2FF"/>
<stop offset="1" stop-color="#3EA0EB"/>
</linearGradient>
<clipPath id="clip0_42_5">
<rect x="67" y="103.439" width="202" height="68.8636" rx="27.5455" fill="white"/>
</clipPath>
</defs>
</svg>
