<svg width="637" height="204" viewBox="0 0 637 204" fill="none" xmlns="http://www.w3.org/2000/svg">
<rect x="1" y="1" width="635" height="202" rx="25" fill="white"/>
<rect x="1" y="1" width="635" height="202" rx="25" stroke="#F3F5F5" stroke-width="2"/>
<path d="M274.5 107C262.167 121.667 227.5 182.216 111 151" stroke="#F4F4F4" stroke-width="2"/>
<path d="M359 98.8183C371.333 84.1517 406 23.6023 522.5 54.8184" stroke="#F4F4F4" stroke-width="2"/>
<path d="M280.5 98.8184C268.167 84.1517 233.5 23.6023 117 54.8184" stroke="#F4F4F4" stroke-width="2"/>
<path d="M353 107C365.597 121.717 401.006 182.474 520 151.151" stroke="#F4F4F4" stroke-width="2"/>
<g filter="url(#filter0_f_0_884)">
<ellipse cx="319" cy="101.5" rx="119" ry="40.5" fill="white"/>
</g>
<g clip-path="url(#clip0_0_884)">
<path d="M240.713 93.5146H228.808V124.172L215.121 132.384V101.726L228.806 93.5146H195L203.212 79.8281H248.925L240.713 93.5146Z" fill="#3EA0EB"/>
<path d="M273.003 123.623V91.4984H279.063V123.623H273.003ZM263.148 94.0605V88.345H288.917V94.0605H263.148ZM291.498 123.623V88.345H304.161C306.428 88.345 308.415 88.8213 310.123 89.7739C311.864 90.6936 313.227 91.9747 314.213 93.617C315.198 95.2594 315.691 97.1482 315.691 99.2833C315.691 100.827 315.379 102.256 314.755 103.57C314.163 104.851 313.309 105.984 312.192 106.97C311.076 107.955 309.745 108.727 308.201 109.285C306.658 109.811 304.95 110.074 303.077 110.074H294.849V104.555H304.063C305.114 104.555 306.05 104.325 306.871 103.866C307.725 103.406 308.399 102.782 308.891 101.993C309.384 101.172 309.63 100.252 309.63 99.234C309.63 98.3143 309.417 97.4602 308.99 96.6719C308.596 95.8835 307.988 95.243 307.167 94.7503C306.346 94.2247 305.36 93.9619 304.21 93.9619H297.559V123.623H291.498ZM299.48 107.561L306.477 107.512L317.465 123.278V123.623H310.517L299.48 107.561ZM317.685 123.623L330.939 88.345H337.837L351.141 123.623H344.489L335.867 99.4804L334.586 95.3415H334.241L332.91 99.4804L324.337 123.623H317.685ZM333.994 114.853V109.335H342.173L344.194 114.853H333.994ZM324.386 114.853L326.357 109.335H333.994V114.853H324.386ZM368.569 124.412C365.974 124.412 363.543 123.952 361.276 123.032C359.043 122.08 357.088 120.766 355.413 119.09C353.738 117.415 352.44 115.461 351.521 113.227C350.601 110.993 350.141 108.579 350.141 105.984C350.141 103.389 350.601 100.975 351.521 98.7413C352.44 96.5076 353.738 94.5532 355.413 92.878C357.088 91.2027 359.043 89.9052 361.276 88.9855C363.543 88.0329 365.974 87.5566 368.569 87.5566C370.408 87.5566 372.116 87.7866 373.693 88.2464C375.27 88.6735 376.715 89.314 378.029 90.168C379.376 91.0221 380.591 92.0732 381.675 93.3214L377.438 97.4602C376.682 96.5733 375.861 95.8178 374.974 95.1937C374.12 94.5696 373.151 94.0933 372.067 93.7649C371.016 93.4364 369.85 93.2721 368.569 93.2721C366.302 93.2721 364.233 93.7977 362.36 94.8488C360.488 95.9 358.994 97.3781 357.877 99.2833C356.76 101.156 356.202 103.389 356.202 105.984C356.202 108.546 356.76 110.78 357.877 112.685C358.994 114.59 360.488 116.068 362.36 117.12C364.233 118.171 366.302 118.696 368.569 118.696C370.638 118.696 372.461 118.269 374.038 117.415C375.647 116.561 377.076 115.395 378.324 113.917L382.611 118.006C381.494 119.32 380.213 120.47 378.768 121.455C377.323 122.408 375.746 123.131 374.038 123.623C372.33 124.149 370.507 124.412 368.569 124.412ZM386.019 123.623V88.345H407.896V94.0605H392.079V117.908H407.896V123.623H386.019ZM389.369 108.842V103.126H406.319V108.842H389.369ZM408.693 123.623L421.948 88.345H428.846L442.149 123.623H435.497L426.875 99.4804L425.594 95.3415H425.249L423.918 99.4804L415.345 123.623H408.693ZM425.002 114.853V109.335H433.181L435.202 114.853H425.002ZM415.394 114.853L417.365 109.335H425.002V114.853H415.394Z" fill="#3EA0EB"/>
</g>
<g filter="url(#filter1_i_0_884)">
<g clip-path="url(#clip1_0_884)">
<rect x="513.352" y="19.0488" width="74" height="74" rx="13.2537" transform="rotate(-5.96989 513.352 19.0488)" fill="#FDFDFD"/>
<g filter="url(#filter2_d_0_884)">
<rect x="516.387" y="21.5078" width="68.4776" height="68.4776" rx="12.1493" transform="rotate(-5.96989 516.387 21.5078)" fill="#FEFEFE"/>
<rect x="516.69" y="21.7537" width="67.9254" height="67.9254" rx="11.8731" transform="rotate(-5.96989 516.69 21.7537)" stroke="#F2F2F2" stroke-width="0.552239"/>
<path d="M564.689 67.7508C564.724 68.0907 564.702 68.4089 564.622 68.7053C564.541 69.0017 564.415 69.2637 564.242 69.4912C564.07 69.7187 563.855 69.9048 563.599 70.0495C563.342 70.1909 563.056 70.278 562.742 70.3108C562.393 70.3474 562.071 70.3074 561.777 70.1908C561.487 70.0739 561.23 69.8896 561.008 69.638C560.788 69.3828 560.607 69.0629 560.465 68.6784C560.324 68.294 560.227 67.854 560.175 67.3587C560.112 66.7533 560.121 66.1976 560.202 65.6916C560.286 65.182 560.433 64.7395 560.643 64.3641C560.855 63.9852 561.126 63.6819 561.456 63.4543C561.785 63.2268 562.166 63.0904 562.596 63.0454C563.075 62.9953 563.468 63.0214 563.773 63.1237L563.851 63.8764C563.473 63.7294 563.084 63.6768 562.686 63.7184C562.375 63.7509 562.103 63.8498 561.868 64.0151C561.633 64.1804 561.44 64.4002 561.289 64.6746C561.137 64.9458 561.032 65.2661 560.972 65.6356C560.916 66.0048 560.911 66.4095 560.957 66.8499L560.976 66.8478C561.236 66.2348 561.735 65.8897 562.473 65.8125C562.777 65.7807 563.056 65.8038 563.31 65.8821C563.567 65.9599 563.791 66.0854 563.983 66.2585C564.177 66.428 564.335 66.6389 564.456 66.8913C564.578 67.1438 564.655 67.4302 564.689 67.7508ZM563.883 67.9381C563.858 67.6952 563.804 67.4799 563.723 67.2921C563.641 67.1043 563.535 66.9485 563.404 66.8247C563.276 66.7006 563.125 66.6117 562.949 66.5581C562.773 66.5012 562.578 66.484 562.364 66.5063C562.167 66.527 561.987 66.5833 561.827 66.6754C561.666 66.7674 561.531 66.8847 561.422 67.027C561.312 67.1662 561.23 67.3252 561.177 67.5043C561.127 67.6797 561.112 67.863 561.132 68.054C561.157 68.2936 561.214 68.515 561.304 68.7184C561.394 68.9185 561.508 69.0898 561.648 69.2323C561.787 69.3749 561.945 69.4826 562.123 69.5557C562.304 69.6252 562.498 69.6491 562.705 69.6274C562.906 69.6064 563.085 69.55 563.242 69.4583C563.399 69.3633 563.529 69.2418 563.631 69.0936C563.734 68.9454 563.807 68.7741 563.852 68.5795C563.897 68.3818 563.908 68.1679 563.883 67.9381Z" fill="url(#paint0_linear_0_884)"/>
<path d="M565.115 72.415C565.028 72.6107 564.922 72.8542 564.799 73.1453C564.679 73.436 564.552 73.7618 564.42 74.1226C564.287 74.4834 564.154 74.8704 564.021 75.2837C563.887 75.6969 563.766 76.122 563.658 76.5587C563.55 76.9955 563.46 77.4369 563.389 77.883C563.321 78.3254 563.283 78.7582 563.275 79.1812L562.42 79.2706C562.435 78.8501 562.48 78.4183 562.554 77.9752C562.632 77.5285 562.725 77.09 562.834 76.6596C562.946 76.2258 563.067 75.8072 563.199 75.404C563.33 75.0008 563.46 74.6288 563.588 74.2881C563.716 73.9475 563.833 73.6471 563.94 73.3872C564.05 73.1237 564.138 72.9181 564.205 72.7704L560.713 73.1356L560.638 72.4168L565.067 71.9537L565.115 72.415Z" fill="url(#paint1_linear_0_884)"/>
<path d="M551.649 70.1759C551.626 69.9622 551.573 69.7796 551.488 69.6281C551.407 69.4762 551.303 69.3546 551.175 69.2632C551.051 69.1682 550.908 69.1029 550.747 69.0674C550.587 69.0318 550.416 69.0235 550.234 69.0425C550.079 69.0587 549.929 69.0957 549.784 69.1534C549.64 69.211 549.5 69.2845 549.366 69.3739C549.234 69.4629 549.107 69.5662 548.986 69.6836C548.867 69.8008 548.757 69.9284 548.657 70.0665L548.568 69.2118C548.769 68.9715 549.001 68.7804 549.264 68.6383C549.53 68.4926 549.863 68.3989 550.261 68.3573C550.546 68.3275 550.814 68.342 551.066 68.4008C551.317 68.4563 551.54 68.5541 551.734 68.6941C551.929 68.8342 552.089 69.0155 552.214 69.2381C552.342 69.4603 552.421 69.722 552.453 70.0231C552.482 70.2983 552.475 70.551 552.434 70.7812C552.396 71.011 552.322 71.2314 552.213 71.4424C552.108 71.6531 551.967 71.8593 551.792 72.0609C551.617 72.2625 551.408 72.4709 551.165 72.6861C550.862 72.9534 550.613 73.1808 550.417 73.3683C550.223 73.5554 550.071 73.7284 549.96 73.8873C549.852 74.0426 549.78 74.1958 549.743 74.3469C549.71 74.4945 549.703 74.6621 549.722 74.8499L553.19 74.4873L553.264 75.2012L548.966 75.6506L548.93 75.3058C548.899 75.008 548.904 74.7423 548.945 74.5089C548.986 74.2755 549.071 74.0491 549.198 73.8295C549.326 73.61 549.499 73.3857 549.717 73.1567C549.938 72.9273 550.211 72.6665 550.534 72.3741C550.767 72.1664 550.959 71.9712 551.11 71.7885C551.265 71.6054 551.385 71.4259 551.471 71.25C551.558 71.074 551.613 70.8997 551.638 70.7269C551.665 70.5506 551.669 70.3669 551.649 70.1759ZM557.198 67.7497L557.679 72.3486L558.573 72.2552L558.649 72.9836L557.755 73.0771L557.926 74.7136L557.14 74.7959L556.968 73.1593L553.695 73.5016L553.623 72.812C553.892 72.437 554.161 72.039 554.431 71.618C554.701 71.1938 554.956 70.7662 555.195 70.3353C555.438 69.904 555.659 69.4768 555.857 69.0535C556.057 68.6266 556.221 68.2216 556.348 67.8385L557.198 67.7497ZM554.518 72.6792L556.892 72.4309L556.536 69.0217C556.337 69.4713 556.147 69.8741 555.965 70.2302C555.783 70.5864 555.607 70.9108 555.438 71.2034C555.273 71.4956 555.112 71.7612 554.957 71.9999C554.802 72.2387 554.656 72.4651 554.518 72.6792Z" fill="url(#paint2_linear_0_884)"/>
<g filter="url(#filter3_f_0_884)">
<rect x="554.938" y="60.9512" width="13" height="8" transform="rotate(-5.96989 554.938 60.9512)" fill="#FEFEFE"/>
</g>
<g filter="url(#filter4_f_0_884)">
<rect x="556.496" y="75.8691" width="13" height="8" transform="rotate(-5.96989 556.496 75.8691)" fill="#FCFCFC"/>
</g>
<path d="M559.219 40.3935L562.402 40.0606L564.732 62.3392L545.636 64.3361L543.306 42.0575L546.489 41.7247L546.322 40.1334C546.234 39.2893 546.485 38.4447 547.019 37.7855C547.553 37.1262 548.328 36.7062 549.172 36.6179L555.537 35.9523C556.381 35.864 557.226 36.1147 557.885 36.6491C558.545 37.1836 558.964 37.958 559.053 38.8021L559.219 40.3935ZM563.993 39.8942L565.584 39.7278C566.429 39.6395 567.273 39.8902 567.932 40.4247C568.592 40.9591 569.012 41.7336 569.1 42.5776L570.764 58.4909C570.852 59.335 570.602 60.1795 570.067 60.8388C569.533 61.4981 568.758 61.9181 567.914 62.0063L566.323 62.1727L563.993 39.8942ZM541.715 42.224L544.044 64.5025L542.453 64.6689C541.609 64.7572 540.764 64.5065 540.105 63.972C539.446 63.4376 539.026 62.6632 538.938 61.8191L537.273 45.9058C537.09 44.1554 538.373 42.5734 540.123 42.3904L541.715 42.224ZM549.505 39.8006L549.671 41.3919L556.037 40.7263L555.87 39.135L549.505 39.8006Z" fill="url(#paint3_linear_0_884)"/>
</g>
</g>
<rect x="513.655" y="19.2947" width="73.4478" height="73.4478" rx="12.9776" transform="rotate(-5.96989 513.655 19.2947)" stroke="url(#paint4_linear_0_884)" stroke-width="0.552239"/>
</g>
<g filter="url(#filter5_i_0_884)">
<g clip-path="url(#clip2_0_884)">
<rect x="42.625" y="18.7168" width="74" height="74" rx="13.2537" transform="rotate(-5.49947 42.625 18.7168)" fill="#FDFDFD"/>
<g filter="url(#filter6_d_0_884)">
<rect x="45.6367" y="21.2012" width="68.4776" height="68.4776" rx="12.1493" transform="rotate(-5.49947 45.6367 21.2012)" fill="#FEFEFE"/>
<rect x="45.938" y="21.4496" width="67.9254" height="67.9254" rx="11.8731" transform="rotate(-5.49947 45.938 21.4496)" stroke="#F2F2F2" stroke-width="0.552239"/>
<path d="M62.7812 35.3867L63.3777 41.5812C66.8943 41.6807 69.9038 42.9124 72.8026 44.3749L71.0281 46.1204L79.3319 49.3947L76.3223 40.9113L74.465 42.7383C72.5926 39.7784 70.5563 37.0139 67.9989 34.8844L62.7812 35.3867ZM84.3515 33.3099C83.3519 35.6638 82.5154 38.0488 81.7625 40.4782L79.3668 40.2061L82.2245 48.7411L86.7469 41.0457L84.3986 40.7789C86.7273 37.8275 89.1477 35.0008 92.0892 32.565L84.3515 33.3099ZM100.413 39.129C97.4772 39.6065 94.9579 41.1986 92.5514 43.0965L91.3381 40.6601L85.7323 47.7019L94.6493 47.3093L93.3601 44.7207C95.8603 44.4067 98.388 44.3801 101.041 45.6588L100.413 39.129ZM86.2826 50.5381C85.8729 50.5869 85.5067 50.8024 85.0372 51.4111L84.579 52.0021L83.9989 51.5305C83.3699 51.0197 82.9016 50.907 82.444 50.9715C81.9865 51.0359 81.4696 51.3295 80.9124 51.8768L80.4665 52.3145L79.967 51.9408C79.2146 51.3813 78.6069 51.2525 78.0447 51.3361C77.6356 51.397 77.2238 51.593 76.8241 51.9049L80.5617 57.3285C81.8343 57.9479 84.3166 57.9879 85.9235 56.9742L88.4534 50.9741C87.8465 50.7923 87.298 50.5986 86.8354 50.5487C86.6678 50.5305 86.513 50.5204 86.365 50.5301C86.3375 50.5321 86.31 50.5347 86.2826 50.5381ZM80.0062 58.692C78.6991 59.8179 77.7375 61.6353 77.5423 64.1803C77.3533 66.647 78.1769 68.2213 79.4629 69.2245C80.7489 70.2277 82.5731 70.6311 84.3671 70.4348C86.1612 70.2385 87.8926 69.4431 88.9876 68.1898C90.0827 66.9363 90.6082 65.2533 89.999 62.976C89.3693 60.6227 88.1777 59.0585 86.7751 58.1774C84.6729 59.5615 81.8796 59.5793 80.0062 58.6918L80.0062 58.692Z" fill="url(#paint5_linear_0_884)"/>
</g>
</g>
<rect x="42.9263" y="18.9652" width="73.4478" height="73.4478" rx="12.9776" transform="rotate(-5.49947 42.9263 18.9652)" stroke="url(#paint6_linear_0_884)" stroke-width="0.552239"/>
</g>
<g filter="url(#filter7_i_0_884)">
<g clip-path="url(#clip3_0_884)">
<rect x="520.336" y="111.939" width="74" height="74" rx="13.2537" transform="rotate(4.95856 520.336 111.939)" fill="#FDFDFD"/>
<g filter="url(#filter8_d_0_884)">
<rect x="522.848" y="114.93" width="68.4776" height="68.4776" rx="12.1493" transform="rotate(4.95856 522.848 114.93)" fill="#FEFEFE"/>
<rect x="523.099" y="115.229" width="67.9254" height="67.9254" rx="11.8731" transform="rotate(4.95856 523.099 115.229)" stroke="#F2F2F2" stroke-width="0.552239"/>
<path d="M550.68 138.161L550.939 135.172L559.905 135.95L559.646 138.939L550.68 138.161ZM552.242 154.859L555.231 155.118L556.009 146.152L553.02 145.892L552.242 154.859ZM552.699 166.944C550.856 166.784 549.15 166.278 547.579 165.427C546.009 164.576 544.667 163.487 543.554 162.16C542.44 160.833 541.599 159.323 541.03 157.631C540.461 155.938 540.257 154.17 540.417 152.327C540.577 150.484 541.083 148.777 541.935 147.207C542.786 145.637 543.875 144.295 545.2 143.181C546.525 142.068 548.035 141.227 549.73 140.658C551.424 140.089 553.192 139.885 555.033 140.045C556.577 140.179 558.038 140.556 559.414 141.177C560.791 141.799 562.06 142.637 563.224 143.691L565.497 141.781L567.408 144.054L565.134 145.965C565.973 147.292 566.579 148.687 566.954 150.15C567.329 151.613 567.45 153.117 567.316 154.661C567.156 156.504 566.65 158.211 565.798 159.781C564.946 161.351 563.858 162.693 562.532 163.807C561.207 164.92 559.697 165.762 558.003 166.332C556.308 166.901 554.54 167.105 552.699 166.944Z" fill="url(#paint7_linear_0_884)"/>
</g>
</g>
<rect x="520.587" y="112.238" width="73.4478" height="73.4478" rx="12.9776" transform="rotate(4.95856 520.587 112.238)" stroke="url(#paint8_linear_0_884)" stroke-width="0.552239"/>
</g>
<g filter="url(#filter9_i_0_884)">
<g clip-path="url(#clip4_0_884)">
<rect x="48.9141" y="112.299" width="74" height="74" rx="13.2537" transform="rotate(4.35246 48.9141 112.299)" fill="#FDFDFD"/>
<g filter="url(#filter10_d_0_884)">
<rect x="51.457" y="115.262" width="68.4776" height="68.4776" rx="12.1493" transform="rotate(4.35246 51.457 115.262)" fill="#FEFEFE"/>
<rect x="51.7114" y="115.558" width="67.9254" height="67.9254" rx="11.8731" transform="rotate(4.35246 51.7114 115.558)" stroke="#F2F2F2" stroke-width="0.552239"/>
<path d="M75.2947 150.95C73.6353 150.64 72.3942 149.864 71.5714 148.621C70.7594 147.38 70.5197 145.871 70.8522 144.092C71.2151 142.151 72.0398 140.711 73.3264 139.773C74.6238 138.837 76.1727 138.537 77.9731 138.874C79.6976 139.196 80.9461 139.963 81.7188 141.173C82.5023 142.386 82.7197 143.925 82.3709 145.791C82.0121 147.71 81.1904 149.134 79.9058 150.061C78.6213 150.988 77.0842 151.285 75.2947 150.95ZM77.3403 141.719C75.7568 141.423 74.7593 142.375 74.3477 144.577C73.9585 146.659 74.5176 147.842 76.0252 148.123C77.5652 148.411 78.538 147.471 78.9435 145.302C79.3388 143.187 78.8044 141.992 77.3403 141.719ZM94.5386 142.307L74.983 162.795L71.0135 162.053L90.5365 141.559L94.5386 142.307ZM87.6115 165.493C85.9521 165.183 84.711 164.406 83.8882 163.164C83.0762 161.923 82.8365 160.414 83.1689 158.635C83.5318 156.694 84.3566 155.254 85.6432 154.316C86.9406 153.38 88.4895 153.08 90.2899 153.416C92.0252 153.741 93.2802 154.503 94.0548 155.703C94.8295 156.903 95.0425 158.436 94.6938 160.301C94.3349 162.221 93.5122 163.65 92.2256 164.588C90.9391 165.526 89.401 165.827 87.6115 165.493ZM89.6082 156.252C88.0356 155.958 87.0435 156.912 86.632 159.114C86.2427 161.196 86.8127 162.38 88.3419 162.666C89.882 162.954 90.8548 162.013 91.2603 159.844C91.4488 158.836 91.3887 158.016 91.08 157.386C90.7712 156.756 90.2807 156.378 89.6082 156.252Z" fill="url(#paint9_linear_0_884)"/>
</g>
</g>
<rect x="49.1684" y="112.595" width="73.4478" height="73.4478" rx="12.9776" transform="rotate(4.35246 49.1684 112.595)" stroke="url(#paint10_linear_0_884)" stroke-width="0.552239"/>
</g>
<defs>
<filter id="filter0_f_0_884" x="185.3" y="46.3" width="267.4" height="110.4" filterUnits="userSpaceOnUse" color-interpolation-filters="sRGB">
<feFlood flood-opacity="0" result="BackgroundImageFix"/>
<feBlend mode="normal" in="SourceGraphic" in2="BackgroundImageFix" result="shape"/>
<feGaussianBlur stdDeviation="7.35" result="effect1_foregroundBlur_0_884"/>
</filter>
<filter id="filter1_i_0_884" x="513.352" y="9.6957" width="81.2952" height="82.9518" filterUnits="userSpaceOnUse" color-interpolation-filters="sRGB">
<feFlood flood-opacity="0" result="BackgroundImageFix"/>
<feBlend mode="normal" in="SourceGraphic" in2="BackgroundImageFix" result="shape"/>
<feColorMatrix in="SourceAlpha" type="matrix" values="0 0 0 0 0 0 0 0 0 0 0 0 0 0 0 0 0 0 127 0" result="hardAlpha"/>
<feOffset dy="-1.65672"/>
<feGaussianBlur stdDeviation="3.28582"/>
<feComposite in2="hardAlpha" operator="arithmetic" k2="-1" k3="1"/>
<feColorMatrix type="matrix" values="0 0 0 0 0.471154 0 0 0 0 0.471154 0 0 0 0 0.471154 0 0 0 0.25 0"/>
<feBlend mode="normal" in2="shape" result="effect1_innerShadow_0_884"/>
</filter>
<filter id="filter2_d_0_884" x="514.785" y="13.8887" width="78.4313" height="78.4313" filterUnits="userSpaceOnUse" color-interpolation-filters="sRGB">
<feFlood flood-opacity="0" result="BackgroundImageFix"/>
<feColorMatrix in="SourceAlpha" type="matrix" values="0 0 0 0 0 0 0 0 0 0 0 0 0 0 0 0 0 0 127 0" result="hardAlpha"/>
<feOffset dy="1.10448"/>
<feGaussianBlur stdDeviation="0.800746"/>
<feComposite in2="hardAlpha" operator="out"/>
<feColorMatrix type="matrix" values="0 0 0 0 0 0 0 0 0 0 0 0 0 0 0 0 0 0 0.15 0"/>
<feBlend mode="normal" in2="BackgroundImageFix" result="effect1_dropShadow_0_884"/>
<feBlend mode="normal" in="SourceGraphic" in2="effect1_dropShadow_0_884" result="shape"/>
</filter>
<filter id="filter3_f_0_884" x="550.938" y="55.5991" width="21.7615" height="17.3087" filterUnits="userSpaceOnUse" color-interpolation-filters="sRGB">
<feFlood flood-opacity="0" result="BackgroundImageFix"/>
<feBlend mode="normal" in="SourceGraphic" in2="BackgroundImageFix" result="shape"/>
<feGaussianBlur stdDeviation="2" result="effect1_foregroundBlur_0_884"/>
</filter>
<filter id="filter4_f_0_884" x="552.496" y="70.5171" width="21.7615" height="17.3087" filterUnits="userSpaceOnUse" color-interpolation-filters="sRGB">
<feFlood flood-opacity="0" result="BackgroundImageFix"/>
<feBlend mode="normal" in="SourceGraphic" in2="BackgroundImageFix" result="shape"/>
<feGaussianBlur stdDeviation="2" result="effect1_foregroundBlur_0_884"/>
</filter>
<filter id="filter5_i_0_884" x="42.625" y="9.96816" width="80.7512" height="82.4081" filterUnits="userSpaceOnUse" color-interpolation-filters="sRGB">
<feFlood flood-opacity="0" result="BackgroundImageFix"/>
<feBlend mode="normal" in="SourceGraphic" in2="BackgroundImageFix" result="shape"/>
<feColorMatrix in="SourceAlpha" type="matrix" values="0 0 0 0 0 0 0 0 0 0 0 0 0 0 0 0 0 0 127 0" result="hardAlpha"/>
<feOffset dy="-1.65672"/>
<feGaussianBlur stdDeviation="3.28582"/>
<feComposite in2="hardAlpha" operator="arithmetic" k2="-1" k3="1"/>
<feColorMatrix type="matrix" values="0 0 0 0 0.471154 0 0 0 0 0.471154 0 0 0 0 0.471154 0 0 0 0.25 0"/>
<feBlend mode="normal" in2="shape" result="effect1_innerShadow_0_884"/>
</filter>
<filter id="filter6_d_0_884" x="44.0352" y="14.1415" width="77.9281" height="77.9281" filterUnits="userSpaceOnUse" color-interpolation-filters="sRGB">
<feFlood flood-opacity="0" result="BackgroundImageFix"/>
<feColorMatrix in="SourceAlpha" type="matrix" values="0 0 0 0 0 0 0 0 0 0 0 0 0 0 0 0 0 0 127 0" result="hardAlpha"/>
<feOffset dy="1.10448"/>
<feGaussianBlur stdDeviation="0.800746"/>
<feComposite in2="hardAlpha" operator="out"/>
<feColorMatrix type="matrix" values="0 0 0 0 0 0 0 0 0 0 0 0 0 0 0 0 0 0 0.15 0"/>
<feBlend mode="normal" in2="BackgroundImageFix" result="effect1_dropShadow_0_884"/>
<feBlend mode="normal" in="SourceGraphic" in2="effect1_dropShadow_0_884" result="shape"/>
</filter>
<filter id="filter7_i_0_884" x="513.94" y="110.283" width="80.1194" height="81.776" filterUnits="userSpaceOnUse" color-interpolation-filters="sRGB">
<feFlood flood-opacity="0" result="BackgroundImageFix"/>
<feBlend mode="normal" in="SourceGraphic" in2="BackgroundImageFix" result="shape"/>
<feColorMatrix in="SourceAlpha" type="matrix" values="0 0 0 0 0 0 0 0 0 0 0 0 0 0 0 0 0 0 127 0" result="hardAlpha"/>
<feOffset dy="-1.65672"/>
<feGaussianBlur stdDeviation="3.28582"/>
<feComposite in2="hardAlpha" operator="arithmetic" k2="-1" k3="1"/>
<feColorMatrix type="matrix" values="0 0 0 0 0.471154 0 0 0 0 0.471154 0 0 0 0 0.471154 0 0 0 0.25 0"/>
<feBlend mode="normal" in2="shape" result="effect1_innerShadow_0_884"/>
</filter>
<filter id="filter8_d_0_884" x="515.327" y="114.433" width="77.3434" height="77.3432" filterUnits="userSpaceOnUse" color-interpolation-filters="sRGB">
<feFlood flood-opacity="0" result="BackgroundImageFix"/>
<feColorMatrix in="SourceAlpha" type="matrix" values="0 0 0 0 0 0 0 0 0 0 0 0 0 0 0 0 0 0 127 0" result="hardAlpha"/>
<feOffset dy="1.10448"/>
<feGaussianBlur stdDeviation="0.800746"/>
<feComposite in2="hardAlpha" operator="out"/>
<feColorMatrix type="matrix" values="0 0 0 0 0 0 0 0 0 0 0 0 0 0 0 0 0 0 0.15 0"/>
<feBlend mode="normal" in2="BackgroundImageFix" result="effect1_dropShadow_0_884"/>
<feBlend mode="normal" in="SourceGraphic" in2="effect1_dropShadow_0_884" result="shape"/>
</filter>
<filter id="filter9_i_0_884" x="43.2981" y="110.642" width="79.4026" height="81.0593" filterUnits="userSpaceOnUse" color-interpolation-filters="sRGB">
<feFlood flood-opacity="0" result="BackgroundImageFix"/>
<feBlend mode="normal" in="SourceGraphic" in2="BackgroundImageFix" result="shape"/>
<feColorMatrix in="SourceAlpha" type="matrix" values="0 0 0 0 0 0 0 0 0 0 0 0 0 0 0 0 0 0 127 0" result="hardAlpha"/>
<feOffset dy="-1.65672"/>
<feGaussianBlur stdDeviation="3.28582"/>
<feComposite in2="hardAlpha" operator="arithmetic" k2="-1" k3="1"/>
<feColorMatrix type="matrix" values="0 0 0 0 0.471154 0 0 0 0 0.471154 0 0 0 0 0.471154 0 0 0 0.25 0"/>
<feBlend mode="normal" in2="shape" result="effect1_innerShadow_0_884"/>
</filter>
<filter id="filter10_d_0_884" x="44.6588" y="114.765" width="76.6798" height="76.68" filterUnits="userSpaceOnUse" color-interpolation-filters="sRGB">
<feFlood flood-opacity="0" result="BackgroundImageFix"/>
<feColorMatrix in="SourceAlpha" type="matrix" values="0 0 0 0 0 0 0 0 0 0 0 0 0 0 0 0 0 0 127 0" result="hardAlpha"/>
<feOffset dy="1.10448"/>
<feGaussianBlur stdDeviation="0.800746"/>
<feComposite in2="hardAlpha" operator="out"/>
<feColorMatrix type="matrix" values="0 0 0 0 0 0 0 0 0 0 0 0 0 0 0 0 0 0 0.15 0"/>
<feBlend mode="normal" in2="BackgroundImageFix" result="effect1_dropShadow_0_884"/>
<feBlend mode="normal" in="SourceGraphic" in2="effect1_dropShadow_0_884" result="shape"/>
</filter>
<linearGradient id="paint0_linear_0_884" x1="561.813" y1="59.2253" x2="563.269" y2="73.1494" gradientUnits="userSpaceOnUse">
<stop stop-color="#0485E7"/>
<stop offset="1" stop-color="#A8D9FF"/>
</linearGradient>
<linearGradient id="paint1_linear_0_884" x1="562.747" y1="68.1765" x2="564.203" y2="82.1005" gradientUnits="userSpaceOnUse">
<stop stop-color="#0485E7"/>
<stop offset="1" stop-color="#A8D9FF"/>
</linearGradient>
<linearGradient id="paint2_linear_0_884" x1="552.794" y1="64.1904" x2="554.25" y2="78.1144" gradientUnits="userSpaceOnUse">
<stop stop-color="#0485E7"/>
<stop offset="1" stop-color="#A8D9FF"/>
</linearGradient>
<linearGradient id="paint3_linear_0_884" x1="552.445" y1="36.2757" x2="555.273" y2="63.3282" gradientUnits="userSpaceOnUse">
<stop stop-color="#0485E7"/>
<stop offset="1" stop-color="#A8D9FF"/>
</linearGradient>
<linearGradient id="paint4_linear_0_884" x1="550.352" y1="19.0488" x2="550.352" y2="93.0488" gradientUnits="userSpaceOnUse">
<stop stop-color="#EAEAEA"/>
<stop offset="1" stop-color="#D3D3D3"/>
</linearGradient>
<linearGradient id="paint5_linear_0_884" x1="81.35" y1="33.5989" x2="84.8918" y2="70.385" gradientUnits="userSpaceOnUse">
<stop stop-color="#0485E7"/>
<stop offset="1" stop-color="#A8D9FF"/>
</linearGradient>
<linearGradient id="paint6_linear_0_884" x1="79.625" y1="18.7168" x2="79.625" y2="92.7168" gradientUnits="userSpaceOnUse">
<stop stop-color="#EAEAEA"/>
<stop offset="1" stop-color="#D3D3D3"/>
</linearGradient>
<linearGradient id="paint7_linear_0_884" x1="555.498" y1="135.568" x2="552.775" y2="166.95" gradientUnits="userSpaceOnUse">
<stop stop-color="#0485E7"/>
<stop offset="1" stop-color="#A8D9FF"/>
</linearGradient>
<linearGradient id="paint8_linear_0_884" x1="557.336" y1="111.939" x2="557.336" y2="185.939" gradientUnits="userSpaceOnUse">
<stop stop-color="#EAEAEA"/>
<stop offset="1" stop-color="#D3D3D3"/>
</linearGradient>
<linearGradient id="paint9_linear_0_884" x1="85.0907" y1="140.204" x2="80.6081" y2="164.184" gradientUnits="userSpaceOnUse">
<stop stop-color="#0485E7"/>
<stop offset="1" stop-color="#A8D9FF"/>
</linearGradient>
<linearGradient id="paint10_linear_0_884" x1="85.9141" y1="112.299" x2="85.9141" y2="186.299" gradientUnits="userSpaceOnUse">
<stop stop-color="#EAEAEA"/>
<stop offset="1" stop-color="#D3D3D3"/>
</linearGradient>
<clipPath id="clip0_0_884">
<rect width="248" height="60.7682" fill="white" transform="translate(195 71.6152)"/>
</clipPath>
<clipPath id="clip1_0_884">
<rect x="513.352" y="19.0488" width="74" height="74" rx="13.2537" transform="rotate(-5.96989 513.352 19.0488)" fill="white"/>
</clipPath>
<clipPath id="clip2_0_884">
<rect x="42.625" y="18.7168" width="74" height="74" rx="13.2537" transform="rotate(-5.49947 42.625 18.7168)" fill="white"/>
</clipPath>
<clipPath id="clip3_0_884">
<rect x="520.336" y="111.939" width="74" height="74" rx="13.2537" transform="rotate(4.95856 520.336 111.939)" fill="white"/>
</clipPath>
<clipPath id="clip4_0_884">
<rect x="48.9141" y="112.299" width="74" height="74" rx="13.2537" transform="rotate(4.35246 48.9141 112.299)" fill="white"/>
</clipPath>
</defs>
</svg>
