<svg width="396" height="204" viewBox="0 0 396 204" fill="none" xmlns="http://www.w3.org/2000/svg">
<rect x="1" y="1" width="394" height="202" rx="25" fill="white"/>
<rect x="1" y="1" width="394" height="202" rx="25" stroke="#F3F5F5" stroke-width="2"/>
<g opacity="0.72" filter="url(#filter0_i_0_861)">
<rect x="108" y="12" width="180" height="52" rx="15.5769" fill="#FEFEFF"/>
<rect x="108.5" y="12.5" width="179" height="51" rx="15.0769" stroke="#EBEBEB"/>
<g filter="url(#filter1_d_0_861)">
<g clip-path="url(#clip0_0_861)">
<rect x="113.192" y="17.2307" width="41.5385" height="41.5385" rx="10.3846" fill="#FEFEFE"/>
<g filter="url(#filter2_d_0_861)">
<mask id="path-6-outside-1_0_861" maskUnits="userSpaceOnUse" x="115.251" y="21.02" width="38" height="35" fill="black">
<rect fill="white" x="115.251" y="21.02" width="38" height="35"/>
<path fill-rule="evenodd" clip-rule="evenodd" d="M140.729 25.0962C141.32 24.9861 141.929 24.9952 142.517 25.1245C143.105 25.2539 143.661 25.5009 144.15 25.8491C144.64 26.1973 145.054 26.6399 145.366 27.1509C145.679 27.6618 145.884 28.2302 145.969 28.8218C145.718 28.79 145.465 28.7748 145.213 28.7749H127.637C126.671 29.0119 126.798 30.3823 127.94 30.3823C127.955 30.3823 127.97 30.3838 127.984 30.3843H145.213C146.36 30.3856 147.459 30.8384 148.271 31.6431C149.082 32.4477 149.538 33.5384 149.539 34.6763V47.5542C149.538 48.6922 149.082 49.7837 148.271 50.5884C147.459 51.3928 146.36 51.8448 145.213 51.8462H123.578C122.431 51.8449 121.331 51.393 120.52 50.5884C119.708 49.7837 119.252 48.6922 119.251 47.5542V34.6763C119.251 34.4973 119.264 34.3197 119.286 34.144V32.5288C119.286 31.1141 120.055 28.7675 122.692 28.1567C122.766 28.1389 122.84 28.1231 122.915 28.1089H122.924C123.164 28.0644 123.404 28.0248 123.641 27.9888L140.729 25.0962ZM142.829 39.1323C142.434 38.9699 141.999 38.9275 141.579 39.0103C141.159 39.0931 140.774 39.298 140.472 39.5981C140.169 39.8983 139.962 40.2805 139.879 40.6968C139.795 41.113 139.838 41.5449 140.002 41.937C140.166 42.329 140.443 42.6641 140.799 42.8999C141.155 43.1357 141.573 43.2612 142.001 43.2612C142.575 43.2612 143.126 43.0358 143.531 42.6333C143.937 42.2309 144.165 41.6848 144.165 41.1157C144.165 40.6913 144.037 40.2762 143.8 39.9233C143.562 39.5704 143.224 39.2948 142.829 39.1323Z"/>
</mask>
<path fill-rule="evenodd" clip-rule="evenodd" d="M140.729 25.0962C141.32 24.9861 141.929 24.9952 142.517 25.1245C143.105 25.2539 143.661 25.5009 144.15 25.8491C144.64 26.1973 145.054 26.6399 145.366 27.1509C145.679 27.6618 145.884 28.2302 145.969 28.8218C145.718 28.79 145.465 28.7748 145.213 28.7749H127.637C126.671 29.0119 126.798 30.3823 127.94 30.3823C127.955 30.3823 127.97 30.3838 127.984 30.3843H145.213C146.36 30.3856 147.459 30.8384 148.271 31.6431C149.082 32.4477 149.538 33.5384 149.539 34.6763V47.5542C149.538 48.6922 149.082 49.7837 148.271 50.5884C147.459 51.3928 146.36 51.8448 145.213 51.8462H123.578C122.431 51.8449 121.331 51.393 120.52 50.5884C119.708 49.7837 119.252 48.6922 119.251 47.5542V34.6763C119.251 34.4973 119.264 34.3197 119.286 34.144V32.5288C119.286 31.1141 120.055 28.7675 122.692 28.1567C122.766 28.1389 122.84 28.1231 122.915 28.1089H122.924C123.164 28.0644 123.404 28.0248 123.641 27.9888L140.729 25.0962ZM142.829 39.1323C142.434 38.9699 141.999 38.9275 141.579 39.0103C141.159 39.0931 140.774 39.298 140.472 39.5981C140.169 39.8983 139.962 40.2805 139.879 40.6968C139.795 41.113 139.838 41.5449 140.002 41.937C140.166 42.329 140.443 42.6641 140.799 42.8999C141.155 43.1357 141.573 43.2612 142.001 43.2612C142.575 43.2612 143.126 43.0358 143.531 42.6333C143.937 42.2309 144.165 41.6848 144.165 41.1157C144.165 40.6913 144.037 40.2762 143.8 39.9233C143.562 39.5704 143.224 39.2948 142.829 39.1323Z" fill="url(#paint0_linear_0_861)"/>
<path d="M140.729 25.0962L141.306 28.5092L141.334 28.5045L141.362 28.4993L140.729 25.0962ZM142.517 25.1245L143.26 21.7438L143.26 21.7438L142.517 25.1245ZM144.15 25.8491L146.157 23.0282L146.156 23.0281L144.15 25.8491ZM145.366 27.1509L148.32 25.3453L148.32 25.3453L145.366 27.1509ZM145.969 28.8218L145.533 32.2558L150.041 32.8274L149.395 28.3295L145.969 28.8218ZM145.213 28.7749V32.2364H145.214L145.213 28.7749ZM127.637 28.7749V25.3134H127.218L126.812 25.413L127.637 28.7749ZM127.94 30.3823L127.941 26.9208H127.94V30.3823ZM127.984 30.3843L127.875 33.8441L127.929 33.8458H127.984V30.3843ZM145.213 30.3843L145.217 26.9227H145.213V30.3843ZM148.271 31.6431L150.708 29.1856L150.708 29.1856L148.271 31.6431ZM149.539 34.6763H153.001L153.001 34.6722L149.539 34.6763ZM149.539 47.5542L153.001 47.5581V47.5542H149.539ZM148.271 50.5884L150.708 53.0461L150.708 53.0458L148.271 50.5884ZM145.213 51.8462V55.3077L145.217 55.3077L145.213 51.8462ZM123.578 51.8462L123.574 55.3077H123.578V51.8462ZM120.52 50.5884L118.082 53.0458L118.082 53.0459L120.52 50.5884ZM119.251 47.5542H115.789L115.789 47.5581L119.251 47.5542ZM119.251 34.6763L115.789 34.6722V34.6763H119.251ZM119.286 34.144L122.72 34.5803L122.748 34.3631V34.144H119.286ZM119.286 32.5288L115.825 32.5288V32.5288H119.286ZM122.692 28.1567L123.473 31.529L123.491 31.5249L123.509 31.5205L122.692 28.1567ZM122.915 28.1089V24.6473H122.59L122.27 24.708L122.915 28.1089ZM122.924 28.1089V31.5704H123.242L123.555 31.5123L122.924 28.1089ZM123.641 27.9888L124.161 31.411L124.19 31.4066L124.218 31.4018L123.641 27.9888ZM142.829 39.1323L144.145 35.9306L144.145 35.9305L142.829 39.1323ZM141.579 39.0103L140.909 35.6142L140.909 35.6142L141.579 39.0103ZM140.472 39.5981L138.034 37.1407L138.034 37.1407L140.472 39.5981ZM139.879 40.6968L136.485 40.0163L136.485 40.0166L139.879 40.6968ZM140.002 41.937L136.808 43.2707L136.808 43.271L140.002 41.937ZM140.799 42.8999L138.886 45.7849L138.886 45.7851L140.799 42.8999ZM142.001 43.2612L142.001 46.7228H142.001V43.2612ZM143.531 42.6333L145.969 45.0907L145.969 45.0907L143.531 42.6333ZM144.165 41.1157L147.627 41.1163V41.1157H144.165ZM143.8 39.9233L146.671 37.9899L146.671 37.9896L143.8 39.9233ZM140.729 25.0962L141.362 28.4993C141.501 28.4735 141.641 28.4762 141.773 28.5053L142.517 25.1245L143.26 21.7438C142.216 21.5142 141.14 21.4987 140.095 21.693L140.729 25.0962ZM142.517 25.1245L141.773 28.5052C141.906 28.5344 142.033 28.5906 142.144 28.6701L144.15 25.8491L146.156 23.0281C145.289 22.4112 144.304 21.9734 143.26 21.7438L142.517 25.1245ZM144.15 25.8491L142.144 28.67C142.256 28.7492 142.346 28.8474 142.413 28.9565L145.366 27.1509L148.32 25.3453C147.761 24.4324 147.024 23.6454 146.157 23.0282L144.15 25.8491ZM145.366 27.1509L142.413 28.9564C142.481 29.0682 142.525 29.19 142.542 29.314L145.969 28.8218L149.395 28.3295C149.243 27.2704 148.876 26.2555 148.32 25.3453L145.366 27.1509ZM145.969 28.8218L146.404 25.3877C146.002 25.3367 145.603 25.3133 145.212 25.3134L145.213 28.7749L145.214 32.2364C145.328 32.2364 145.434 32.2433 145.533 32.2558L145.969 28.8218ZM145.213 28.7749V25.3134H127.637V28.7749V32.2364H145.213V28.7749ZM127.637 28.7749L126.812 25.413C124.52 25.9751 123.274 28.1075 123.572 30.1632C123.885 32.3301 125.744 33.8439 127.94 33.8439V30.3823V26.9208C128.37 26.9208 128.962 27.0616 129.5 27.5129C130.021 27.9496 130.334 28.551 130.424 29.1718C130.613 30.4829 129.787 31.8117 128.461 32.1368L127.637 28.7749ZM127.94 30.3823L127.939 33.8439C127.887 33.8438 127.843 33.8425 127.814 33.8414C127.785 33.8402 127.764 33.8389 127.759 33.8387C127.758 33.8386 127.755 33.8384 127.76 33.8387C127.762 33.8389 127.77 33.8393 127.779 33.8398C127.796 33.8408 127.831 33.8427 127.875 33.8441L127.984 30.3843L128.094 26.9245C128.131 26.9256 128.158 26.9272 128.169 26.9277C128.174 26.928 128.178 26.9283 128.177 26.9282C128.177 26.9282 128.176 26.9282 128.176 26.9282C128.175 26.9281 128.175 26.9281 128.174 26.928C128.172 26.9279 128.169 26.9278 128.166 26.9276C128.154 26.9269 128.126 26.9252 128.09 26.9238C128.053 26.9223 128.002 26.9208 127.941 26.9208L127.94 30.3823ZM127.984 30.3843V33.8458H145.213V30.3843V26.9227H127.984V30.3843ZM145.213 30.3843L145.209 33.8458C145.448 33.8461 145.671 33.9406 145.833 34.1005L148.271 31.6431L150.708 29.1856C149.247 27.7363 147.272 26.9251 145.217 26.9227L145.213 30.3843ZM148.271 31.6431L145.833 34.1005C145.992 34.2591 146.077 34.468 146.078 34.6804L149.539 34.6763L153.001 34.6722C152.998 32.6087 152.171 30.6363 150.708 29.1856L148.271 31.6431ZM149.539 34.6763H146.078V47.5542H149.539H153.001V34.6763H149.539ZM149.539 47.5542L146.078 47.5503C146.077 47.7633 145.992 47.9728 145.833 48.1309L148.271 50.5884L150.708 53.0458C152.171 51.5946 152.998 49.6211 153.001 47.5581L149.539 47.5542ZM148.271 50.5884L145.833 48.1307C145.673 48.2895 145.449 48.3844 145.209 48.3847L145.213 51.8462L145.217 55.3077C147.27 55.3053 149.246 54.4962 150.708 53.0461L148.271 50.5884ZM145.213 51.8462V48.3847H123.578V51.8462V55.3077H145.213V51.8462ZM123.578 51.8462L123.582 48.3847C123.341 48.3844 123.117 48.2891 122.957 48.1308L120.52 50.5884L118.082 53.0459C119.545 54.4969 121.521 55.3055 123.574 55.3077L123.578 51.8462ZM120.52 50.5884L122.957 48.1309C122.798 47.9728 122.713 47.7633 122.713 47.5503L119.251 47.5542L115.789 47.5581C115.792 49.6211 116.619 51.5946 118.082 53.0458L120.52 50.5884ZM119.251 47.5542H122.713V34.6763H119.251H115.789V47.5542H119.251ZM119.251 34.6763L122.713 34.6804C122.713 34.6614 122.714 34.6288 122.72 34.5803L119.286 34.144L115.852 33.7078C115.814 34.0106 115.79 34.3333 115.789 34.6722L119.251 34.6763ZM119.286 34.144H122.748V32.5288H119.286H115.825V34.144H119.286ZM119.286 32.5288L122.748 32.5289C122.748 32.4756 122.757 32.361 122.794 32.2194C122.831 32.0813 122.883 31.9611 122.94 31.8682C122.995 31.7807 123.05 31.7229 123.107 31.6806C123.159 31.642 123.264 31.5774 123.473 31.529L122.692 28.1567L121.911 24.7844C117.09 25.9009 115.825 30.233 115.825 32.5288L119.286 32.5288ZM122.692 28.1567L123.509 31.5205C123.518 31.5183 123.535 31.5146 123.56 31.5097L122.915 28.1089L122.27 24.708C122.146 24.7316 122.014 24.7595 121.876 24.7929L122.692 28.1567ZM122.915 28.1089V31.5704H122.924V28.1089V24.6473H122.915V28.1089ZM122.924 28.1089L123.555 31.5123C123.751 31.476 123.953 31.4426 124.161 31.411L123.641 27.9888L123.121 24.5665C122.854 24.607 122.577 24.6527 122.292 24.7054L122.924 28.1089ZM123.641 27.9888L124.218 31.4018L141.306 28.5092L140.729 25.0962L140.151 21.6832L123.063 24.5758L123.641 27.9888ZM142.829 39.1323L144.145 35.9305C143.12 35.5095 141.994 35.4001 140.909 35.6142L141.579 39.0103L142.249 42.4063C142.003 42.4548 141.748 42.4303 141.513 42.3341L142.829 39.1323ZM141.579 39.0103L140.909 35.6142C139.82 35.8291 138.82 36.3609 138.034 37.1407L140.472 39.5981L142.91 42.0556C142.729 42.235 142.499 42.357 142.249 42.4063L141.579 39.0103ZM140.472 39.5981L138.034 37.1407C137.248 37.9202 136.705 38.919 136.485 40.0163L139.879 40.6968L143.273 41.3773C143.22 41.6419 143.09 41.8764 142.91 42.0555L140.472 39.5981ZM139.879 40.6968L136.485 40.0166C136.266 41.1089 136.378 42.242 136.808 43.2707L140.002 41.937L143.196 40.6033C143.298 40.8477 143.325 41.1172 143.273 41.377L139.879 40.6968ZM140.002 41.937L136.808 43.271C137.237 44.2999 137.963 45.173 138.886 45.7849L140.799 42.8999L142.712 40.0149C142.923 40.1552 143.094 40.3582 143.196 40.6031L140.002 41.937ZM140.799 42.8999L138.886 45.7851C139.813 46.3992 140.897 46.7227 142.001 46.7228L142.001 43.2612L142.001 39.7997C142.249 39.7997 142.496 39.8722 142.711 40.0147L140.799 42.8999ZM142.001 43.2612V46.7228C143.48 46.7228 144.91 46.1419 145.969 45.0907L143.531 42.6333L141.093 40.1759C141.341 39.9297 141.669 39.7997 142.001 39.7997V43.2612ZM143.531 42.6333L145.969 45.0907C147.027 44.0414 147.626 42.6122 147.627 41.1163L144.165 41.1157L140.704 41.1151C140.704 40.7574 140.847 40.4203 141.093 40.1759L143.531 42.6333ZM144.165 41.1157H147.627C147.627 39.9968 147.29 38.9095 146.671 37.9899L143.8 39.9233L140.929 41.8568C140.785 41.643 140.704 41.3858 140.704 41.1157H144.165ZM143.8 39.9233L146.671 37.9896C146.051 37.0697 145.172 36.3528 144.145 35.9306L142.829 39.1323L141.513 42.3341C141.276 42.2367 141.073 42.0711 140.929 41.8571L143.8 39.9233Z" fill="white" mask="url(#path-6-outside-1_0_861)"/>
</g>
</g>
<rect x="113.625" y="17.6634" width="40.6731" height="40.6731" rx="9.95192" stroke="#F2F2F2" stroke-width="0.865385"/>
</g>
<path d="M169.946 45H167.968L163.286 39.4561C163.112 39.2477 163.005 39.1068 162.965 39.0336H162.931V45H161.512V32.8812H162.931V38.5772H162.965C163.044 38.4533 163.151 38.3152 163.286 38.1631L167.816 32.8812H169.582L164.385 38.6955L169.946 45ZM183.907 45H182.496V36.8701C182.496 36.2278 182.535 35.4419 182.614 34.5123H182.58C182.445 35.0588 182.324 35.4503 182.217 35.687L178.076 45H177.383L173.25 35.7546C173.132 35.4842 173.011 35.0701 172.887 34.5123H172.853C172.898 34.9968 172.921 35.7884 172.921 36.887V45H171.551V32.8812H173.428L177.146 41.3323C177.433 41.9802 177.619 42.4647 177.704 42.7858H177.755C177.997 42.121 178.191 41.6252 178.338 41.2985L182.132 32.8812H183.907V45ZM188.335 43.7492H188.301V48.9804H186.915V36.3462H188.301V37.8673H188.335C189.017 36.718 190.014 36.1433 191.327 36.1433C192.442 36.1433 193.313 36.5321 193.938 37.3096C194.564 38.0814 194.876 39.1181 194.876 40.4195C194.876 41.8675 194.524 43.0281 193.82 43.9014C193.116 44.769 192.152 45.2028 190.93 45.2028C189.808 45.2028 188.944 44.7183 188.335 43.7492ZM188.301 40.259V41.4675C188.301 42.183 188.532 42.7915 188.994 43.2929C189.462 43.7887 190.054 44.0366 190.769 44.0366C191.609 44.0366 192.265 43.7154 192.738 43.0732C193.217 42.4309 193.457 41.5379 193.457 40.3942C193.457 39.4308 193.234 38.6758 192.789 38.1293C192.344 37.5828 191.741 37.3096 190.98 37.3096C190.175 37.3096 189.527 37.5913 189.037 38.1547C188.546 38.7124 188.301 39.4139 188.301 40.259ZM207.992 36.3462L205.398 45H203.961L202.178 38.8054C202.11 38.5688 202.065 38.3012 202.043 38.0026H202.009C201.992 38.2054 201.933 38.4674 201.831 38.7885L199.896 45H198.51L195.89 36.3462H197.344L199.136 42.8534C199.192 43.0506 199.231 43.3098 199.254 43.6309H199.322C199.338 43.383 199.389 43.1182 199.474 42.8365L201.468 36.3462H202.736L204.527 42.8703C204.584 43.0788 204.626 43.338 204.654 43.6478H204.722C204.733 43.4281 204.781 43.1689 204.865 42.8703L206.623 36.3462H207.992ZM221.886 45H220.5V40.0308C220.5 39.073 220.35 38.38 220.052 37.9518C219.759 37.5237 219.263 37.3096 218.564 37.3096C217.973 37.3096 217.469 37.58 217.052 38.1209C216.64 38.6617 216.435 39.3096 216.435 40.0646V45H215.049V39.8618C215.049 38.1603 214.392 37.3096 213.08 37.3096C212.471 37.3096 211.97 37.5659 211.575 38.0786C211.181 38.5857 210.984 39.2477 210.984 40.0646V45H209.598V36.3462H210.984V37.7152H211.018C211.632 36.6673 212.528 36.1433 213.705 36.1433C214.297 36.1433 214.812 36.3095 215.252 36.6419C215.691 36.9687 215.993 37.3997 216.156 37.9349C216.798 36.7405 217.756 36.1433 219.029 36.1433C220.934 36.1433 221.886 37.318 221.886 39.6674V45ZM233.557 40.0984C233.557 43.5014 232.021 45.2028 228.951 45.2028C226.01 45.2028 224.539 43.5661 224.539 40.2928V32.8812H225.959V40.1998C225.959 42.6844 227.007 43.9267 229.103 43.9267C231.126 43.9267 232.137 42.7267 232.137 40.3266V32.8812H233.557V40.0984ZM243.402 45H242.016V43.6309H241.982C241.408 44.6789 240.517 45.2028 239.312 45.2028C237.25 45.2028 236.219 43.9746 236.219 41.5182V36.3462H237.596V41.2985C237.596 43.1239 238.295 44.0366 239.692 44.0366C240.368 44.0366 240.923 43.7887 241.357 43.2929C241.796 42.7915 242.016 42.1379 242.016 41.3323V36.3462H243.402V45ZM253.391 45H251.447L247.628 40.8421H247.594V45H246.208V32.1883H247.594V40.3097H247.628L251.261 36.3462H253.078L249.064 40.521L253.391 45ZM259.882 45.2028C258.169 45.2028 256.791 44.6366 255.749 43.5042C254.718 42.3717 254.202 40.8984 254.202 39.0843C254.202 37.1293 254.729 35.5743 255.783 34.4193C256.842 33.2587 258.276 32.6784 260.084 32.6784C261.752 32.6784 263.099 33.2418 264.124 34.3686C265.149 35.4954 265.662 36.9687 265.662 38.7885C265.662 40.766 265.138 42.3295 264.09 43.4788C263.842 43.7549 263.577 43.9915 263.296 44.1887L266.702 46.631H264.124L261.842 44.9239C261.245 45.1099 260.591 45.2028 259.882 45.2028ZM259.983 33.963C258.71 33.963 257.676 34.4221 256.881 35.3405C256.087 36.2588 255.69 37.4645 255.69 38.9575C255.69 40.4449 256.076 41.6478 256.848 42.5661C257.625 43.4732 258.636 43.9267 259.882 43.9267C261.211 43.9267 262.259 43.4929 263.025 42.6253C263.792 41.7576 264.175 40.5435 264.175 38.9829C264.175 37.3772 263.803 36.1405 263.059 35.2729C262.315 34.3996 261.29 33.963 259.983 33.963ZM277.037 45.1521C276.778 45.1521 276.558 45.062 276.378 44.8817C276.203 44.7014 276.116 44.4817 276.116 44.2225C276.116 43.9633 276.203 43.7408 276.378 43.5549C276.558 43.3633 276.778 43.2675 277.037 43.2675C277.291 43.2675 277.508 43.3633 277.688 43.5549C277.874 43.7408 277.967 43.9633 277.967 44.2225C277.967 44.4817 277.874 44.7014 277.688 44.8817C277.508 45.062 277.291 45.1521 277.037 45.1521ZM272.795 45.1521C272.536 45.1521 272.313 45.062 272.127 44.8817C271.947 44.7014 271.857 44.4817 271.857 44.2225C271.857 43.9633 271.947 43.7408 272.127 43.5549C272.313 43.3633 272.536 43.2675 272.795 43.2675C273.048 43.2675 273.265 43.3633 273.445 43.5549C273.631 43.7408 273.724 43.9633 273.724 44.2225C273.724 44.4817 273.631 44.7014 273.445 44.8817C273.265 45.062 273.048 45.1521 272.795 45.1521ZM268.552 45.1521C268.293 45.1521 268.076 45.062 267.902 44.8817C267.727 44.7014 267.64 44.4817 267.64 44.2225C267.64 43.9633 267.727 43.7408 267.902 43.5549C268.076 43.3633 268.293 43.2675 268.552 43.2675C268.806 43.2675 269.023 43.3633 269.203 43.5549C269.389 43.7408 269.482 43.9633 269.482 44.2225C269.482 44.4817 269.392 44.7014 269.211 44.8817C269.031 45.062 268.811 45.1521 268.552 45.1521Z" fill="#2D2D2D"/>
</g>
<g opacity="0.72" filter="url(#filter3_i_0_861)">
<rect x="108" y="140" width="180" height="52" rx="15.5769" fill="#FEFEFF"/>
<rect x="108.5" y="140.5" width="179" height="51" rx="15.0769" stroke="#EBEBEB"/>
<g filter="url(#filter4_d_0_861)">
<g clip-path="url(#clip1_0_861)">
<rect x="113.192" y="145.231" width="41.5385" height="41.5385" rx="10.3846" fill="#FEFEFE"/>
<g filter="url(#filter5_d_0_861)">
<mask id="path-13-outside-2_0_861" maskUnits="userSpaceOnUse" x="115.251" y="149.02" width="38" height="35" fill="black">
<rect fill="white" x="115.251" y="149.02" width="38" height="35"/>
<path fill-rule="evenodd" clip-rule="evenodd" d="M140.729 153.096C141.32 152.986 141.929 152.995 142.517 153.125C143.105 153.254 143.661 153.501 144.15 153.849C144.64 154.197 145.054 154.64 145.366 155.151C145.679 155.662 145.884 156.23 145.969 156.822C145.718 156.79 145.465 156.775 145.213 156.775H127.637C126.671 157.012 126.798 158.382 127.94 158.382C127.955 158.382 127.97 158.384 127.984 158.384H145.213C146.36 158.386 147.459 158.838 148.271 159.643C149.082 160.448 149.538 161.538 149.539 162.676V175.554C149.538 176.692 149.082 177.784 148.271 178.588C147.459 179.393 146.36 179.845 145.213 179.846H123.578C122.431 179.845 121.331 179.393 120.52 178.588C119.708 177.784 119.252 176.692 119.251 175.554V162.676C119.251 162.497 119.264 162.32 119.286 162.144V160.529C119.286 159.114 120.055 156.768 122.692 156.157C122.766 156.139 122.84 156.123 122.915 156.109H122.924C123.164 156.064 123.404 156.025 123.641 155.989L140.729 153.096ZM142.829 167.132C142.434 166.97 141.999 166.927 141.579 167.01C141.159 167.093 140.774 167.298 140.472 167.598C140.169 167.898 139.962 168.28 139.879 168.697C139.795 169.113 139.838 169.545 140.002 169.937C140.166 170.329 140.443 170.664 140.799 170.9C141.155 171.136 141.573 171.261 142.001 171.261C142.575 171.261 143.126 171.036 143.531 170.633C143.937 170.231 144.165 169.685 144.165 169.116C144.165 168.691 144.037 168.276 143.8 167.923C143.562 167.57 143.224 167.295 142.829 167.132Z"/>
</mask>
<path fill-rule="evenodd" clip-rule="evenodd" d="M140.729 153.096C141.32 152.986 141.929 152.995 142.517 153.125C143.105 153.254 143.661 153.501 144.15 153.849C144.64 154.197 145.054 154.64 145.366 155.151C145.679 155.662 145.884 156.23 145.969 156.822C145.718 156.79 145.465 156.775 145.213 156.775H127.637C126.671 157.012 126.798 158.382 127.94 158.382C127.955 158.382 127.97 158.384 127.984 158.384H145.213C146.36 158.386 147.459 158.838 148.271 159.643C149.082 160.448 149.538 161.538 149.539 162.676V175.554C149.538 176.692 149.082 177.784 148.271 178.588C147.459 179.393 146.36 179.845 145.213 179.846H123.578C122.431 179.845 121.331 179.393 120.52 178.588C119.708 177.784 119.252 176.692 119.251 175.554V162.676C119.251 162.497 119.264 162.32 119.286 162.144V160.529C119.286 159.114 120.055 156.768 122.692 156.157C122.766 156.139 122.84 156.123 122.915 156.109H122.924C123.164 156.064 123.404 156.025 123.641 155.989L140.729 153.096ZM142.829 167.132C142.434 166.97 141.999 166.927 141.579 167.01C141.159 167.093 140.774 167.298 140.472 167.598C140.169 167.898 139.962 168.28 139.879 168.697C139.795 169.113 139.838 169.545 140.002 169.937C140.166 170.329 140.443 170.664 140.799 170.9C141.155 171.136 141.573 171.261 142.001 171.261C142.575 171.261 143.126 171.036 143.531 170.633C143.937 170.231 144.165 169.685 144.165 169.116C144.165 168.691 144.037 168.276 143.8 167.923C143.562 167.57 143.224 167.295 142.829 167.132Z" fill="url(#paint1_linear_0_861)"/>
<path d="M140.729 153.096L141.306 156.509L141.334 156.504L141.362 156.499L140.729 153.096ZM142.517 153.125L143.26 149.744L143.26 149.744L142.517 153.125ZM144.15 153.849L146.157 151.028L146.156 151.028L144.15 153.849ZM145.366 155.151L148.32 153.345L148.32 153.345L145.366 155.151ZM145.969 156.822L145.533 160.256L150.041 160.827L149.395 156.33L145.969 156.822ZM145.213 156.775V160.236H145.214L145.213 156.775ZM127.637 156.775V153.313H127.218L126.812 153.413L127.637 156.775ZM127.94 158.382L127.941 154.921H127.94V158.382ZM127.984 158.384L127.875 161.844L127.929 161.846H127.984V158.384ZM145.213 158.384L145.217 154.923H145.213V158.384ZM148.271 159.643L150.708 157.186L150.708 157.186L148.271 159.643ZM149.539 162.676H153.001L153.001 162.672L149.539 162.676ZM149.539 175.554L153.001 175.558V175.554H149.539ZM148.271 178.588L150.708 181.046L150.708 181.046L148.271 178.588ZM145.213 179.846V183.308L145.217 183.308L145.213 179.846ZM123.578 179.846L123.574 183.308H123.578V179.846ZM120.52 178.588L118.082 181.046L118.082 181.046L120.52 178.588ZM119.251 175.554H115.789L115.789 175.558L119.251 175.554ZM119.251 162.676L115.789 162.672V162.676H119.251ZM119.286 162.144L122.72 162.58L122.748 162.363V162.144H119.286ZM119.286 160.529L115.825 160.529V160.529H119.286ZM122.692 156.157L123.473 159.529L123.491 159.525L123.509 159.521L122.692 156.157ZM122.915 156.109V152.647H122.59L122.27 152.708L122.915 156.109ZM122.924 156.109V159.57H123.242L123.555 159.512L122.924 156.109ZM123.641 155.989L124.161 159.411L124.19 159.407L124.218 159.402L123.641 155.989ZM142.829 167.132L144.145 163.931L144.145 163.931L142.829 167.132ZM141.579 167.01L140.909 163.614L140.909 163.614L141.579 167.01ZM140.472 167.598L138.034 165.141L138.034 165.141L140.472 167.598ZM139.879 168.697L136.485 168.016L136.485 168.017L139.879 168.697ZM140.002 169.937L136.808 171.271L136.808 171.271L140.002 169.937ZM140.799 170.9L138.886 173.785L138.886 173.785L140.799 170.9ZM142.001 171.261L142.001 174.723H142.001V171.261ZM143.531 170.633L145.969 173.091L145.969 173.091L143.531 170.633ZM144.165 169.116L147.627 169.116V169.116H144.165ZM143.8 167.923L146.671 165.99L146.671 165.99L143.8 167.923ZM140.729 153.096L141.362 156.499C141.501 156.473 141.641 156.476 141.773 156.505L142.517 153.125L143.26 149.744C142.216 149.514 141.14 149.499 140.095 149.693L140.729 153.096ZM142.517 153.125L141.773 156.505C141.906 156.534 142.033 156.591 142.144 156.67L144.15 153.849L146.156 151.028C145.289 150.411 144.304 149.973 143.26 149.744L142.517 153.125ZM144.15 153.849L142.144 156.67C142.256 156.749 142.346 156.847 142.413 156.956L145.366 155.151L148.32 153.345C147.761 152.432 147.024 151.645 146.157 151.028L144.15 153.849ZM145.366 155.151L142.413 156.956C142.481 157.068 142.525 157.19 142.542 157.314L145.969 156.822L149.395 156.33C149.243 155.27 148.876 154.255 148.32 153.345L145.366 155.151ZM145.969 156.822L146.404 153.388C146.002 153.337 145.603 153.313 145.212 153.313L145.213 156.775L145.214 160.236C145.328 160.236 145.434 160.243 145.533 160.256L145.969 156.822ZM145.213 156.775V153.313H127.637V156.775V160.236H145.213V156.775ZM127.637 156.775L126.812 153.413C124.52 153.975 123.274 156.108 123.572 158.163C123.885 160.33 125.744 161.844 127.94 161.844V158.382V154.921C128.37 154.921 128.962 155.062 129.5 155.513C130.021 155.95 130.334 156.551 130.424 157.172C130.613 158.483 129.787 159.812 128.461 160.137L127.637 156.775ZM127.94 158.382L127.939 161.844C127.887 161.844 127.843 161.843 127.814 161.841C127.785 161.84 127.764 161.839 127.759 161.839C127.758 161.839 127.755 161.838 127.76 161.839C127.762 161.839 127.77 161.839 127.779 161.84C127.796 161.841 127.831 161.843 127.875 161.844L127.984 158.384L128.094 154.924C128.131 154.926 128.158 154.927 128.169 154.928C128.174 154.928 128.178 154.928 128.177 154.928C128.177 154.928 128.176 154.928 128.176 154.928C128.175 154.928 128.175 154.928 128.174 154.928C128.172 154.928 128.169 154.928 128.166 154.928C128.154 154.927 128.126 154.925 128.09 154.924C128.053 154.922 128.002 154.921 127.941 154.921L127.94 158.382ZM127.984 158.384V161.846H145.213V158.384V154.923H127.984V158.384ZM145.213 158.384L145.209 161.846C145.448 161.846 145.671 161.941 145.833 162.101L148.271 159.643L150.708 157.186C149.247 155.736 147.272 154.925 145.217 154.923L145.213 158.384ZM148.271 159.643L145.833 162.1C145.992 162.259 146.077 162.468 146.078 162.68L149.539 162.676L153.001 162.672C152.998 160.609 152.171 158.636 150.708 157.186L148.271 159.643ZM149.539 162.676H146.078V175.554H149.539H153.001V162.676H149.539ZM149.539 175.554L146.078 175.55C146.077 175.763 145.992 175.973 145.833 176.131L148.271 178.588L150.708 181.046C152.171 179.595 152.998 177.621 153.001 175.558L149.539 175.554ZM148.271 178.588L145.833 176.131C145.673 176.289 145.449 176.384 145.209 176.385L145.213 179.846L145.217 183.308C147.27 183.305 149.246 182.496 150.708 181.046L148.271 178.588ZM145.213 179.846V176.385H123.578V179.846V183.308H145.213V179.846ZM123.578 179.846L123.582 176.385C123.341 176.384 123.117 176.289 122.957 176.131L120.52 178.588L118.082 181.046C119.545 182.497 121.521 183.306 123.574 183.308L123.578 179.846ZM120.52 178.588L122.957 176.131C122.798 175.973 122.713 175.763 122.713 175.55L119.251 175.554L115.789 175.558C115.792 177.621 116.619 179.595 118.082 181.046L120.52 178.588ZM119.251 175.554H122.713V162.676H119.251H115.789V175.554H119.251ZM119.251 162.676L122.713 162.68C122.713 162.661 122.714 162.629 122.72 162.58L119.286 162.144L115.852 161.708C115.814 162.011 115.79 162.333 115.789 162.672L119.251 162.676ZM119.286 162.144H122.748V160.529H119.286H115.825V162.144H119.286ZM119.286 160.529L122.748 160.529C122.748 160.476 122.757 160.361 122.794 160.219C122.831 160.081 122.883 159.961 122.94 159.868C122.995 159.781 123.05 159.723 123.107 159.681C123.159 159.642 123.264 159.577 123.473 159.529L122.692 156.157L121.911 152.784C117.09 153.901 115.825 158.233 115.825 160.529L119.286 160.529ZM122.692 156.157L123.509 159.521C123.518 159.518 123.535 159.515 123.56 159.51L122.915 156.109L122.27 152.708C122.146 152.732 122.014 152.759 121.876 152.793L122.692 156.157ZM122.915 156.109V159.57H122.924V156.109V152.647H122.915V156.109ZM122.924 156.109L123.555 159.512C123.751 159.476 123.953 159.443 124.161 159.411L123.641 155.989L123.121 152.567C122.854 152.607 122.577 152.653 122.292 152.705L122.924 156.109ZM123.641 155.989L124.218 159.402L141.306 156.509L140.729 153.096L140.151 149.683L123.063 152.576L123.641 155.989ZM142.829 167.132L144.145 163.931C143.12 163.509 141.994 163.4 140.909 163.614L141.579 167.01L142.249 170.406C142.003 170.455 141.748 170.43 141.513 170.334L142.829 167.132ZM141.579 167.01L140.909 163.614C139.82 163.829 138.82 164.361 138.034 165.141L140.472 167.598L142.91 170.056C142.729 170.235 142.499 170.357 142.249 170.406L141.579 167.01ZM140.472 167.598L138.034 165.141C137.248 165.92 136.705 166.919 136.485 168.016L139.879 168.697L143.273 169.377C143.22 169.642 143.09 169.876 142.91 170.056L140.472 167.598ZM139.879 168.697L136.485 168.017C136.266 169.109 136.378 170.242 136.808 171.271L140.002 169.937L143.196 168.603C143.298 168.848 143.325 169.117 143.273 169.377L139.879 168.697ZM140.002 169.937L136.808 171.271C137.237 172.3 137.963 173.173 138.886 173.785L140.799 170.9L142.712 168.015C142.923 168.155 143.094 168.358 143.196 168.603L140.002 169.937ZM140.799 170.9L138.886 173.785C139.813 174.399 140.897 174.723 142.001 174.723L142.001 171.261L142.001 167.8C142.249 167.8 142.496 167.872 142.711 168.015L140.799 170.9ZM142.001 171.261V174.723C143.48 174.723 144.91 174.142 145.969 173.091L143.531 170.633L141.093 168.176C141.341 167.93 141.669 167.8 142.001 167.8V171.261ZM143.531 170.633L145.969 173.091C147.027 172.041 147.626 170.612 147.627 169.116L144.165 169.116L140.704 169.115C140.704 168.757 140.847 168.42 141.093 168.176L143.531 170.633ZM144.165 169.116H147.627C147.627 167.997 147.29 166.909 146.671 165.99L143.8 167.923L140.929 169.857C140.785 169.643 140.704 169.386 140.704 169.116H144.165ZM143.8 167.923L146.671 165.99C146.051 165.07 145.172 164.353 144.145 163.931L142.829 167.132L141.513 170.334C141.276 170.237 141.073 170.071 140.929 169.857L143.8 167.923Z" fill="white" mask="url(#path-13-outside-2_0_861)"/>
</g>
</g>
<rect x="113.625" y="145.663" width="40.6731" height="40.6731" rx="9.95192" stroke="#F2F2F2" stroke-width="0.865385"/>
</g>
<path d="M170.377 168.098C170.377 171.501 168.841 173.203 165.771 173.203C162.83 173.203 161.36 171.566 161.36 168.293V160.881H162.779V168.2C162.779 170.684 163.827 171.927 165.923 171.927C167.946 171.927 168.957 170.727 168.957 168.327V160.881H170.377V168.098ZM180.112 164.346L176.132 174.386C175.422 176.178 174.425 177.073 173.14 177.073C172.78 177.073 172.478 177.037 172.236 176.964V175.721C172.535 175.823 172.808 175.873 173.056 175.873C173.754 175.873 174.278 175.456 174.628 174.623L175.321 172.983L171.94 164.346H173.478L175.819 171.006C175.847 171.09 175.907 171.31 175.997 171.665H176.047C176.076 171.53 176.132 171.315 176.216 171.022L178.676 164.346H180.112ZM185.884 161.405C185.614 161.253 185.307 161.177 184.963 161.177C183.994 161.177 183.51 161.788 183.51 163.011V164.346H185.538V165.529H183.51V173H182.132V165.529H180.653V164.346H182.132V162.943C182.132 162.036 182.394 161.321 182.918 160.797C183.442 160.267 184.096 160.002 184.879 160.002C185.301 160.002 185.636 160.053 185.884 160.154V161.405ZM193.228 173H191.842V171.648H191.809C191.206 172.684 190.318 173.203 189.146 173.203C188.284 173.203 187.608 172.975 187.118 172.518C186.634 172.062 186.391 171.456 186.391 170.701C186.391 169.084 187.344 168.143 189.248 167.879L191.842 167.515C191.842 166.045 191.248 165.31 190.059 165.31C189.017 165.31 188.076 165.665 187.237 166.374V164.955C188.087 164.414 189.068 164.143 190.178 164.143C192.211 164.143 193.228 165.219 193.228 167.372V173ZM191.842 168.622L189.755 168.91C189.113 169 188.628 169.16 188.301 169.391C187.975 169.617 187.811 170.02 187.811 170.6C187.811 171.022 187.961 171.369 188.259 171.639C188.563 171.904 188.966 172.037 189.468 172.037C190.155 172.037 190.721 171.797 191.166 171.318C191.617 170.834 191.842 170.222 191.842 169.484V168.622ZM203.226 173H201.84V171.53H201.806C201.164 172.645 200.172 173.203 198.831 173.203C197.744 173.203 196.874 172.817 196.22 172.045C195.572 171.268 195.248 170.211 195.248 168.876C195.248 167.445 195.609 166.298 196.33 165.436C197.051 164.574 198.012 164.143 199.212 164.143C200.4 164.143 201.265 164.611 201.806 165.546H201.84V160.188H203.226V173ZM201.84 169.087V167.811C201.84 167.112 201.609 166.521 201.147 166.036C200.685 165.552 200.099 165.31 199.389 165.31C198.544 165.31 197.879 165.619 197.395 166.239C196.91 166.859 196.668 167.715 196.668 168.808C196.668 169.806 196.899 170.594 197.361 171.175C197.829 171.749 198.454 172.037 199.237 172.037C200.009 172.037 200.634 171.758 201.113 171.2C201.598 170.642 201.84 169.938 201.84 169.087ZM214.466 172.493C213.57 172.966 212.454 173.203 211.119 173.203C209.395 173.203 208.015 172.648 206.978 171.538C205.941 170.428 205.423 168.972 205.423 167.169C205.423 165.231 206.006 163.664 207.173 162.47C208.339 161.276 209.818 160.678 211.609 160.678C212.759 160.678 213.711 160.845 214.466 161.177V162.69C213.598 162.205 212.64 161.963 211.592 161.963C210.201 161.963 209.071 162.428 208.204 163.357C207.342 164.287 206.911 165.529 206.911 167.084C206.911 168.56 207.313 169.738 208.119 170.617C208.93 171.49 209.992 171.927 211.305 171.927C212.522 171.927 213.576 171.656 214.466 171.115V172.493ZM218.167 171.749H218.133V173H216.748V160.188H218.133V165.867H218.167C218.849 164.718 219.846 164.143 221.159 164.143C222.269 164.143 223.136 164.532 223.762 165.31C224.393 166.081 224.708 167.118 224.708 168.42C224.708 169.867 224.356 171.028 223.652 171.901C222.948 172.769 221.984 173.203 220.762 173.203C219.618 173.203 218.753 172.718 218.167 171.749ZM218.133 168.259V169.467C218.133 170.183 218.364 170.791 218.826 171.293C219.294 171.789 219.886 172.037 220.601 172.037C221.441 172.037 222.097 171.715 222.57 171.073C223.049 170.431 223.289 169.538 223.289 168.394C223.289 167.431 223.066 166.676 222.621 166.129C222.176 165.583 221.573 165.31 220.812 165.31C220.007 165.31 219.359 165.591 218.869 166.155C218.379 166.712 218.133 167.414 218.133 168.259ZM241.475 160.881L238.053 173H236.388L233.895 164.143C233.788 163.766 233.723 163.355 233.7 162.909H233.666C233.633 163.326 233.559 163.732 233.447 164.126L230.937 173H229.289L225.739 160.881H227.303L229.88 170.177C229.987 170.566 230.055 170.972 230.083 171.394H230.125C230.154 171.096 230.241 170.69 230.387 170.177L233.066 160.881H234.427L236.996 170.245C237.086 170.566 237.154 170.944 237.199 171.377H237.233C237.255 171.084 237.331 170.696 237.461 170.211L239.937 160.881H241.475ZM247.813 173H246.428V162.529C246.32 162.636 246.163 162.76 245.954 162.901C245.751 163.036 245.52 163.171 245.261 163.307C245.008 163.442 244.737 163.569 244.45 163.687C244.168 163.805 243.892 163.898 243.622 163.966V162.563C243.926 162.478 244.247 162.366 244.585 162.225C244.929 162.078 245.264 161.918 245.591 161.743C245.923 161.563 246.236 161.377 246.529 161.185C246.822 160.988 247.075 160.797 247.29 160.611H247.813V173ZM261.622 160.881L257.135 173H255.572L251.177 160.881H252.757L256.112 170.49C256.219 170.8 256.301 171.158 256.357 171.563H256.391C256.436 171.225 256.529 170.862 256.67 170.473L260.093 160.881H261.622ZM272.355 173.152C272.096 173.152 271.876 173.062 271.696 172.882C271.521 172.701 271.434 172.482 271.434 172.223C271.434 171.963 271.521 171.741 271.696 171.555C271.876 171.363 272.096 171.268 272.355 171.268C272.609 171.268 272.826 171.363 273.006 171.555C273.192 171.741 273.285 171.963 273.285 172.223C273.285 172.482 273.192 172.701 273.006 172.882C272.826 173.062 272.609 173.152 272.355 173.152ZM268.113 173.152C267.854 173.152 267.631 173.062 267.445 172.882C267.265 172.701 267.175 172.482 267.175 172.223C267.175 171.963 267.265 171.741 267.445 171.555C267.631 171.363 267.854 171.268 268.113 171.268C268.366 171.268 268.583 171.363 268.764 171.555C268.949 171.741 269.042 171.963 269.042 172.223C269.042 172.482 268.949 172.701 268.764 172.882C268.583 173.062 268.366 173.152 268.113 173.152ZM263.87 173.152C263.611 173.152 263.394 173.062 263.22 172.882C263.045 172.701 262.958 172.482 262.958 172.223C262.958 171.963 263.045 171.741 263.22 171.555C263.394 171.363 263.611 171.268 263.87 171.268C264.124 171.268 264.341 171.363 264.521 171.555C264.707 171.741 264.8 171.963 264.8 172.223C264.8 172.482 264.71 172.701 264.53 172.882C264.349 173.062 264.13 173.152 263.87 173.152Z" fill="#2D2D2D"/>
</g>
<g filter="url(#filter6_di_0_861)">
<rect x="94" y="72" width="208" height="60" rx="18" fill="#FEFEFF"/>
<rect x="94.5" y="72.5" width="207" height="59" rx="17.5" stroke="#EBEBEB"/>
<g filter="url(#filter7_d_0_861)">
<g clip-path="url(#clip2_0_861)">
<rect x="100" y="78" width="48" height="48" rx="12" fill="#FEFEFE"/>
<g filter="url(#filter8_d_0_861)">
<mask id="path-20-outside-3_0_861" maskUnits="userSpaceOnUse" x="103" y="83" width="43" height="39" fill="black">
<rect fill="white" x="103" y="83" width="43" height="39"/>
<path fill-rule="evenodd" clip-rule="evenodd" d="M131.818 87.0878C132.502 86.9606 133.205 86.9716 133.885 87.121C134.564 87.2705 135.207 87.5556 135.772 87.9579C136.338 88.3603 136.817 88.8723 137.178 89.4628C137.539 90.0532 137.775 90.71 137.873 91.3935C137.584 91.3568 137.292 91.3387 137 91.3388H116.702C115.571 91.6032 115.713 93.1991 117.039 93.1991H137C138.326 93.2006 139.597 93.7233 140.534 94.6532C141.471 95.5831 141.999 96.8441 142 98.1591V113.04C141.998 114.355 141.471 115.616 140.534 116.546C139.597 117.476 138.326 117.998 137 118H112C110.674 117.998 109.403 117.476 108.466 116.546C107.529 115.616 107.002 114.355 107 113.04V98.1591C107 97.9576 107.015 97.7575 107.039 97.5595V95.6796C107.039 94.0874 107.882 91.4744 110.742 90.6874C110.903 90.6402 111.068 90.6018 111.234 90.5702H111.253C111.496 90.5253 111.739 90.4846 111.979 90.4472L131.818 87.0878ZM134.246 103.308C133.789 103.12 133.287 103.071 132.802 103.167C132.317 103.263 131.871 103.499 131.521 103.846C131.172 104.192 130.933 104.634 130.837 105.115C130.74 105.596 130.79 106.096 130.979 106.549C131.169 107.002 131.489 107.389 131.9 107.661C132.312 107.934 132.795 108.079 133.289 108.079C133.952 108.079 134.588 107.818 135.057 107.353C135.525 106.888 135.789 106.257 135.789 105.6C135.789 105.109 135.643 104.629 135.368 104.222C135.093 103.814 134.703 103.495 134.246 103.308Z"/>
</mask>
<path fill-rule="evenodd" clip-rule="evenodd" d="M131.818 87.0878C132.502 86.9606 133.205 86.9716 133.885 87.121C134.564 87.2705 135.207 87.5556 135.772 87.9579C136.338 88.3603 136.817 88.8723 137.178 89.4628C137.539 90.0532 137.775 90.71 137.873 91.3935C137.584 91.3568 137.292 91.3387 137 91.3388H116.702C115.571 91.6032 115.713 93.1991 117.039 93.1991H137C138.326 93.2006 139.597 93.7233 140.534 94.6532C141.471 95.5831 141.999 96.8441 142 98.1591V113.04C141.998 114.355 141.471 115.616 140.534 116.546C139.597 117.476 138.326 117.998 137 118H112C110.674 117.998 109.403 117.476 108.466 116.546C107.529 115.616 107.002 114.355 107 113.04V98.1591C107 97.9576 107.015 97.7575 107.039 97.5595V95.6796C107.039 94.0874 107.882 91.4744 110.742 90.6874C110.903 90.6402 111.068 90.6018 111.234 90.5702H111.253C111.496 90.5253 111.739 90.4846 111.979 90.4472L131.818 87.0878ZM134.246 103.308C133.789 103.12 133.287 103.071 132.802 103.167C132.317 103.263 131.871 103.499 131.521 103.846C131.172 104.192 130.933 104.634 130.837 105.115C130.74 105.596 130.79 106.096 130.979 106.549C131.169 107.002 131.489 107.389 131.9 107.661C132.312 107.934 132.795 108.079 133.289 108.079C133.952 108.079 134.588 107.818 135.057 107.353C135.525 106.888 135.789 106.257 135.789 105.6C135.789 105.109 135.643 104.629 135.368 104.222C135.093 103.814 134.703 103.495 134.246 103.308Z" fill="url(#paint2_linear_0_861)"/>
<path d="M131.818 87.0878L132.486 91.0317L132.518 91.0263L132.55 91.0203L131.818 87.0878ZM133.885 87.121L134.744 83.2144L134.744 83.2144L133.885 87.121ZM135.772 87.9579L138.091 84.6981L138.09 84.698L135.772 87.9579ZM137.178 89.4628L140.591 87.3766L140.59 87.3764L137.178 89.4628ZM137.873 91.3935L137.37 95.3617L142.579 96.0218L141.832 90.8246L137.873 91.3935ZM137 91.3388V95.3388L137.001 95.3388L137 91.3388ZM116.702 91.3388V87.3388H116.241L115.792 87.4438L116.702 91.3388ZM137 93.1991L137.004 89.1991H137V93.1991ZM140.534 94.6532L143.351 91.8136L143.351 91.8135L140.534 94.6532ZM142 98.1591H146L146 98.1547L142 98.1591ZM142 113.04L146 113.045V113.04H142ZM140.534 116.546L143.351 119.386L143.351 119.386L140.534 116.546ZM137 118V122L137.004 122L137 118ZM112 118L111.996 122H112V118ZM108.466 116.546L105.649 119.386L105.649 119.386L108.466 116.546ZM107 113.04H103L103 113.045L107 113.04ZM107 98.1591L103 98.1547V98.1591H107ZM107.039 97.5595L111.009 98.0508L111.039 97.8061V97.5595H107.039ZM110.742 90.6874L111.803 94.5441L111.835 94.5354L111.867 94.5261L110.742 90.6874ZM111.234 90.5702V86.5702H110.858L110.489 86.6403L111.234 90.5702ZM111.253 90.5702V94.5702H111.62L111.981 94.5035L111.253 90.5702ZM111.979 90.4472L112.594 94.3998L112.62 94.3956L112.647 94.391L111.979 90.4472ZM134.246 103.308L135.767 99.6078L135.766 99.6077L134.246 103.308ZM132.802 103.167L132.028 99.2425L132.027 99.2426L132.802 103.167ZM131.521 103.846L128.705 101.006L128.704 101.006L131.521 103.846ZM130.837 105.115L126.915 104.328L126.915 104.329L130.837 105.115ZM130.979 106.549L127.288 108.09L127.289 108.091L130.979 106.549ZM131.9 107.661L129.69 110.995V110.995L131.9 107.661ZM135.057 107.353L137.873 110.194L137.874 110.193L135.057 107.353ZM135.789 105.6L139.789 105.6V105.6H135.789ZM135.368 104.222L138.686 101.988L138.686 101.987L135.368 104.222ZM131.818 87.0878L132.55 91.0203C132.709 90.9908 132.871 90.9936 133.026 91.0277L133.885 87.121L134.744 83.2144C133.54 82.9495 132.296 82.9304 131.087 83.1553L131.818 87.0878ZM133.885 87.121L133.025 91.0276C133.18 91.0616 133.326 91.1265 133.454 91.2178L135.772 87.9579L138.09 84.698C137.087 83.9847 135.949 83.4795 134.744 83.2144L133.885 87.121ZM135.772 87.9579L133.454 91.2178C133.582 91.3088 133.687 91.4224 133.765 91.5493L137.178 89.4628L140.59 87.3764C139.946 86.3222 139.094 85.4119 138.091 84.6981L135.772 87.9579ZM137.178 89.4628L133.765 91.549C133.842 91.6754 133.893 91.8159 133.914 91.9623L137.873 91.3935L141.832 90.8246C141.657 89.6041 141.235 88.4309 140.591 87.3766L137.178 89.4628ZM137.873 91.3935L138.376 87.4252C137.917 87.367 137.457 87.3387 136.999 87.3388L137 91.3388L137.001 95.3388C137.127 95.3388 137.25 95.3466 137.37 95.3617L137.873 91.3935ZM137 91.3388V87.3388H116.702V91.3388V95.3388H137V91.3388ZM116.702 91.3388L115.792 87.4438C113.13 88.066 111.655 90.5241 111.987 92.9174C112.336 95.4337 114.488 97.1991 117.039 97.1991V93.1991V89.1991C117.537 89.1991 118.226 89.3633 118.849 89.8894C119.451 90.3983 119.812 91.0981 119.911 91.8189C120.123 93.348 119.143 94.876 117.613 95.2338L116.702 91.3388ZM117.039 93.1991V97.1991H137V93.1991V89.1991H117.039V93.1991ZM137 93.1991L136.996 97.1991C137.273 97.1994 137.532 97.3091 137.717 97.493L140.534 94.6532L143.351 91.8135C141.662 90.1376 139.378 89.2017 137.004 89.1991L137 93.1991ZM140.534 94.6532L137.717 97.4929C137.901 97.6759 138 97.9177 138 98.1635L142 98.1591L146 98.1547C145.997 95.7704 145.041 93.4904 143.351 91.8136L140.534 94.6532ZM142 98.1591H138V113.04H142H146V98.1591H142ZM142 113.04L138 113.035C138 113.281 137.901 113.523 137.717 113.706L140.534 116.546L143.351 119.386C145.042 117.709 145.997 115.428 146 113.045L142 113.04ZM140.534 116.546L137.717 113.706C137.532 113.89 137.273 114 136.996 114L137 118L137.004 122C139.378 121.997 141.662 121.061 143.351 119.386L140.534 116.546ZM137 118V114H112V118V122H137V118ZM112 118L112.004 114C111.727 114 111.468 113.89 111.283 113.706L108.466 116.546L105.649 119.386C107.338 121.061 109.622 121.997 111.996 122L112 118ZM108.466 116.546L111.283 113.706C111.099 113.523 111 113.281 111 113.035L107 113.04L103 113.045C103.003 115.428 103.958 117.709 105.649 119.386L108.466 116.546ZM107 113.04H111V98.1591H107H103V113.04H107ZM107 98.1591L111 98.1635C111 98.1482 111.001 98.1123 111.009 98.0508L107.039 97.5595L103.069 97.0682C103.028 97.4026 103 97.7669 103 98.1547L107 98.1591ZM107.039 97.5595H111.039V95.6796H107.039H103.039V97.5595H107.039ZM107.039 95.6796H111.039C111.039 95.6205 111.049 95.4932 111.089 95.3345C111.129 95.1796 111.187 95.0422 111.251 94.9338C111.313 94.8307 111.376 94.7622 111.438 94.7132C111.494 94.6689 111.599 94.6003 111.803 94.5441L110.742 90.6874L109.681 86.8307C104.413 88.2801 103.039 93.0945 103.039 95.6796H107.039ZM110.742 90.6874L111.867 94.5261C111.885 94.5207 111.921 94.5112 111.98 94.5001L111.234 90.5702L110.489 86.6403C110.214 86.6924 109.922 86.7597 109.618 86.8487L110.742 90.6874ZM111.234 90.5702V94.5702H111.253V90.5702V86.5702H111.234V90.5702ZM111.253 90.5702L111.981 94.5035C112.18 94.4666 112.384 94.4323 112.594 94.3998L111.979 90.4472L111.365 86.4946C111.094 86.5368 110.812 86.5839 110.525 86.637L111.253 90.5702ZM111.979 90.4472L112.647 94.391L132.486 91.0317L131.818 87.0878L131.151 83.144L111.312 86.5033L111.979 90.4472ZM134.246 103.308L135.766 99.6077C134.58 99.1201 133.279 98.9958 132.028 99.2425L132.802 103.167L133.576 107.091C133.294 107.147 132.999 107.12 132.726 107.007L134.246 103.308ZM132.802 103.167L132.027 99.2426C130.773 99.4901 129.616 100.102 128.705 101.006L131.521 103.846L134.338 106.685C134.126 106.896 133.86 107.035 133.576 107.091L132.802 103.167ZM131.521 103.846L128.704 101.006C127.795 101.908 127.169 103.063 126.915 104.328L130.837 105.115L134.759 105.902C134.698 106.205 134.549 106.477 134.339 106.685L131.521 103.846ZM130.837 105.115L126.915 104.329C126.661 105.594 126.793 106.903 127.288 108.09L130.979 106.549L134.671 105.008C134.788 105.288 134.82 105.599 134.759 105.902L130.837 105.115ZM130.979 106.549L127.289 108.091C127.786 109.28 128.624 110.289 129.69 110.995L131.9 107.661L134.11 104.327C134.354 104.489 134.552 104.723 134.67 105.007L130.979 106.549ZM131.9 107.661L129.69 110.995C130.758 111.703 132.01 112.079 133.289 112.079V108.079V104.079C133.579 104.079 133.865 104.164 134.11 104.327L131.9 107.661ZM133.289 108.079V112.079C135 112.079 136.65 111.406 137.873 110.194L135.057 107.353L132.24 104.513C132.525 104.23 132.904 104.079 133.289 104.079V108.079ZM135.057 107.353L137.874 110.193C139.096 108.981 139.789 107.329 139.789 105.6L135.789 105.6L131.789 105.599C131.789 105.186 131.955 104.796 132.24 104.514L135.057 107.353ZM135.789 105.6H139.789C139.789 104.313 139.405 103.055 138.686 101.988L135.368 104.222L132.05 106.456C131.88 106.203 131.789 105.905 131.789 105.6H135.789ZM135.368 104.222L138.686 101.987C137.969 100.923 136.953 100.095 135.767 99.6078L134.246 103.308L132.726 107.007C132.453 106.895 132.218 106.705 132.051 106.456L135.368 104.222Z" fill="white" mask="url(#path-20-outside-3_0_861)"/>
</g>
</g>
<rect x="100.5" y="78.5" width="47" height="47" rx="11.5" stroke="#F2F2F2"/>
</g>
<path d="M162.945 97.4805H157.477V102.324H162.535V103.799H157.477V110H155.836V95.9961H162.945V97.4805ZM179.879 110H178.248V100.605C178.248 99.8633 178.294 98.9551 178.385 97.8809H178.346C178.189 98.5124 178.049 98.9648 177.926 99.2383L173.141 110H172.34L167.564 99.3164C167.428 99.0039 167.288 98.5254 167.145 97.8809H167.105C167.158 98.4408 167.184 99.3555 167.184 100.625V110H165.602V95.9961H167.77L172.066 105.762C172.398 106.51 172.613 107.07 172.711 107.441H172.77C173.049 106.673 173.274 106.1 173.443 105.723L177.828 95.9961H179.879V110ZM194.098 110H192.457V103.613H185.211V110H183.57V95.9961H185.211V102.139H192.457V95.9961H194.098V110ZM199.195 108.555H199.156V110H197.555V95.1953H199.156V101.758H199.195C199.983 100.43 201.135 99.7656 202.652 99.7656C203.935 99.7656 204.938 100.215 205.66 101.113C206.389 102.005 206.754 103.203 206.754 104.707C206.754 106.38 206.347 107.721 205.533 108.73C204.719 109.733 203.606 110.234 202.193 110.234C200.872 110.234 199.872 109.674 199.195 108.555ZM199.156 104.521V105.918C199.156 106.745 199.423 107.448 199.957 108.027C200.497 108.6 201.181 108.887 202.008 108.887C202.978 108.887 203.736 108.516 204.283 107.773C204.837 107.031 205.113 105.999 205.113 104.678C205.113 103.564 204.856 102.692 204.342 102.061C203.827 101.429 203.131 101.113 202.252 101.113C201.321 101.113 200.572 101.439 200.006 102.09C199.439 102.734 199.156 103.545 199.156 104.521ZM213.111 104.98C213.111 106.641 212.76 107.933 212.057 108.857C211.354 109.775 210.413 110.234 209.234 110.234C208.688 110.234 208.238 110.156 207.887 110V108.379C208.238 108.633 208.694 108.76 209.254 108.76C210.732 108.76 211.471 107.507 211.471 105V95.9961H213.111V104.98ZM224.303 105.723C224.303 106.406 224.186 107.025 223.951 107.578C223.717 108.132 223.382 108.607 222.945 109.004C222.516 109.401 221.995 109.707 221.383 109.922C220.771 110.137 220.09 110.244 219.342 110.244C218.04 110.244 217.073 110.049 216.441 109.658V107.959C217.392 108.571 218.365 108.877 219.361 108.877C219.869 108.877 220.325 108.802 220.729 108.652C221.139 108.503 221.487 108.294 221.773 108.027C222.06 107.76 222.278 107.438 222.428 107.061C222.584 106.683 222.662 106.27 222.662 105.82C222.662 104.909 222.356 104.196 221.744 103.682C221.132 103.161 220.243 102.9 219.078 102.9C218.889 102.9 218.691 102.904 218.482 102.91C218.274 102.917 218.066 102.926 217.857 102.939C217.649 102.946 217.444 102.956 217.242 102.969C217.047 102.982 216.868 102.998 216.705 103.018L217.184 95.9961H223.658V97.4414H218.57L218.287 101.553C218.495 101.54 218.717 101.53 218.951 101.523C219.186 101.51 219.394 101.504 219.576 101.504C220.318 101.504 220.982 101.602 221.568 101.797C222.154 101.992 222.649 102.272 223.053 102.637C223.463 102.995 223.772 103.438 223.98 103.965C224.195 104.486 224.303 105.072 224.303 105.723ZM232.691 110H231.09V97.9004C230.966 98.0241 230.784 98.1673 230.543 98.3301C230.309 98.4863 230.042 98.6426 229.742 98.7988C229.449 98.9551 229.137 99.1016 228.805 99.2383C228.479 99.375 228.16 99.4824 227.848 99.5605V97.9395C228.199 97.8418 228.57 97.7116 228.961 97.5488C229.358 97.3796 229.745 97.194 230.123 96.9922C230.507 96.7839 230.868 96.569 231.207 96.3477C231.546 96.1198 231.839 95.8984 232.086 95.6836H232.691V110ZM246.559 109.199C246.559 112.871 244.801 114.707 241.285 114.707C240.048 114.707 238.967 114.473 238.043 114.004V112.402C239.169 113.027 240.243 113.34 241.266 113.34C243.727 113.34 244.957 112.031 244.957 109.414V108.32H244.918C244.156 109.596 243.01 110.234 241.48 110.234C240.237 110.234 239.234 109.792 238.473 108.906C237.717 108.014 237.34 106.82 237.34 105.322C237.34 103.623 237.747 102.272 238.561 101.27C239.381 100.267 240.501 99.7656 241.92 99.7656C243.268 99.7656 244.267 100.306 244.918 101.387H244.957V100H246.559V109.199ZM244.957 105.479V104.004C244.957 103.21 244.687 102.529 244.146 101.963C243.613 101.396 242.945 101.113 242.145 101.113C241.155 101.113 240.38 101.475 239.82 102.197C239.26 102.913 238.98 103.919 238.98 105.215C238.98 106.328 239.247 107.22 239.781 107.891C240.322 108.555 241.035 108.887 241.92 108.887C242.818 108.887 243.548 108.568 244.107 107.93C244.674 107.292 244.957 106.475 244.957 105.479ZM258.336 114.6H256.734V108.281H256.695C255.999 109.583 254.859 110.234 253.277 110.234C252.021 110.234 251.012 109.788 250.25 108.896C249.495 107.998 249.117 106.777 249.117 105.234C249.117 103.574 249.534 102.249 250.367 101.26C251.201 100.264 252.32 99.7656 253.727 99.7656C255.094 99.7656 256.083 100.306 256.695 101.387H256.734V100H258.336V114.6ZM256.734 105.498V104.043C256.734 103.223 256.464 102.529 255.924 101.963C255.39 101.396 254.71 101.113 253.883 101.113C252.919 101.113 252.158 101.471 251.598 102.188C251.038 102.897 250.758 103.9 250.758 105.195C250.758 106.348 251.028 107.253 251.568 107.91C252.109 108.561 252.805 108.887 253.658 108.887C254.596 108.887 255.341 108.568 255.895 107.93C256.454 107.285 256.734 106.475 256.734 105.498ZM260.836 106.094C260.836 105.723 260.895 105.352 261.012 104.98C261.129 104.603 261.295 104.251 261.51 103.926C261.731 103.6 262.001 103.304 262.32 103.037C262.646 102.77 263.014 102.559 263.424 102.402C262.818 102.064 262.337 101.631 261.979 101.104C261.62 100.57 261.441 99.9805 261.441 99.3359C261.441 98.8216 261.539 98.3464 261.734 97.9102C261.936 97.474 262.213 97.0964 262.564 96.7773C262.916 96.4583 263.333 96.2109 263.814 96.0352C264.296 95.8529 264.817 95.7617 265.377 95.7617C265.943 95.7617 266.467 95.8529 266.949 96.0352C267.431 96.2174 267.848 96.4681 268.199 96.7871C268.551 97.1061 268.824 97.4837 269.02 97.9199C269.215 98.3561 269.312 98.8281 269.312 99.3359C269.312 99.9805 269.133 100.57 268.775 101.104C268.417 101.631 267.942 102.064 267.35 102.402C267.753 102.559 268.115 102.77 268.434 103.037C268.753 103.304 269.02 103.6 269.234 103.926C269.456 104.251 269.625 104.603 269.742 104.98C269.859 105.352 269.918 105.723 269.918 106.094C269.918 106.706 269.807 107.266 269.586 107.773C269.365 108.281 269.052 108.717 268.648 109.082C268.251 109.44 267.773 109.72 267.213 109.922C266.66 110.124 266.048 110.225 265.377 110.225C264.713 110.225 264.104 110.124 263.551 109.922C262.997 109.72 262.519 109.44 262.115 109.082C261.712 108.717 261.396 108.281 261.168 107.773C260.947 107.266 260.836 106.706 260.836 106.094ZM262.574 105.957C262.574 106.393 262.639 106.787 262.77 107.139C262.906 107.49 263.095 107.79 263.336 108.037C263.583 108.285 263.88 108.477 264.225 108.613C264.576 108.743 264.964 108.809 265.387 108.809C265.797 108.809 266.174 108.74 266.52 108.604C266.865 108.467 267.161 108.275 267.408 108.027C267.662 107.78 267.857 107.48 267.994 107.129C268.137 106.777 268.209 106.387 268.209 105.957C268.209 105.566 268.141 105.202 268.004 104.863C267.874 104.518 267.685 104.215 267.438 103.955C267.19 103.695 266.894 103.49 266.549 103.34C266.204 103.19 265.816 103.115 265.387 103.115C264.983 103.115 264.609 103.187 264.264 103.33C263.925 103.467 263.629 103.662 263.375 103.916C263.128 104.163 262.932 104.463 262.789 104.814C262.646 105.16 262.574 105.54 262.574 105.957ZM263.072 99.4629C263.072 99.7949 263.131 100.104 263.248 100.391C263.372 100.671 263.538 100.918 263.746 101.133C263.961 101.341 264.208 101.507 264.488 101.631C264.768 101.748 265.068 101.807 265.387 101.807C265.706 101.807 266.005 101.745 266.285 101.621C266.572 101.497 266.819 101.331 267.027 101.123C267.236 100.908 267.402 100.661 267.525 100.381C267.649 100.094 267.711 99.7884 267.711 99.4629C267.711 99.1243 267.649 98.8118 267.525 98.5254C267.408 98.2389 267.245 97.9915 267.037 97.7832C266.829 97.5749 266.581 97.4121 266.295 97.2949C266.015 97.1712 265.712 97.1094 265.387 97.1094C265.042 97.1094 264.726 97.1712 264.439 97.2949C264.16 97.4186 263.915 97.5879 263.707 97.8027C263.505 98.0111 263.349 98.2585 263.238 98.5449C263.128 98.8314 263.072 99.1374 263.072 99.4629ZM277.301 96.6016C276.988 96.4258 276.633 96.3379 276.236 96.3379C275.117 96.3379 274.557 97.0443 274.557 98.457V100H276.9V101.367H274.557V110H272.965V101.367H271.256V100H272.965V98.3789C272.965 97.3307 273.268 96.5039 273.873 95.8984C274.479 95.2865 275.234 94.9805 276.139 94.9805C276.627 94.9805 277.014 95.0391 277.301 95.1562V96.6016ZM289.234 110.176C288.935 110.176 288.681 110.072 288.473 109.863C288.271 109.655 288.17 109.401 288.17 109.102C288.17 108.802 288.271 108.545 288.473 108.33C288.681 108.109 288.935 107.998 289.234 107.998C289.527 107.998 289.778 108.109 289.986 108.33C290.201 108.545 290.309 108.802 290.309 109.102C290.309 109.401 290.201 109.655 289.986 109.863C289.778 110.072 289.527 110.176 289.234 110.176ZM284.332 110.176C284.033 110.176 283.775 110.072 283.561 109.863C283.352 109.655 283.248 109.401 283.248 109.102C283.248 108.802 283.352 108.545 283.561 108.33C283.775 108.109 284.033 107.998 284.332 107.998C284.625 107.998 284.876 108.109 285.084 108.33C285.299 108.545 285.406 108.802 285.406 109.102C285.406 109.401 285.299 109.655 285.084 109.863C284.876 110.072 284.625 110.176 284.332 110.176ZM279.43 110.176C279.13 110.176 278.88 110.072 278.678 109.863C278.476 109.655 278.375 109.401 278.375 109.102C278.375 108.802 278.476 108.545 278.678 108.33C278.88 108.109 279.13 107.998 279.43 107.998C279.723 107.998 279.973 108.109 280.182 108.33C280.396 108.545 280.504 108.802 280.504 109.102C280.504 109.401 280.4 109.655 280.191 109.863C279.983 110.072 279.729 110.176 279.43 110.176Z" fill="#2D2D2D"/>
</g>
<path fill-rule="evenodd" clip-rule="evenodd" d="M91.4209 71.8438C91.565 72.5891 91.3329 73.6705 90.8951 74.2902C90.4891 74.8666 90.3285 75.5806 90.4486 76.2753C90.5688 76.97 90.9598 77.5886 91.5358 77.9952C92.148 78.4252 92.6884 79.2613 92.8307 79.9958C92.9573 80.6457 93.3246 81.25 93.9081 81.6606C94.4468 82.0412 95.108 82.2073 95.7626 82.1264C96.5488 82.031 97.6481 82.3077 98.2953 82.7641C98.8716 83.1698 99.5854 83.3302 100.28 83.2101C100.974 83.09 101.593 82.6992 101.999 82.1235C102.456 81.4763 103.398 80.8465 104.171 80.6723C104.815 80.5287 105.382 80.1502 105.761 79.6108C106.157 79.05 106.32 78.3575 106.216 77.6791C106.103 76.9414 106.328 75.9791 106.759 75.3687C107.167 74.7921 107.329 74.0772 107.21 73.381C107.09 72.6849 106.7 72.0647 106.123 71.6568C105.504 71.2209 104.921 70.2795 104.807 69.5298C104.754 69.1759 104.629 68.8365 104.441 68.5321C104.252 68.2277 104.004 67.9646 103.712 67.7587C103.408 67.5439 103.062 67.3955 102.697 67.3231C102.333 67.2507 101.957 67.2559 101.594 67.3384C100.897 67.4955 99.9497 67.3081 99.3659 66.8956C98.7895 66.4896 98.0755 66.329 97.3808 66.4491C96.6861 66.5693 96.0675 66.9603 95.6609 67.5363C95.2503 68.1198 94.4206 68.6154 93.711 68.7016C93.3418 68.7458 92.9861 68.8672 92.6669 69.0579C92.3478 69.2486 92.0723 69.5043 91.8585 69.8085C91.6519 70.1006 91.5067 70.4316 91.4315 70.7814C91.3563 71.1312 91.3527 71.4926 91.4209 71.8438ZM101.246 70.983C101.37 71.0262 101.484 71.0935 101.582 71.1809C101.68 71.2683 101.76 71.3742 101.817 71.4925C101.874 71.6108 101.908 71.7392 101.915 71.8703C101.923 72.0015 101.904 72.1328 101.861 72.2568L99.9824 77.6376C99.9349 77.7835 99.8544 77.9166 99.7472 78.0264C99.5915 78.186 99.3868 78.289 99.1658 78.3189C98.9448 78.3488 98.7202 78.304 98.5275 78.1916L95.4328 76.4871C95.3178 76.4237 95.2163 76.3382 95.1343 76.2356C95.0523 76.133 94.9913 76.0153 94.9547 75.8891C94.9182 75.7629 94.9069 75.6308 94.9214 75.5002C94.936 75.3697 94.9761 75.2433 95.0395 75.1282C95.1029 75.0132 95.1883 74.9117 95.2909 74.8297C95.3935 74.7477 95.5113 74.6867 95.6375 74.6501C95.7637 74.6136 95.8958 74.6023 96.0264 74.6168C96.1569 74.6314 96.2833 74.6715 96.3984 74.7349L98.477 75.8805L99.9719 71.5971C100.015 71.4731 100.083 71.3589 100.17 71.2609C100.258 71.163 100.363 71.0832 100.482 71.0262C100.6 70.9691 100.728 70.936 100.86 70.9286C100.991 70.9212 101.122 70.9397 101.246 70.983Z" fill="#02F426"/>
<g filter="url(#filter9_f_0_861)">
<path d="M99 58L100.054 71.4115L108.191 60.6987L101.827 72.5508L114.464 67.9379L102.702 74.4677L115.827 77.4194L102.402 76.5537L111.848 86.1326L101.022 78.1463L103.789 91.3114L99 78.74L94.2105 91.3114L96.978 78.1463L86.1523 86.1326L95.598 76.5537L82.173 77.4194L95.2981 74.4677L83.5363 67.9379L96.1735 72.5508L89.8091 60.6987L97.9463 71.4115L99 58Z" fill="#00F942"/>
</g>
<defs>
<filter id="filter0_i_0_861" x="108" y="9.40385" width="180" height="54.5962" filterUnits="userSpaceOnUse" color-interpolation-filters="sRGB">
<feFlood flood-opacity="0" result="BackgroundImageFix"/>
<feBlend mode="normal" in="SourceGraphic" in2="BackgroundImageFix" result="shape"/>
<feColorMatrix in="SourceAlpha" type="matrix" values="0 0 0 0 0 0 0 0 0 0 0 0 0 0 0 0 0 0 127 0" result="hardAlpha"/>
<feOffset dy="-2.59615"/>
<feGaussianBlur stdDeviation="5.14904"/>
<feComposite in2="hardAlpha" operator="arithmetic" k2="-1" k3="1"/>
<feColorMatrix type="matrix" values="0 0 0 0 0.471154 0 0 0 0 0.471154 0 0 0 0 0.471154 0 0 0 0.11 0"/>
<feBlend mode="normal" in2="shape" result="effect1_innerShadow_0_861"/>
</filter>
<filter id="filter1_d_0_861" x="110.683" y="16.4519" width="46.5578" height="46.5577" filterUnits="userSpaceOnUse" color-interpolation-filters="sRGB">
<feFlood flood-opacity="0" result="BackgroundImageFix"/>
<feColorMatrix in="SourceAlpha" type="matrix" values="0 0 0 0 0 0 0 0 0 0 0 0 0 0 0 0 0 0 127 0" result="hardAlpha"/>
<feOffset dy="1.73077"/>
<feGaussianBlur stdDeviation="1.25481"/>
<feComposite in2="hardAlpha" operator="out"/>
<feColorMatrix type="matrix" values="0 0 0 0 0 0 0 0 0 0 0 0 0 0 0 0 0 0 0.21 0"/>
<feBlend mode="normal" in2="BackgroundImageFix" result="effect1_dropShadow_0_861"/>
<feBlend mode="normal" in="SourceGraphic" in2="effect1_dropShadow_0_861" result="shape"/>
</filter>
<filter id="filter2_d_0_861" x="110.165" y="20.2604" width="48.4609" height="44.9993" filterUnits="userSpaceOnUse" color-interpolation-filters="sRGB">
<feFlood flood-opacity="0" result="BackgroundImageFix"/>
<feColorMatrix in="SourceAlpha" type="matrix" values="0 0 0 0 0 0 0 0 0 0 0 0 0 0 0 0 0 0 127 0" result="hardAlpha"/>
<feOffset dy="4.32692"/>
<feGaussianBlur stdDeviation="2.8125"/>
<feComposite in2="hardAlpha" operator="out"/>
<feColorMatrix type="matrix" values="0 0 0 0 0 0 0 0 0 0 0 0 0 0 0 0 0 0 0.11 0"/>
<feBlend mode="normal" in2="BackgroundImageFix" result="effect1_dropShadow_0_861"/>
<feBlend mode="normal" in="SourceGraphic" in2="effect1_dropShadow_0_861" result="shape"/>
</filter>
<filter id="filter3_i_0_861" x="108" y="137.404" width="180" height="54.5962" filterUnits="userSpaceOnUse" color-interpolation-filters="sRGB">
<feFlood flood-opacity="0" result="BackgroundImageFix"/>
<feBlend mode="normal" in="SourceGraphic" in2="BackgroundImageFix" result="shape"/>
<feColorMatrix in="SourceAlpha" type="matrix" values="0 0 0 0 0 0 0 0 0 0 0 0 0 0 0 0 0 0 127 0" result="hardAlpha"/>
<feOffset dy="-2.59615"/>
<feGaussianBlur stdDeviation="5.14904"/>
<feComposite in2="hardAlpha" operator="arithmetic" k2="-1" k3="1"/>
<feColorMatrix type="matrix" values="0 0 0 0 0.471154 0 0 0 0 0.471154 0 0 0 0 0.471154 0 0 0 0.11 0"/>
<feBlend mode="normal" in2="shape" result="effect1_innerShadow_0_861"/>
</filter>
<filter id="filter4_d_0_861" x="110.683" y="144.452" width="46.5578" height="46.5577" filterUnits="userSpaceOnUse" color-interpolation-filters="sRGB">
<feFlood flood-opacity="0" result="BackgroundImageFix"/>
<feColorMatrix in="SourceAlpha" type="matrix" values="0 0 0 0 0 0 0 0 0 0 0 0 0 0 0 0 0 0 127 0" result="hardAlpha"/>
<feOffset dy="1.73077"/>
<feGaussianBlur stdDeviation="1.25481"/>
<feComposite in2="hardAlpha" operator="out"/>
<feColorMatrix type="matrix" values="0 0 0 0 0 0 0 0 0 0 0 0 0 0 0 0 0 0 0.21 0"/>
<feBlend mode="normal" in2="BackgroundImageFix" result="effect1_dropShadow_0_861"/>
<feBlend mode="normal" in="SourceGraphic" in2="effect1_dropShadow_0_861" result="shape"/>
</filter>
<filter id="filter5_d_0_861" x="110.165" y="148.26" width="48.4609" height="44.9993" filterUnits="userSpaceOnUse" color-interpolation-filters="sRGB">
<feFlood flood-opacity="0" result="BackgroundImageFix"/>
<feColorMatrix in="SourceAlpha" type="matrix" values="0 0 0 0 0 0 0 0 0 0 0 0 0 0 0 0 0 0 127 0" result="hardAlpha"/>
<feOffset dy="4.32692"/>
<feGaussianBlur stdDeviation="2.8125"/>
<feComposite in2="hardAlpha" operator="out"/>
<feColorMatrix type="matrix" values="0 0 0 0 0 0 0 0 0 0 0 0 0 0 0 0 0 0 0.11 0"/>
<feBlend mode="normal" in2="BackgroundImageFix" result="effect1_dropShadow_0_861"/>
<feBlend mode="normal" in="SourceGraphic" in2="effect1_dropShadow_0_861" result="shape"/>
</filter>
<filter id="filter6_di_0_861" x="75.8" y="65.8" width="244.4" height="96.4" filterUnits="userSpaceOnUse" color-interpolation-filters="sRGB">
<feFlood flood-opacity="0" result="BackgroundImageFix"/>
<feColorMatrix in="SourceAlpha" type="matrix" values="0 0 0 0 0 0 0 0 0 0 0 0 0 0 0 0 0 0 127 0" result="hardAlpha"/>
<feOffset dy="12"/>
<feGaussianBlur stdDeviation="9.1"/>
<feComposite in2="hardAlpha" operator="out"/>
<feColorMatrix type="matrix" values="0 0 0 0 0 0 0 0 0 0 0 0 0 0 0 0 0 0 0.08 0"/>
<feBlend mode="normal" in2="BackgroundImageFix" result="effect1_dropShadow_0_861"/>
<feBlend mode="normal" in="SourceGraphic" in2="effect1_dropShadow_0_861" result="shape"/>
<feColorMatrix in="SourceAlpha" type="matrix" values="0 0 0 0 0 0 0 0 0 0 0 0 0 0 0 0 0 0 127 0" result="hardAlpha"/>
<feOffset dy="-3"/>
<feGaussianBlur stdDeviation="5.95"/>
<feComposite in2="hardAlpha" operator="arithmetic" k2="-1" k3="1"/>
<feColorMatrix type="matrix" values="0 0 0 0 0.471154 0 0 0 0 0.471154 0 0 0 0 0.471154 0 0 0 0.11 0"/>
<feBlend mode="normal" in2="shape" result="effect2_innerShadow_0_861"/>
</filter>
<filter id="filter7_d_0_861" x="97.1" y="77.1" width="53.8" height="53.8" filterUnits="userSpaceOnUse" color-interpolation-filters="sRGB">
<feFlood flood-opacity="0" result="BackgroundImageFix"/>
<feColorMatrix in="SourceAlpha" type="matrix" values="0 0 0 0 0 0 0 0 0 0 0 0 0 0 0 0 0 0 127 0" result="hardAlpha"/>
<feOffset dy="2"/>
<feGaussianBlur stdDeviation="1.45"/>
<feComposite in2="hardAlpha" operator="out"/>
<feColorMatrix type="matrix" values="0 0 0 0 0 0 0 0 0 0 0 0 0 0 0 0 0 0 0.21 0"/>
<feBlend mode="normal" in2="BackgroundImageFix" result="effect1_dropShadow_0_861"/>
<feBlend mode="normal" in="SourceGraphic" in2="effect1_dropShadow_0_861" result="shape"/>
</filter>
<filter id="filter8_d_0_861" x="96.5" y="81.5" width="56" height="51.9999" filterUnits="userSpaceOnUse" color-interpolation-filters="sRGB">
<feFlood flood-opacity="0" result="BackgroundImageFix"/>
<feColorMatrix in="SourceAlpha" type="matrix" values="0 0 0 0 0 0 0 0 0 0 0 0 0 0 0 0 0 0 127 0" result="hardAlpha"/>
<feOffset dy="5"/>
<feGaussianBlur stdDeviation="3.25"/>
<feComposite in2="hardAlpha" operator="out"/>
<feColorMatrix type="matrix" values="0 0 0 0 0 0 0 0 0 0 0 0 0 0 0 0 0 0 0.11 0"/>
<feBlend mode="normal" in2="BackgroundImageFix" result="effect1_dropShadow_0_861"/>
<feBlend mode="normal" in="SourceGraphic" in2="effect1_dropShadow_0_861" result="shape"/>
</filter>
<filter id="filter9_f_0_861" x="54.1729" y="30" width="89.6543" height="89.3114" filterUnits="userSpaceOnUse" color-interpolation-filters="sRGB">
<feFlood flood-opacity="0" result="BackgroundImageFix"/>
<feBlend mode="normal" in="SourceGraphic" in2="BackgroundImageFix" result="shape"/>
<feGaussianBlur stdDeviation="14" result="effect1_foregroundBlur_0_861"/>
</filter>
<linearGradient id="paint0_linear_0_861" x1="134.481" y1="25.02" x2="134.481" y2="51.8462" gradientUnits="userSpaceOnUse">
<stop stop-color="#0485E7"/>
<stop offset="1" stop-color="#49B0FF"/>
</linearGradient>
<linearGradient id="paint1_linear_0_861" x1="134.481" y1="153.02" x2="134.481" y2="179.846" gradientUnits="userSpaceOnUse">
<stop stop-color="#0485E7"/>
<stop offset="1" stop-color="#49B0FF"/>
</linearGradient>
<linearGradient id="paint2_linear_0_861" x1="124.599" y1="87" x2="124.599" y2="118" gradientUnits="userSpaceOnUse">
<stop stop-color="#0485E7"/>
<stop offset="1" stop-color="#49B0FF"/>
</linearGradient>
<clipPath id="clip0_0_861">
<rect x="113.192" y="17.2307" width="41.5385" height="41.5385" rx="10.3846" fill="white"/>
</clipPath>
<clipPath id="clip1_0_861">
<rect x="113.192" y="145.231" width="41.5385" height="41.5385" rx="10.3846" fill="white"/>
</clipPath>
<clipPath id="clip2_0_861">
<rect x="100" y="78" width="48" height="48" rx="12" fill="white"/>
</clipPath>
</defs>
</svg>
