<svg width="396" height="204" viewBox="0 0 396 204" fill="none" xmlns="http://www.w3.org/2000/svg">
<rect x="1" y="1" width="394" height="202" rx="25" fill="white"/>
<rect x="1" y="1" width="394" height="202" rx="25" stroke="#F3F5F5" stroke-width="2"/>
<g filter="url(#filter0_i_0_840)">
<rect x="127" y="98" width="142" height="8" fill="url(#paint0_linear_0_840)"/>
</g>
<g filter="url(#filter1_i_0_840)">
<rect x="16" y="35" width="134" height="134" rx="24" fill="#FDFDFD"/>
<rect x="16.5" y="35.5" width="133" height="133" rx="23.5" stroke="url(#paint1_linear_0_840)"/>
<g filter="url(#filter2_d_0_840)">
<g clip-path="url(#clip0_0_840)">
<rect x="21" y="40" width="124" height="124" rx="22" fill="#3EA0EB"/>
<g filter="url(#filter3_f_0_840)" style="mix-blend-mode:overlay">
<ellipse cx="141.047" cy="141.609" rx="35.5588" ry="43.4608" fill="#1765FF"/>
</g>
<g opacity="0.34" filter="url(#filter4_f_0_840)" style="mix-blend-mode:plus-lighter">
<ellipse cx="129.53" cy="158.328" rx="28.5147" ry="34.8513" fill="#246EFF"/>
</g>
<g filter="url(#filter5_f_0_840)" style="mix-blend-mode:overlay">
<ellipse cx="82.8987" cy="182.539" rx="35.5588" ry="43.4608" fill="#1765FF"/>
</g>
<g opacity="0.34" filter="url(#filter6_f_0_840)" style="mix-blend-mode:plus-lighter">
<ellipse cx="82.8975" cy="191.148" rx="28.5147" ry="34.8513" fill="#1765FF"/>
</g>
<g filter="url(#filter7_f_0_840)" style="mix-blend-mode:overlay">
<ellipse cx="24.7502" cy="141.611" rx="35.5588" ry="43.4608" fill="#1765FF"/>
</g>
<g opacity="0.34" filter="url(#filter8_f_0_840)" style="mix-blend-mode:plus-lighter">
<ellipse cx="36.2686" cy="158.328" rx="28.5147" ry="34.8513" fill="#1765FF"/>
</g>
<path d="M93.1289 134.823L72.8672 146.98V101.595L93.1289 89.4375V134.823ZM110.755 89.4375H43.082L55.2393 69.1758H122.912L110.755 89.4375Z" fill="url(#paint2_linear_0_840)"/>
</g>
<rect x="21.5" y="40.5" width="123" height="123" rx="21.5" stroke="url(#paint3_linear_0_840)"/>
</g>
</g>
<g filter="url(#filter9_i_0_840)">
<rect x="246" y="35" width="134" height="134" rx="24" fill="#FDFDFD"/>
<rect x="246.5" y="35.5" width="133" height="133" rx="23.5" stroke="url(#paint4_linear_0_840)"/>
<g filter="url(#filter10_d_0_840)">
<rect x="251" y="40" width="124" height="124" rx="22" fill="#FEFEFE"/>
<rect x="251.5" y="40.5" width="123" height="123" rx="21.5" stroke="#F2F2F2"/>
<g filter="url(#filter11_d_0_840)">
<mask id="path-18-outside-1_0_840" maskUnits="userSpaceOnUse" x="276" y="80" width="74" height="45" fill="black">
<rect fill="white" x="276" y="80" width="74" height="45"/>
<path fill-rule="evenodd" clip-rule="evenodd" d="M343.209 84.0039C343.273 84.0058 343.337 84.0076 343.4 84.0137C343.454 84.0188 343.507 84.0281 343.56 84.0361C343.6 84.0423 343.641 84.0467 343.682 84.0547C343.741 84.0664 343.799 84.0824 343.857 84.0977C343.888 84.1056 343.918 84.1112 343.948 84.1201C344.003 84.1366 344.057 84.1572 344.11 84.1768C344.147 84.19 344.184 84.202 344.22 84.2168C344.27 84.2375 344.318 84.2617 344.367 84.2852C344.402 84.3017 344.437 84.317 344.471 84.335C344.524 84.363 344.574 84.3946 344.625 84.4258C344.654 84.4437 344.684 84.4604 344.713 84.4795C344.766 84.5149 344.817 84.553 344.868 84.5918C344.892 84.6103 344.918 84.6271 344.941 84.6465C345.09 84.7677 345.226 84.9036 345.348 85.0518C345.364 85.0719 345.379 85.0938 345.395 85.1143C345.436 85.1678 345.477 85.2219 345.515 85.2783C345.536 85.3109 345.556 85.3447 345.576 85.3779C345.605 85.4245 345.634 85.4703 345.66 85.5186C345.679 85.5543 345.695 85.5915 345.713 85.6279C345.736 85.6764 345.761 85.7245 345.781 85.7744C345.793 85.8029 345.802 85.8325 345.812 85.8613C345.932 86.1769 346 86.5177 346 86.875V105.782C346 107.37 344.713 108.657 343.125 108.657C341.537 108.657 340.25 107.37 340.25 105.782V93.8359L326.334 107.812C324.722 109.43 323.336 110.829 322.084 111.817C320.782 112.846 319.334 113.674 317.534 113.838H317.529C317.02 113.883 316.51 113.883 316.001 113.838L315.991 113.837C314.195 113.67 312.75 112.845 311.447 111.816C310.196 110.828 308.81 109.431 307.197 107.812C305.485 106.092 304.377 104.986 303.458 104.26C302.698 103.659 302.295 103.509 302.048 103.467L301.951 103.454C301.786 103.439 301.619 103.439 301.454 103.454L301.453 103.453C301.211 103.477 300.807 103.583 299.947 104.262C299.028 104.987 297.921 106.092 296.209 107.812L284.912 119.155C283.792 120.28 281.972 120.284 280.847 119.164C279.722 118.044 279.718 116.224 280.838 115.099L292.135 103.754C293.748 102.134 295.133 100.737 296.385 99.749C297.687 98.7206 299.133 97.8943 300.929 97.7275H300.935C301.446 97.6812 301.96 97.6812 302.471 97.7275H302.472C304.272 97.8912 305.719 98.7193 307.021 99.748C308.273 100.737 309.659 102.135 311.271 103.754C312.984 105.473 314.091 106.578 315.01 107.304C315.871 107.983 316.275 108.088 316.517 108.111C316.683 108.126 316.848 108.126 317.014 108.111L317.11 108.099C317.358 108.056 317.76 107.906 318.52 107.306C319.439 106.579 320.546 105.474 322.259 103.754L336.204 89.75H324.297C322.709 89.75 321.422 88.4628 321.422 86.875C321.422 85.2872 322.709 84 324.297 84H343.125C343.153 84 343.181 84.0031 343.209 84.0039Z"/>
</mask>
<path fill-rule="evenodd" clip-rule="evenodd" d="M343.209 84.0039C343.273 84.0058 343.337 84.0076 343.4 84.0137C343.454 84.0188 343.507 84.0281 343.56 84.0361C343.6 84.0423 343.641 84.0467 343.682 84.0547C343.741 84.0664 343.799 84.0824 343.857 84.0977C343.888 84.1056 343.918 84.1112 343.948 84.1201C344.003 84.1366 344.057 84.1572 344.11 84.1768C344.147 84.19 344.184 84.202 344.22 84.2168C344.27 84.2375 344.318 84.2617 344.367 84.2852C344.402 84.3017 344.437 84.317 344.471 84.335C344.524 84.363 344.574 84.3946 344.625 84.4258C344.654 84.4437 344.684 84.4604 344.713 84.4795C344.766 84.5149 344.817 84.553 344.868 84.5918C344.892 84.6103 344.918 84.6271 344.941 84.6465C345.09 84.7677 345.226 84.9036 345.348 85.0518C345.364 85.0719 345.379 85.0938 345.395 85.1143C345.436 85.1678 345.477 85.2219 345.515 85.2783C345.536 85.3109 345.556 85.3447 345.576 85.3779C345.605 85.4245 345.634 85.4703 345.66 85.5186C345.679 85.5543 345.695 85.5915 345.713 85.6279C345.736 85.6764 345.761 85.7245 345.781 85.7744C345.793 85.8029 345.802 85.8325 345.812 85.8613C345.932 86.1769 346 86.5177 346 86.875V105.782C346 107.37 344.713 108.657 343.125 108.657C341.537 108.657 340.25 107.37 340.25 105.782V93.8359L326.334 107.812C324.722 109.43 323.336 110.829 322.084 111.817C320.782 112.846 319.334 113.674 317.534 113.838H317.529C317.02 113.883 316.51 113.883 316.001 113.838L315.991 113.837C314.195 113.67 312.75 112.845 311.447 111.816C310.196 110.828 308.81 109.431 307.197 107.812C305.485 106.092 304.377 104.986 303.458 104.26C302.698 103.659 302.295 103.509 302.048 103.467L301.951 103.454C301.786 103.439 301.619 103.439 301.454 103.454L301.453 103.453C301.211 103.477 300.807 103.583 299.947 104.262C299.028 104.987 297.921 106.092 296.209 107.812L284.912 119.155C283.792 120.28 281.972 120.284 280.847 119.164C279.722 118.044 279.718 116.224 280.838 115.099L292.135 103.754C293.748 102.134 295.133 100.737 296.385 99.749C297.687 98.7206 299.133 97.8943 300.929 97.7275H300.935C301.446 97.6812 301.96 97.6812 302.471 97.7275H302.472C304.272 97.8912 305.719 98.7193 307.021 99.748C308.273 100.737 309.659 102.135 311.271 103.754C312.984 105.473 314.091 106.578 315.01 107.304C315.871 107.983 316.275 108.088 316.517 108.111C316.683 108.126 316.848 108.126 317.014 108.111L317.11 108.099C317.358 108.056 317.76 107.906 318.52 107.306C319.439 106.579 320.546 105.474 322.259 103.754L336.204 89.75H324.297C322.709 89.75 321.422 88.4628 321.422 86.875C321.422 85.2872 322.709 84 324.297 84H343.125C343.153 84 343.181 84.0031 343.209 84.0039Z" fill="url(#paint5_linear_0_840)"/>
<path d="M343.209 84.0039L343.326 80.0056L343.324 80.0056L343.209 84.0039ZM343.4 84.0137L343.019 87.9955L343.022 87.9957L343.4 84.0137ZM343.56 84.0361L344.162 80.0817L344.16 80.0815L343.56 84.0361ZM343.682 84.0547L342.91 87.9796L342.911 87.9798L343.682 84.0547ZM343.857 84.0977L342.84 87.9661L342.841 87.9663L343.857 84.0977ZM343.948 84.1201L345.092 80.2872L345.09 80.2866L343.948 84.1201ZM344.11 84.1768L342.738 87.9339L342.741 87.9349L344.11 84.1768ZM344.22 84.2168L345.744 80.5188L345.742 80.5176L344.22 84.2168ZM344.367 84.2852L342.635 87.8905L342.637 87.8917L344.367 84.2852ZM344.471 84.335L346.346 80.802L346.345 80.801L344.471 84.335ZM344.625 84.4258L342.533 87.8349L342.533 87.8351L344.625 84.4258ZM344.713 84.4795L342.499 87.8111L342.5 87.8115L344.713 84.4795ZM344.868 84.5918L347.3 81.4156L347.298 81.4142L344.868 84.5918ZM344.941 84.6465L342.41 87.7439L342.412 87.7456L344.941 84.6465ZM345.348 85.0518L342.257 87.5905L342.258 87.5919L345.348 85.0518ZM345.395 85.1143L348.553 82.66L348.552 82.6588L345.395 85.1143ZM345.515 85.2783L348.838 83.053L348.838 83.0529L345.515 85.2783ZM345.576 85.3779L342.164 87.4652L342.165 87.4662L345.576 85.3779ZM345.66 85.5186L349.187 83.6306L349.185 83.6283L345.66 85.5186ZM345.713 85.6279L342.109 87.364L342.111 87.3671L345.713 85.6279ZM345.781 85.7744L349.477 84.2452L349.476 84.2417L345.781 85.7744ZM345.812 85.8613L342.069 87.2704L342.07 87.2737L345.812 85.8613ZM343.125 108.657V112.657H343.125L343.125 108.657ZM340.25 93.8359H344.25C344.25 92.2165 343.274 90.7569 341.777 90.1388C340.28 89.5207 338.558 89.866 337.416 91.0136L340.25 93.8359ZM326.334 107.812L329.168 110.634L329.168 110.634L326.334 107.812ZM322.084 111.817L324.563 114.956L324.564 114.956L322.084 111.817ZM317.534 113.838V117.838C317.655 117.838 317.776 117.832 317.897 117.821L317.534 113.838ZM317.529 113.838V109.838C317.411 109.838 317.292 109.843 317.174 109.854L317.529 113.838ZM316.001 113.838L315.603 117.818C315.617 117.819 315.631 117.821 315.645 117.822L316.001 113.838ZM315.991 113.837L316.389 109.857C316.38 109.856 316.37 109.855 316.361 109.854L315.991 113.837ZM311.447 111.816L308.969 114.956L308.969 114.956L311.447 111.816ZM307.197 107.812L310.032 104.989L310.032 104.989L307.197 107.812ZM303.458 104.26L305.938 101.121L305.938 101.121L303.458 104.26ZM302.048 103.467L302.727 99.5249C302.674 99.5158 302.622 99.5078 302.569 99.5008L302.048 103.467ZM301.951 103.454L302.472 99.4881C302.419 99.4812 302.366 99.4753 302.312 99.4704L301.951 103.454ZM301.454 103.454L298.626 106.283C299.465 107.122 300.634 107.545 301.816 107.438L301.454 103.454ZM301.453 103.453L304.282 100.625C303.435 99.7783 302.254 99.3554 301.063 99.4722L301.453 103.453ZM299.947 104.262L297.469 101.122L297.468 101.122L299.947 104.262ZM296.209 107.812L299.043 110.634L299.043 110.634L296.209 107.812ZM284.912 119.155L282.078 116.333L282.078 116.333L284.912 119.155ZM280.847 119.164L278.024 121.998L278.024 121.999L280.847 119.164ZM280.838 115.099L278.003 112.276L278.003 112.276L280.838 115.099ZM292.135 103.754L289.3 100.931L289.3 100.931L292.135 103.754ZM296.385 99.749L293.906 96.6096L293.906 96.6096L296.385 99.749ZM300.929 97.7275V93.7275C300.805 93.7275 300.682 93.7333 300.559 93.7447L300.929 97.7275ZM300.935 97.7275V101.728C301.055 101.728 301.176 101.722 301.296 101.711L300.935 97.7275ZM302.471 97.7275L302.109 101.711C302.23 101.722 302.35 101.728 302.471 101.728V97.7275ZM302.472 97.7275L302.834 93.744C302.714 93.733 302.593 93.7275 302.472 93.7275V97.7275ZM307.021 99.748L309.501 96.6093L309.501 96.6092L307.021 99.748ZM311.271 103.754L308.437 106.576V106.576L311.271 103.754ZM315.01 107.304L312.531 110.443L312.531 110.443L315.01 107.304ZM316.517 108.111L316.129 112.093C316.142 112.094 316.154 112.095 316.167 112.096L316.517 108.111ZM317.014 108.111L317.363 112.096C317.42 112.091 317.478 112.085 317.534 112.077L317.014 108.111ZM317.11 108.099L317.631 112.065C317.684 112.058 317.737 112.05 317.79 112.041L317.11 108.099ZM318.52 107.306L320.999 110.445L320.999 110.444L318.52 107.306ZM322.259 103.754L319.424 100.931L319.424 100.931L322.259 103.754ZM336.204 89.75L339.038 92.5725C340.179 91.4272 340.518 89.708 339.898 88.2154C339.278 86.7228 337.82 85.75 336.204 85.75V89.75ZM343.125 84L343.125 80H343.125V84ZM343.209 84.0039L343.092 88.0022C343.11 88.0027 343.118 88.003 343.125 88.0032C343.131 88.0034 343.129 88.0034 343.124 88.0031C343.113 88.0026 343.074 88.0008 343.019 87.9955L343.4 84.0137L343.782 80.0319C343.563 80.0109 343.364 80.0067 343.326 80.0056L343.209 84.0039ZM343.4 84.0137L343.022 87.9957C342.982 87.992 342.951 87.9881 342.928 87.9853C342.907 87.9825 342.891 87.9802 342.887 87.9795C342.883 87.979 342.883 87.9789 342.897 87.9811C342.902 87.982 342.912 87.9835 342.921 87.985C342.932 87.9866 342.944 87.9886 342.959 87.9908L343.56 84.0361L344.16 80.0815C344.161 80.0816 344.16 80.0815 344.143 80.0788C344.131 80.0768 344.104 80.0726 344.074 80.0681C344.014 80.0592 343.908 80.0439 343.779 80.0316L343.4 84.0137ZM343.56 84.0361L342.957 87.9905C342.995 87.9962 343.026 88.0006 343.042 88.0028C343.049 88.0038 343.059 88.0051 343.061 88.0053C343.064 88.0059 343.064 88.0059 343.063 88.0056C343.06 88.0052 343.043 88.0028 343.019 87.999C342.994 87.995 342.956 87.9887 342.91 87.9796L343.682 84.0547L344.453 80.1297C344.326 80.1048 344.221 80.0898 344.179 80.0839C344.167 80.0822 344.157 80.0808 344.15 80.0799C344.142 80.0787 344.141 80.0787 344.138 80.0782C344.134 80.0776 344.145 80.0791 344.162 80.0817L343.56 84.0361ZM343.682 84.0547L342.911 87.9798C342.846 87.9671 342.802 87.9558 342.792 87.9535C342.787 87.9522 342.787 87.952 342.795 87.9543C342.8 87.9555 342.804 87.9567 342.812 87.9588C342.819 87.9607 342.829 87.9633 342.84 87.9661L343.857 84.0977L344.875 80.2293C344.875 80.2292 344.804 80.2102 344.748 80.1961C344.68 80.1791 344.576 80.154 344.452 80.1296L343.682 84.0547ZM343.857 84.0977L342.841 87.9663C342.869 87.9737 342.894 87.98 342.915 87.9851C342.936 87.9902 342.953 87.9944 342.967 87.9975C342.979 88.0005 342.99 88.0031 342.996 88.0043C342.997 88.0046 342.999 88.0049 343 88.0052C343.001 88.0054 343.001 88.0056 343.002 88.0057C343.003 88.006 343.003 88.006 343.002 88.0059C343.001 88.0056 342.995 88.0042 342.987 88.0022C342.978 88.0001 342.965 87.9969 342.949 87.9928C342.917 87.9848 342.867 87.9718 342.806 87.9536L343.948 84.1201L345.09 80.2866C345.014 80.264 344.95 80.247 344.903 80.2351C344.857 80.2236 344.819 80.2149 344.803 80.2112C344.799 80.2102 344.795 80.2093 344.792 80.2087C344.788 80.2078 344.789 80.208 344.787 80.2075C344.785 80.207 344.788 80.2077 344.794 80.209C344.804 80.2114 344.834 80.2185 344.874 80.229L343.857 84.0977ZM343.948 84.1201L342.804 87.9531C342.769 87.9424 342.74 87.933 342.719 87.9262C342.699 87.9195 342.685 87.9144 342.68 87.9127C342.676 87.9111 342.675 87.9109 342.686 87.9149C342.689 87.9159 342.691 87.9168 342.695 87.9181C342.698 87.9193 342.702 87.9208 342.706 87.9224C342.715 87.9254 342.726 87.9295 342.738 87.9339L344.11 84.1768L345.483 80.4196C345.477 80.4175 345.475 80.4167 345.454 80.409C345.438 80.4031 345.411 80.393 345.38 80.3819C345.318 80.3598 345.216 80.3241 345.092 80.2872L343.948 84.1201ZM344.11 84.1768L342.741 87.9349C342.771 87.9461 342.797 87.9553 342.81 87.9598C342.814 87.961 342.817 87.9621 342.819 87.9629C342.822 87.9639 342.823 87.9644 342.825 87.9649C342.828 87.966 342.827 87.9659 342.826 87.9653C342.823 87.9644 342.809 87.9592 342.788 87.9515C342.767 87.9437 342.736 87.9317 342.698 87.916L344.22 84.2168L345.742 80.5176C345.633 80.4731 345.543 80.4409 345.504 80.4271C345.494 80.4233 345.484 80.42 345.478 80.4178C345.468 80.414 345.472 80.4155 345.465 80.4133C345.46 80.4114 345.468 80.4141 345.48 80.4186L344.11 84.1768ZM344.22 84.2168L342.695 87.9148C342.663 87.9018 342.638 87.8906 342.62 87.8825C342.602 87.8745 342.59 87.8687 342.585 87.8666C342.581 87.8647 342.581 87.8645 342.59 87.869C342.596 87.872 342.598 87.8727 342.607 87.8774C342.615 87.8808 342.624 87.8854 342.635 87.8905L344.367 84.2852L346.1 80.6798C346.093 80.6765 346.091 80.6758 346.071 80.666C346.056 80.6587 346.031 80.6468 346.003 80.6333C345.947 80.6068 345.856 80.5646 345.744 80.5188L344.22 84.2168ZM344.367 84.2852L342.637 87.8917C342.667 87.9058 342.692 87.9175 342.704 87.9233C342.707 87.9248 342.71 87.9262 342.713 87.9273C342.715 87.9285 342.717 87.9291 342.718 87.9298C342.721 87.9311 342.721 87.931 342.719 87.9303C342.717 87.9291 342.703 87.9226 342.683 87.9129C342.663 87.9031 342.633 87.8882 342.597 87.8689L344.471 84.335L346.345 80.801C346.242 80.7465 346.156 80.706 346.119 80.6887C346.109 80.6839 346.1 80.6798 346.094 80.6771C346.085 80.6727 346.087 80.6739 346.082 80.6715C346.077 80.6692 346.085 80.6728 346.097 80.6786L344.367 84.2852ZM344.471 84.335L342.595 87.8679C342.542 87.8397 342.506 87.8182 342.498 87.8133C342.493 87.8107 342.492 87.8101 342.499 87.8141C342.502 87.816 342.506 87.8184 342.512 87.822C342.517 87.825 342.525 87.8302 342.533 87.8349L344.625 84.4258L346.717 81.0167C346.709 81.0116 346.535 80.9023 346.346 80.802L344.471 84.335ZM344.625 84.4258L342.533 87.8351C342.563 87.8534 342.588 87.8684 342.601 87.876C342.607 87.8797 342.614 87.8837 342.616 87.8848C342.619 87.8867 342.619 87.8866 342.617 87.8859C342.615 87.8847 342.602 87.8767 342.583 87.865C342.564 87.853 342.535 87.8346 342.499 87.8111L344.713 84.4795L346.926 81.1478C346.831 81.0845 346.751 81.0366 346.721 81.0185C346.712 81.0134 346.705 81.009 346.701 81.0064C346.695 81.0032 346.695 81.0028 346.693 81.0021C346.691 81.001 346.702 81.0071 346.717 81.0165L344.625 84.4258ZM344.713 84.4795L342.5 87.8115C342.468 87.7904 342.446 87.7746 342.437 87.7676C342.428 87.7612 342.426 87.7598 342.439 87.7693L344.868 84.5918L347.298 81.4142C347.225 81.3587 347.091 81.257 346.926 81.1475L344.713 84.4795ZM344.868 84.5918L342.437 87.768C342.458 87.784 342.476 87.798 342.492 87.8094C342.507 87.8209 342.52 87.8306 342.53 87.8378C342.54 87.8448 342.548 87.8507 342.552 87.8535C342.553 87.8543 342.554 87.855 342.555 87.8555C342.556 87.8561 342.556 87.8565 342.556 87.8568C342.557 87.8574 342.557 87.8574 342.557 87.857C342.556 87.8563 342.551 87.853 342.545 87.8482C342.538 87.8432 342.528 87.8359 342.516 87.8267C342.492 87.8087 342.455 87.7804 342.41 87.7439L344.941 84.6465L347.472 81.549C347.416 81.5029 347.367 81.4652 347.331 81.438C347.296 81.4114 347.266 81.3902 347.253 81.3806C347.247 81.3762 347.24 81.371 347.239 81.3707C347.237 81.3691 347.239 81.3706 347.243 81.373C347.249 81.3778 347.271 81.3936 347.3 81.4156L344.868 84.5918ZM344.941 84.6465L342.412 87.7456C342.353 87.6972 342.301 87.645 342.257 87.5905L345.348 85.0518L348.439 82.513C348.151 82.1623 347.827 81.8382 347.47 81.5474L344.941 84.6465ZM345.348 85.0518L342.258 87.5919C342.218 87.543 342.186 87.5025 342.167 87.4765C342.157 87.4633 342.149 87.4526 342.144 87.4455C342.139 87.4386 342.135 87.4337 342.134 87.433C342.134 87.4326 342.134 87.4326 342.135 87.4337C342.136 87.4345 342.137 87.4369 342.139 87.4392C342.143 87.444 342.149 87.4533 342.157 87.4643C342.166 87.4756 342.177 87.4905 342.19 87.5079C342.203 87.5254 342.219 87.5463 342.237 87.5697L345.395 85.1143L348.552 82.6588C348.58 82.6943 348.6 82.7219 348.608 82.7331C348.613 82.7389 348.615 82.7428 348.615 82.7423C348.615 82.742 348.615 82.7418 348.613 82.7399C348.612 82.7385 348.61 82.7358 348.608 82.7328C348.6 82.7221 348.579 82.693 348.553 82.6578C348.525 82.6214 348.486 82.5706 348.438 82.5116L345.348 85.0518ZM345.395 85.1143L342.236 87.5685C342.245 87.5804 342.244 87.5786 342.237 87.569C342.229 87.5589 342.213 87.5362 342.191 87.5037L345.515 85.2783L348.838 83.0529C348.723 82.88 348.615 82.7394 348.553 82.66L345.395 85.1143ZM345.515 85.2783L342.191 87.5037C342.171 87.474 342.155 87.4496 342.145 87.4329C342.135 87.4165 342.127 87.4049 342.126 87.4021C342.125 87.4006 342.125 87.4003 342.126 87.4022C342.128 87.4052 342.128 87.4064 342.132 87.4128C342.138 87.422 342.15 87.4421 342.164 87.4652L345.576 85.3779L348.988 83.2907C348.992 83.2971 348.994 83.3006 348.99 83.2931C348.988 83.2894 348.977 83.2712 348.966 83.2536C348.944 83.2171 348.898 83.142 348.838 83.053L345.515 85.2783ZM345.576 85.3779L342.165 87.4662C342.172 87.4788 342.179 87.49 342.185 87.4988C342.19 87.5071 342.195 87.5156 342.198 87.5201C342.205 87.5322 342.205 87.5318 342.203 87.5288C342.201 87.5248 342.193 87.5115 342.181 87.4921C342.17 87.4726 342.154 87.4442 342.135 87.4088L345.66 85.5186L349.185 83.6283C349.123 83.5122 349.067 83.4187 349.035 83.3664C349.019 83.3401 349.004 83.3165 348.998 83.3054C348.988 83.2904 348.988 83.2896 348.988 83.2896L345.576 85.3779ZM345.66 85.5186L342.134 87.4065C342.112 87.3665 342.096 87.3337 342.085 87.3117C342.074 87.2902 342.067 87.275 342.066 87.2722C342.065 87.2707 342.065 87.2705 342.067 87.2738C342.068 87.2756 342.068 87.2769 342.07 87.2799C342.071 87.2824 342.072 87.2859 342.074 87.2896C342.081 87.3035 342.093 87.3312 342.109 87.364L345.713 85.6279L349.317 83.8918C349.324 83.9064 349.328 83.9159 349.326 83.9114C349.324 83.9079 349.324 83.9081 349.32 83.8998C349.318 83.8938 349.313 83.8845 349.308 83.8738C349.29 83.8353 349.246 83.742 349.187 83.6306L345.66 85.5186ZM345.713 85.6279L342.111 87.3671C342.116 87.3781 342.121 87.388 342.125 87.3956C342.126 87.3994 342.128 87.4031 342.13 87.406C342.131 87.4091 342.132 87.4115 342.133 87.4138C342.138 87.4237 342.138 87.4234 342.136 87.4196C342.134 87.4152 342.128 87.4025 342.12 87.3843C342.112 87.3659 342.1 87.3396 342.087 87.3071L345.781 85.7744L349.476 84.2417C349.429 84.1292 349.386 84.0371 349.36 83.9816C349.347 83.9536 349.335 83.929 349.328 83.9147C349.318 83.8958 349.318 83.8939 349.315 83.8888L345.713 85.6279ZM345.781 85.7744L342.085 87.3037C342.061 87.2446 342.043 87.1963 342.031 87.1652C342.025 87.1494 342.021 87.1366 342.018 87.128C342.015 87.1196 342.013 87.1137 342.013 87.1127C342.012 87.1121 342.012 87.112 342.013 87.1132C342.013 87.1132 342.014 87.1174 342.015 87.1193C342.017 87.1245 342.02 87.1352 342.025 87.1478C342.029 87.1607 342.035 87.1781 342.042 87.1983C342.05 87.2186 342.059 87.2429 342.069 87.2704L345.812 85.8613L349.556 84.4523C349.571 84.4915 349.581 84.5212 349.585 84.5314C349.587 84.5367 349.588 84.5401 349.587 84.5381C349.586 84.5363 349.587 84.5369 349.585 84.5332C349.585 84.5308 349.583 84.5271 349.582 84.5229C349.577 84.5075 349.564 84.4711 349.548 84.4267C349.531 84.3812 349.508 84.3185 349.477 84.2452L345.781 85.7744ZM345.812 85.8613L342.07 87.2737C342.031 87.1703 342 87.0337 342 86.875H346H350C350 86.0018 349.832 85.1835 349.555 84.4489L345.812 85.8613ZM346 86.875H342V105.782H346H350V86.875H346ZM346 105.782H342C342 105.161 342.504 104.657 343.125 104.657L343.125 108.657L343.125 112.657C346.922 112.657 350 109.579 350 105.782H346ZM343.125 108.657V104.657C343.746 104.657 344.25 105.161 344.25 105.782H340.25H336.25C336.25 109.579 339.328 112.657 343.125 112.657V108.657ZM340.25 105.782H344.25V93.8359H340.25H336.25V105.782H340.25ZM340.25 93.8359L337.416 91.0136L323.5 104.989L326.334 107.812L329.168 110.634L343.084 96.6583L340.25 93.8359ZM326.334 107.812L323.5 104.989C321.821 106.675 320.626 107.872 319.604 108.679L322.084 111.817L324.564 114.956C326.045 113.786 327.623 112.186 329.168 110.634L326.334 107.812ZM322.084 111.817L319.605 108.679C318.603 109.47 317.884 109.79 317.172 109.854L317.534 113.838L317.897 117.821C320.784 117.559 322.96 116.222 324.563 114.956L322.084 111.817ZM317.534 113.838V109.838H317.529V113.838V117.838H317.534V113.838ZM317.529 113.838L317.174 109.854C316.901 109.878 316.629 109.878 316.357 109.854L316.001 113.838L315.645 117.822C316.391 117.889 317.139 117.889 317.885 117.822L317.529 113.838ZM316.001 113.838L316.399 109.858L316.389 109.857L315.991 113.837L315.593 117.817L315.603 117.818L316.001 113.838ZM315.991 113.837L316.361 109.854C315.647 109.788 314.927 109.467 313.926 108.677L311.447 111.816L308.969 114.956C310.573 116.223 312.744 117.553 315.622 117.82L315.991 113.837ZM311.447 111.816L313.926 108.677C312.905 107.871 311.711 106.675 310.032 104.989L307.197 107.812L304.363 110.634C305.909 112.187 307.486 113.786 308.969 114.956L311.447 111.816ZM307.197 107.812L310.032 104.989C308.392 103.343 307.089 102.031 305.938 101.121L303.458 104.26L300.978 107.398C301.666 107.941 302.577 108.84 304.363 110.634L307.197 107.812ZM303.458 104.26L305.938 101.121C304.943 100.336 303.919 99.7302 302.727 99.5249L302.048 103.467L301.369 107.409C301.214 107.382 301.073 107.344 300.949 107.301C300.831 107.26 300.751 107.222 300.715 107.203C300.654 107.171 300.73 107.202 300.978 107.399L303.458 104.26ZM302.048 103.467L302.569 99.5008L302.472 99.4881L301.951 103.454L301.43 107.42L301.527 107.433L302.048 103.467ZM301.951 103.454L302.312 99.4704C301.907 99.4337 301.499 99.4336 301.093 99.4705L301.454 103.454L301.816 107.438C301.74 107.445 301.665 107.445 301.59 107.438L301.951 103.454ZM301.454 103.454L304.283 100.626L304.282 100.625L301.453 103.453L298.625 106.282L298.626 106.283L301.454 103.454ZM301.453 103.453L301.063 99.4722C299.745 99.6014 298.622 100.211 297.469 101.122L299.947 104.262L302.426 107.401C302.712 107.175 302.773 107.165 302.659 107.219C302.593 107.251 302.476 107.301 302.315 107.346C302.144 107.394 301.981 107.421 301.843 107.434L301.453 103.453ZM299.947 104.262L297.468 101.122C296.317 102.031 295.014 103.343 293.375 104.989L296.209 107.812L299.043 110.634C300.828 108.841 301.739 107.943 302.426 107.401L299.947 104.262ZM296.209 107.812L293.375 104.989L282.078 116.333L284.912 119.155L287.746 121.978L299.043 110.634L296.209 107.812ZM284.912 119.155L282.078 116.333C282.516 115.893 283.229 115.891 283.669 116.33L280.847 119.164L278.024 121.999C280.715 124.678 285.068 124.668 287.746 121.978L284.912 119.155ZM280.847 119.164L283.669 116.33C284.109 116.768 284.111 117.48 283.672 117.921L280.838 115.099L278.003 112.276C275.324 114.967 275.334 119.32 278.024 121.998L280.847 119.164ZM280.838 115.099L283.672 117.921L294.969 106.576L292.135 103.754L289.3 100.931L278.003 112.276L280.838 115.099ZM292.135 103.754L294.969 106.576C296.648 104.89 297.842 103.695 298.863 102.888L296.385 99.749L293.906 96.6096C292.424 97.78 290.847 99.3785 289.3 100.931L292.135 103.754ZM296.385 99.749L298.863 102.888C299.866 102.097 300.585 101.777 301.298 101.71L300.929 97.7275L300.559 93.7447C297.68 94.0119 295.509 95.3439 293.906 96.6096L296.385 99.749ZM300.929 97.7275V101.728H300.935V97.7275V93.7275H300.929V97.7275ZM300.935 97.7275L301.296 101.711C301.566 101.687 301.839 101.687 302.109 101.711L302.471 97.7275L302.832 93.7439C302.081 93.6758 301.325 93.6757 300.573 93.7439L300.935 97.7275ZM302.471 97.7275V101.728H302.472V97.7275V93.7275H302.471V97.7275ZM302.472 97.7275L302.109 101.711C302.821 101.776 303.54 102.096 304.542 102.887L307.021 99.748L309.501 96.6092C307.898 95.3429 305.722 94.0066 302.834 93.744L302.472 97.7275ZM307.021 99.748L304.542 102.887C305.563 103.694 306.758 104.89 308.437 106.576L311.271 103.754L314.106 100.931C312.56 99.3795 310.983 97.7798 309.501 96.6093L307.021 99.748ZM311.271 103.754L308.437 106.576C310.076 108.222 311.38 109.534 312.531 110.443L315.01 107.304L317.488 104.164C316.802 103.622 315.891 102.724 314.106 100.931L311.271 103.754ZM315.01 107.304L312.531 110.443C313.692 111.36 314.815 111.965 316.129 112.093L316.517 108.111L316.904 104.13C317.038 104.143 317.2 104.169 317.371 104.217C317.533 104.262 317.651 104.311 317.718 104.344C317.834 104.399 317.774 104.39 317.488 104.164L315.01 107.304ZM316.517 108.111L316.167 112.096C316.566 112.131 316.965 112.131 317.363 112.096L317.014 108.111L316.664 104.127C316.73 104.121 316.799 104.121 316.867 104.127L316.517 108.111ZM317.014 108.111L317.534 112.077L317.631 112.065L317.11 108.099L316.59 104.133L316.493 104.145L317.014 108.111ZM317.11 108.099L317.79 112.041C318.984 111.835 320.008 111.227 320.999 110.445L318.52 107.306L316.04 104.167C315.791 104.363 315.714 104.395 315.775 104.363C315.811 104.345 315.891 104.306 316.009 104.265C316.133 104.222 316.275 104.184 316.431 104.157L317.11 108.099ZM318.52 107.306L320.999 110.444C322.15 109.535 323.454 108.222 325.093 106.576L322.259 103.754L319.424 100.931C317.638 102.725 316.727 103.624 316.04 104.167L318.52 107.306ZM322.259 103.754L325.093 106.576L339.038 92.5725L336.204 89.75L333.37 86.9275L319.424 100.931L322.259 103.754ZM336.204 89.75V85.75H324.297V89.75V93.75H336.204V89.75ZM324.297 89.75V85.75C324.918 85.75 325.422 86.2537 325.422 86.875H321.422H317.422C317.422 90.672 320.5 93.75 324.297 93.75V89.75ZM321.422 86.875H325.422C325.422 87.4963 324.918 88 324.297 88V84V80C320.5 80 317.422 83.078 317.422 86.875H321.422ZM324.297 84V88H343.125V84V80H324.297V84ZM343.125 84L343.125 88C343.059 88 343.007 87.9982 342.973 87.9968C342.956 87.996 342.942 87.9953 342.933 87.9948C342.924 87.9943 342.918 87.9939 342.917 87.9938C342.917 87.9938 342.917 87.9938 342.918 87.9939C342.919 87.994 342.922 87.9942 342.925 87.9943C342.931 87.9947 342.943 87.9955 342.957 87.9963C342.972 87.9971 342.991 87.9982 343.013 87.9992C343.036 88.0003 343.063 88.0014 343.094 88.0023L343.209 84.0039L343.324 80.0056C343.37 80.0069 343.405 80.0088 343.419 80.0096C343.426 80.01 343.431 80.0103 343.43 80.0103C343.429 80.0103 343.429 80.0102 343.426 80.0101C343.424 80.0099 343.421 80.0097 343.417 80.0095C343.403 80.0086 343.365 80.0062 343.319 80.0042C343.272 80.0022 343.205 80 343.125 80L343.125 84Z" fill="white" mask="url(#path-18-outside-1_0_840)"/>
</g>
</g>
</g>
<rect x="169" y="98" width="35" height="8" fill="url(#paint6_linear_0_840)"/>
<defs>
<filter id="filter0_i_0_840" x="127" y="98" width="142" height="9" filterUnits="userSpaceOnUse" color-interpolation-filters="sRGB">
<feFlood flood-opacity="0" result="BackgroundImageFix"/>
<feBlend mode="normal" in="SourceGraphic" in2="BackgroundImageFix" result="shape"/>
<feColorMatrix in="SourceAlpha" type="matrix" values="0 0 0 0 0 0 0 0 0 0 0 0 0 0 0 0 0 0 127 0" result="hardAlpha"/>
<feOffset dy="1"/>
<feGaussianBlur stdDeviation="2"/>
<feComposite in2="hardAlpha" operator="arithmetic" k2="-1" k3="1"/>
<feColorMatrix type="matrix" values="0 0 0 0 0 0 0 0 0 0 0 0 0 0 0 0 0 0 0.09 0"/>
<feBlend mode="normal" in2="shape" result="effect1_innerShadow_0_840"/>
</filter>
<filter id="filter1_i_0_840" x="16" y="32" width="134" height="137" filterUnits="userSpaceOnUse" color-interpolation-filters="sRGB">
<feFlood flood-opacity="0" result="BackgroundImageFix"/>
<feBlend mode="normal" in="SourceGraphic" in2="BackgroundImageFix" result="shape"/>
<feColorMatrix in="SourceAlpha" type="matrix" values="0 0 0 0 0 0 0 0 0 0 0 0 0 0 0 0 0 0 127 0" result="hardAlpha"/>
<feOffset dy="-3"/>
<feGaussianBlur stdDeviation="5.95"/>
<feComposite in2="hardAlpha" operator="arithmetic" k2="-1" k3="1"/>
<feColorMatrix type="matrix" values="0 0 0 0 0.471154 0 0 0 0 0.471154 0 0 0 0 0.471154 0 0 0 0.25 0"/>
<feBlend mode="normal" in2="shape" result="effect1_innerShadow_0_840"/>
</filter>
<filter id="filter2_d_0_840" x="18.1" y="39.1" width="129.8" height="129.8" filterUnits="userSpaceOnUse" color-interpolation-filters="sRGB">
<feFlood flood-opacity="0" result="BackgroundImageFix"/>
<feColorMatrix in="SourceAlpha" type="matrix" values="0 0 0 0 0 0 0 0 0 0 0 0 0 0 0 0 0 0 127 0" result="hardAlpha"/>
<feOffset dy="2"/>
<feGaussianBlur stdDeviation="1.45"/>
<feComposite in2="hardAlpha" operator="out"/>
<feColorMatrix type="matrix" values="0 0 0 0 0 0 0 0 0 0 0 0 0 0 0 0 0 0 0.2 0"/>
<feBlend mode="normal" in2="BackgroundImageFix" result="effect1_dropShadow_0_840"/>
<feBlend mode="normal" in="SourceGraphic" in2="effect1_dropShadow_0_840" result="shape"/>
</filter>
<filter id="filter3_f_0_840" x="81.904" y="74.5641" width="118.286" height="134.09" filterUnits="userSpaceOnUse" color-interpolation-filters="sRGB">
<feFlood flood-opacity="0" result="BackgroundImageFix"/>
<feBlend mode="normal" in="SourceGraphic" in2="BackgroundImageFix" result="shape"/>
<feGaussianBlur stdDeviation="11.7922" result="effect1_foregroundBlur_0_840"/>
</filter>
<filter id="filter4_f_0_840" x="66.1862" y="88.6471" width="126.688" height="139.361" filterUnits="userSpaceOnUse" color-interpolation-filters="sRGB">
<feFlood flood-opacity="0" result="BackgroundImageFix"/>
<feBlend mode="normal" in="SourceGraphic" in2="BackgroundImageFix" result="shape"/>
<feGaussianBlur stdDeviation="17.4147" result="effect1_foregroundBlur_0_840"/>
</filter>
<filter id="filter5_f_0_840" x="23.7555" y="115.494" width="118.286" height="134.09" filterUnits="userSpaceOnUse" color-interpolation-filters="sRGB">
<feFlood flood-opacity="0" result="BackgroundImageFix"/>
<feBlend mode="normal" in="SourceGraphic" in2="BackgroundImageFix" result="shape"/>
<feGaussianBlur stdDeviation="11.7922" result="effect1_foregroundBlur_0_840"/>
</filter>
<filter id="filter6_f_0_840" x="19.5534" y="121.467" width="126.688" height="139.361" filterUnits="userSpaceOnUse" color-interpolation-filters="sRGB">
<feFlood flood-opacity="0" result="BackgroundImageFix"/>
<feBlend mode="normal" in="SourceGraphic" in2="BackgroundImageFix" result="shape"/>
<feGaussianBlur stdDeviation="17.4147" result="effect1_foregroundBlur_0_840"/>
</filter>
<filter id="filter7_f_0_840" x="-34.3929" y="74.5662" width="118.286" height="134.09" filterUnits="userSpaceOnUse" color-interpolation-filters="sRGB">
<feFlood flood-opacity="0" result="BackgroundImageFix"/>
<feBlend mode="normal" in="SourceGraphic" in2="BackgroundImageFix" result="shape"/>
<feGaussianBlur stdDeviation="11.7922" result="effect1_foregroundBlur_0_840"/>
</filter>
<filter id="filter8_f_0_840" x="-27.0755" y="88.6471" width="126.688" height="139.361" filterUnits="userSpaceOnUse" color-interpolation-filters="sRGB">
<feFlood flood-opacity="0" result="BackgroundImageFix"/>
<feBlend mode="normal" in="SourceGraphic" in2="BackgroundImageFix" result="shape"/>
<feGaussianBlur stdDeviation="17.4147" result="effect1_foregroundBlur_0_840"/>
</filter>
<filter id="filter9_i_0_840" x="246" y="32" width="134" height="137" filterUnits="userSpaceOnUse" color-interpolation-filters="sRGB">
<feFlood flood-opacity="0" result="BackgroundImageFix"/>
<feBlend mode="normal" in="SourceGraphic" in2="BackgroundImageFix" result="shape"/>
<feColorMatrix in="SourceAlpha" type="matrix" values="0 0 0 0 0 0 0 0 0 0 0 0 0 0 0 0 0 0 127 0" result="hardAlpha"/>
<feOffset dy="-3"/>
<feGaussianBlur stdDeviation="5.95"/>
<feComposite in2="hardAlpha" operator="arithmetic" k2="-1" k3="1"/>
<feColorMatrix type="matrix" values="0 0 0 0 0.471154 0 0 0 0 0.471154 0 0 0 0 0.471154 0 0 0 0.25 0"/>
<feBlend mode="normal" in2="shape" result="effect1_innerShadow_0_840"/>
</filter>
<filter id="filter10_d_0_840" x="248.1" y="39.1" width="129.8" height="129.8" filterUnits="userSpaceOnUse" color-interpolation-filters="sRGB">
<feFlood flood-opacity="0" result="BackgroundImageFix"/>
<feColorMatrix in="SourceAlpha" type="matrix" values="0 0 0 0 0 0 0 0 0 0 0 0 0 0 0 0 0 0 127 0" result="hardAlpha"/>
<feOffset dy="2"/>
<feGaussianBlur stdDeviation="1.45"/>
<feComposite in2="hardAlpha" operator="out"/>
<feColorMatrix type="matrix" values="0 0 0 0 0 0 0 0 0 0 0 0 0 0 0 0 0 0 0.1 0"/>
<feBlend mode="normal" in2="BackgroundImageFix" result="effect1_dropShadow_0_840"/>
<feBlend mode="normal" in="SourceGraphic" in2="effect1_dropShadow_0_840" result="shape"/>
</filter>
<filter id="filter11_d_0_840" x="269.5" y="78.5" width="86.9998" height="57.0017" filterUnits="userSpaceOnUse" color-interpolation-filters="sRGB">
<feFlood flood-opacity="0" result="BackgroundImageFix"/>
<feColorMatrix in="SourceAlpha" type="matrix" values="0 0 0 0 0 0 0 0 0 0 0 0 0 0 0 0 0 0 127 0" result="hardAlpha"/>
<feOffset dy="5"/>
<feGaussianBlur stdDeviation="3.25"/>
<feComposite in2="hardAlpha" operator="out"/>
<feColorMatrix type="matrix" values="0 0 0 0 0 0 0 0 0 0 0 0 0 0 0 0 0 0 0.11 0"/>
<feBlend mode="normal" in2="BackgroundImageFix" result="effect1_dropShadow_0_840"/>
<feBlend mode="normal" in="SourceGraphic" in2="effect1_dropShadow_0_840" result="shape"/>
</filter>
<linearGradient id="paint0_linear_0_840" x1="136.5" y1="102" x2="263.5" y2="102" gradientUnits="userSpaceOnUse">
<stop stop-color="#CFCFCF"/>
<stop offset="0.111852" stop-color="#EAEAEA"/>
<stop offset="0.855898" stop-color="#EAEAEA"/>
<stop offset="1" stop-color="#CFCFCF"/>
</linearGradient>
<linearGradient id="paint1_linear_0_840" x1="83" y1="35" x2="83" y2="169" gradientUnits="userSpaceOnUse">
<stop stop-color="#EAEAEA"/>
<stop offset="1" stop-color="#D3D3D3"/>
</linearGradient>
<linearGradient id="paint2_linear_0_840" x1="82.9971" y1="69.1758" x2="82.9971" y2="146.98" gradientUnits="userSpaceOnUse">
<stop stop-color="white"/>
<stop offset="1" stop-color="#A9DAFF"/>
</linearGradient>
<linearGradient id="paint3_linear_0_840" x1="83" y1="40" x2="83" y2="164" gradientUnits="userSpaceOnUse">
<stop stop-color="#1B9DFF"/>
<stop offset="1" stop-color="#0485E7"/>
</linearGradient>
<linearGradient id="paint4_linear_0_840" x1="313" y1="35" x2="313" y2="169" gradientUnits="userSpaceOnUse">
<stop stop-color="#EAEAEA"/>
<stop offset="1" stop-color="#D3D3D3"/>
</linearGradient>
<linearGradient id="paint5_linear_0_840" x1="313.187" y1="84" x2="313.187" y2="120.002" gradientUnits="userSpaceOnUse">
<stop stop-color="#0485E7"/>
<stop offset="1" stop-color="#49B0FF"/>
</linearGradient>
<linearGradient id="paint6_linear_0_840" x1="171.652" y1="102" x2="204" y2="102" gradientUnits="userSpaceOnUse">
<stop stop-color="#0485E7" stop-opacity="0"/>
<stop offset="1" stop-color="#0485E7"/>
</linearGradient>
<clipPath id="clip0_0_840">
<rect x="21" y="40" width="124" height="124" rx="22" fill="white"/>
</clipPath>
</defs>
</svg>
