<svg width="396" height="204" viewBox="0 0 396 204" fill="none" xmlns="http://www.w3.org/2000/svg">
<rect x="1" y="1" width="394" height="202" rx="25" fill="white"/>
<rect x="1" y="1" width="394" height="202" rx="25" stroke="#F3F5F5" stroke-width="2"/>
<g filter="url(#filter0_i_0_785)">
<rect x="64" y="139" width="268" height="4" fill="#EAEAEA"/>
</g>
<g filter="url(#filter1_i_0_785)">
<circle cx="198" cy="141" r="7" fill="url(#paint0_linear_0_785)"/>
</g>
<circle cx="198" cy="141" r="9.5" stroke="#FDFDFD" stroke-width="5"/>
<path d="M246 105.714C246 113.289 239.86 119.429 232.286 119.429H207.785C205.604 119.429 202.923 121.049 201.257 122.456C198.978 124.382 197.023 124.382 194.743 122.456C193.077 121.049 190.397 119.429 188.217 119.429H163.714C156.14 119.429 150 113.289 150 105.714C150 98.1401 156.14 92 163.714 92H232.286C239.86 92 246 98.1401 246 105.714Z" fill="#3EA0EB"/>
<path d="M91 104C96.5229 104 101 108.477 101 114C101 119.523 96.5229 124 91 124H71.6983C69.9166 124 67.8089 125.311 66.4517 126.466C64.7696 127.897 63.2455 127.909 61.5622 126.48C60.2039 125.326 58.0803 124 56.2984 124H37C31.4772 124 27 119.523 27 114C27 108.477 31.4772 104 37 104H91Z" fill="#EFEFEF"/>
<path d="M354 104C359.523 104 364 108.477 364 114C364 119.523 359.523 124 354 124H339.698C337.917 124 335.809 125.311 334.452 126.466C332.77 127.897 331.245 127.909 329.562 126.48C328.204 125.326 326.08 124 324.298 124H310C304.477 124 300 119.523 300 114C300 108.477 304.477 104 310 104H354Z" fill="#EFEFEF"/>
<g filter="url(#filter2_i_0_785)">
<circle cx="64" cy="141" r="7" fill="#E1E0E0"/>
</g>
<circle cx="64" cy="141" r="8.5" stroke="#FDFDFD" stroke-width="3"/>
<circle cx="332" cy="141" r="8.5" fill="#E1E0E0" stroke="#FDFDFD" stroke-width="3"/>
<path d="M167.275 111.287H165.891L164.76 108.296H160.236L159.172 111.287H157.781L161.873 100.617H163.168L167.275 111.287ZM164.351 107.173L162.677 102.626C162.622 102.478 162.568 102.239 162.513 101.912H162.483C162.434 102.215 162.377 102.453 162.312 102.626L160.653 107.173H164.351ZM175.192 110.677C175.192 113.475 173.852 114.873 171.174 114.873C170.231 114.873 169.408 114.695 168.703 114.338V113.117C169.562 113.594 170.38 113.832 171.159 113.832C173.034 113.832 173.971 112.835 173.971 110.841V110.007H173.942C173.361 110.98 172.488 111.466 171.323 111.466C170.375 111.466 169.611 111.128 169.031 110.454C168.455 109.774 168.168 108.864 168.168 107.723C168.168 106.428 168.478 105.399 169.098 104.635C169.723 103.871 170.576 103.489 171.657 103.489C172.684 103.489 173.446 103.901 173.942 104.725H173.971V103.668H175.192V110.677ZM173.971 107.842V106.719C173.971 106.113 173.766 105.595 173.354 105.164C172.947 104.732 172.439 104.516 171.828 104.516C171.075 104.516 170.484 104.792 170.058 105.342C169.631 105.888 169.418 106.654 169.418 107.641C169.418 108.489 169.621 109.169 170.028 109.68C170.44 110.186 170.983 110.439 171.657 110.439C172.342 110.439 172.897 110.196 173.324 109.71C173.756 109.224 173.971 108.601 173.971 107.842ZM184.165 110.677C184.165 113.475 182.826 114.873 180.147 114.873C179.204 114.873 178.381 114.695 177.677 114.338V113.117C178.535 113.594 179.353 113.832 180.132 113.832C182.007 113.832 182.945 112.835 182.945 110.841V110.007H182.915C182.334 110.98 181.461 111.466 180.296 111.466C179.348 111.466 178.584 111.128 178.004 110.454C177.429 109.774 177.141 108.864 177.141 107.723C177.141 106.428 177.451 105.399 178.071 104.635C178.696 103.871 179.549 103.489 180.631 103.489C181.657 103.489 182.419 103.901 182.915 104.725H182.945V103.668H184.165V110.677ZM182.945 107.842V106.719C182.945 106.113 182.739 105.595 182.327 105.164C181.92 104.732 181.412 104.516 180.802 104.516C180.048 104.516 179.457 104.792 179.031 105.342C178.604 105.888 178.391 106.654 178.391 107.641C178.391 108.489 178.594 109.169 179.001 109.68C179.413 110.186 179.956 110.439 180.631 110.439C181.315 110.439 181.871 110.196 182.297 109.71C182.729 109.224 182.945 108.601 182.945 107.842ZM190.608 104.903C190.395 104.739 190.087 104.658 189.686 104.658C189.165 104.658 188.728 104.903 188.376 105.394C188.029 105.885 187.855 106.555 187.855 107.403V111.287H186.635V103.668H187.855V105.238H187.885C188.059 104.702 188.324 104.286 188.681 103.988C189.038 103.685 189.438 103.534 189.879 103.534C190.197 103.534 190.44 103.569 190.608 103.638V104.903ZM198.056 107.783H192.677C192.697 108.631 192.925 109.286 193.361 109.747C193.798 110.208 194.398 110.439 195.162 110.439C196.02 110.439 196.809 110.156 197.528 109.591V110.737C196.858 111.223 195.973 111.466 194.872 111.466C193.795 111.466 192.95 111.121 192.334 110.431C191.719 109.737 191.412 108.762 191.412 107.507C191.412 106.322 191.747 105.357 192.416 104.613C193.091 103.864 193.927 103.489 194.924 103.489C195.921 103.489 196.692 103.812 197.238 104.457C197.783 105.102 198.056 105.997 198.056 107.143V107.783ZM196.806 106.748C196.801 106.044 196.63 105.496 196.293 105.104C195.96 104.712 195.497 104.516 194.901 104.516C194.326 104.516 193.837 104.722 193.436 105.134C193.034 105.546 192.786 106.084 192.692 106.748H196.806ZM206.412 110.677C206.412 113.475 205.073 114.873 202.394 114.873C201.452 114.873 200.628 114.695 199.924 114.338V113.117C200.782 113.594 201.6 113.832 202.379 113.832C204.254 113.832 205.192 112.835 205.192 110.841V110.007H205.162C204.581 110.98 203.708 111.466 202.543 111.466C201.595 111.466 200.831 111.128 200.251 110.454C199.676 109.774 199.388 108.864 199.388 107.723C199.388 106.428 199.698 105.399 200.318 104.635C200.943 103.871 201.796 103.489 202.878 103.489C203.904 103.489 204.666 103.901 205.162 104.725H205.192V103.668H206.412V110.677ZM205.192 107.842V106.719C205.192 106.113 204.986 105.595 204.574 105.164C204.167 104.732 203.659 104.516 203.049 104.516C202.295 104.516 201.704 104.792 201.278 105.342C200.851 105.888 200.638 106.654 200.638 107.641C200.638 108.489 200.841 109.169 201.248 109.68C201.66 110.186 202.203 110.439 202.878 110.439C203.562 110.439 204.118 110.196 204.544 109.71C204.976 109.224 205.192 108.601 205.192 107.842ZM214.336 111.287H213.116V110.097H213.086C212.555 111.009 211.774 111.466 210.742 111.466C209.983 111.466 209.388 111.265 208.956 110.863C208.53 110.461 208.317 109.928 208.317 109.263C208.317 107.84 209.155 107.011 210.831 106.778L213.116 106.458C213.116 105.164 212.592 104.516 211.546 104.516C210.628 104.516 209.8 104.829 209.061 105.454V104.204C209.81 103.728 210.673 103.489 211.65 103.489C213.441 103.489 214.336 104.437 214.336 106.332V111.287ZM213.116 107.433L211.278 107.686C210.712 107.765 210.286 107.907 209.998 108.11C209.71 108.308 209.567 108.663 209.567 109.174C209.567 109.546 209.698 109.851 209.961 110.089C210.229 110.322 210.583 110.439 211.025 110.439C211.63 110.439 212.129 110.228 212.52 109.806C212.917 109.38 213.116 108.842 213.116 108.192V107.433ZM220.169 111.213C219.882 111.371 219.502 111.451 219.031 111.451C217.697 111.451 217.029 110.707 217.029 109.219V104.71H215.72V103.668H217.029V101.808L218.25 101.414V103.668H220.169V104.71H218.25V109.003C218.25 109.514 218.336 109.878 218.51 110.097C218.684 110.315 218.971 110.424 219.373 110.424C219.681 110.424 219.946 110.34 220.169 110.171V111.213ZM227.922 107.783H222.543C222.563 108.631 222.791 109.286 223.227 109.747C223.664 110.208 224.264 110.439 225.028 110.439C225.886 110.439 226.675 110.156 227.394 109.591V110.737C226.724 111.223 225.839 111.466 224.738 111.466C223.661 111.466 222.816 111.121 222.201 110.431C221.585 109.737 221.278 108.762 221.278 107.507C221.278 106.322 221.613 105.357 222.282 104.613C222.957 103.864 223.793 103.489 224.79 103.489C225.787 103.489 226.558 103.812 227.104 104.457C227.649 105.102 227.922 105.997 227.922 107.143V107.783ZM226.672 106.748C226.667 106.044 226.496 105.496 226.159 105.104C225.827 104.712 225.363 104.516 224.767 104.516C224.192 104.516 223.703 104.722 223.302 105.134C222.9 105.546 222.652 106.084 222.558 106.748H226.672ZM236.278 111.287H235.058V109.992H235.028C234.462 110.975 233.589 111.466 232.409 111.466C231.452 111.466 230.685 111.126 230.11 110.446C229.539 109.762 229.254 108.832 229.254 107.656C229.254 106.396 229.572 105.387 230.206 104.628C230.841 103.869 231.687 103.489 232.744 103.489C233.79 103.489 234.552 103.901 235.028 104.725H235.058V100.007H236.278V111.287ZM235.058 107.842V106.719C235.058 106.104 234.854 105.583 234.448 105.156C234.041 104.73 233.525 104.516 232.9 104.516C232.156 104.516 231.571 104.789 231.144 105.335C230.717 105.88 230.504 106.634 230.504 107.597C230.504 108.475 230.707 109.169 231.114 109.68C231.526 110.186 232.077 110.439 232.766 110.439C233.446 110.439 233.996 110.193 234.418 109.702C234.844 109.211 235.058 108.591 235.058 107.842Z" fill="#F8F8F8"/>
<path d="M40.6133 111.734H38.5918V117.994H37.7715V111.734H35.7549V110.992H40.6133V111.734ZM43.3477 113.805C43.2077 113.697 43.0059 113.644 42.7422 113.644C42.4004 113.644 42.1139 113.805 41.8828 114.127C41.6549 114.449 41.541 114.889 41.541 115.445V117.994H40.7402V112.994H41.541V114.024H41.5605C41.6745 113.673 41.8486 113.399 42.083 113.204C42.3174 113.006 42.5794 112.906 42.8691 112.906C43.0775 112.906 43.237 112.929 43.3477 112.975V113.805ZM47.7959 117.994H46.9951V117.213H46.9756C46.6273 117.812 46.1146 118.111 45.4375 118.111C44.9395 118.111 44.5488 117.979 44.2656 117.716C43.9857 117.452 43.8457 117.102 43.8457 116.666C43.8457 115.732 44.3958 115.188 45.4961 115.035L46.9951 114.825C46.9951 113.976 46.6517 113.551 45.9648 113.551C45.3626 113.551 44.819 113.756 44.334 114.166V113.346C44.8255 113.033 45.3919 112.877 46.0332 112.877C47.2083 112.877 47.7959 113.499 47.7959 114.742V117.994ZM46.9951 115.465L45.7891 115.631C45.418 115.683 45.138 115.776 44.9492 115.909C44.7604 116.039 44.666 116.272 44.666 116.607C44.666 116.852 44.7523 117.052 44.9248 117.208C45.1006 117.361 45.3333 117.438 45.623 117.438C46.0202 117.438 46.3473 117.299 46.6045 117.022C46.8649 116.743 46.9951 116.389 46.9951 115.963V115.465ZM53.4551 117.994H52.6543V115.143C52.6543 114.081 52.2669 113.551 51.4922 113.551C51.0918 113.551 50.7598 113.702 50.4961 114.005C50.2357 114.304 50.1055 114.684 50.1055 115.143V117.994H49.3047V112.994H50.1055V113.824H50.125C50.5026 113.193 51.0495 112.877 51.7656 112.877C52.3125 112.877 52.7308 113.054 53.0205 113.409C53.3102 113.761 53.4551 114.27 53.4551 114.938V117.994ZM54.666 117.813V116.954C55.1022 117.276 55.5824 117.438 56.1064 117.438C56.8096 117.438 57.1611 117.203 57.1611 116.734C57.1611 116.601 57.1302 116.489 57.0684 116.397C57.0098 116.303 56.9284 116.22 56.8242 116.148C56.7233 116.077 56.6029 116.013 56.4629 115.958C56.3262 115.899 56.1781 115.839 56.0186 115.777C55.7972 115.689 55.6019 115.602 55.4326 115.514C55.2666 115.423 55.1266 115.322 55.0127 115.211C54.902 115.097 54.8174 114.968 54.7588 114.825C54.7035 114.682 54.6758 114.514 54.6758 114.322C54.6758 114.088 54.7295 113.881 54.8369 113.702C54.9443 113.52 55.0876 113.368 55.2666 113.248C55.4456 113.124 55.6491 113.032 55.877 112.97C56.1081 112.908 56.3457 112.877 56.5898 112.877C57.0228 112.877 57.4102 112.952 57.752 113.102V113.912C57.3841 113.671 56.9609 113.551 56.4824 113.551C56.3327 113.551 56.1976 113.569 56.0771 113.604C55.9567 113.637 55.8525 113.684 55.7646 113.746C55.68 113.808 55.6133 113.883 55.5645 113.971C55.5189 114.055 55.4961 114.15 55.4961 114.254C55.4961 114.384 55.5189 114.493 55.5645 114.581C55.6133 114.669 55.6833 114.747 55.7744 114.815C55.8656 114.884 55.9762 114.946 56.1064 115.001C56.2367 115.056 56.3848 115.117 56.5508 115.182C56.7721 115.266 56.9707 115.354 57.1465 115.445C57.3223 115.533 57.472 115.634 57.5957 115.748C57.7194 115.859 57.8138 115.987 57.8789 116.134C57.9473 116.28 57.9814 116.454 57.9814 116.656C57.9814 116.904 57.9261 117.118 57.8154 117.301C57.708 117.483 57.5632 117.634 57.3809 117.755C57.1986 117.875 56.9886 117.965 56.751 118.023C56.5133 118.082 56.2643 118.111 56.0039 118.111C55.4896 118.111 55.0436 118.012 54.666 117.813ZM62.7959 117.994H61.9951V117.213H61.9756C61.6273 117.812 61.1146 118.111 60.4375 118.111C59.9395 118.111 59.5488 117.979 59.2656 117.716C58.9857 117.452 58.8457 117.102 58.8457 116.666C58.8457 115.732 59.3958 115.188 60.4961 115.035L61.9951 114.825C61.9951 113.976 61.6517 113.551 60.9648 113.551C60.3626 113.551 59.819 113.756 59.334 114.166V113.346C59.8255 113.033 60.3919 112.877 61.0332 112.877C62.2083 112.877 62.7959 113.499 62.7959 114.742V117.994ZM61.9951 115.465L60.7891 115.631C60.418 115.683 60.138 115.776 59.9492 115.909C59.7604 116.039 59.666 116.272 59.666 116.607C59.666 116.852 59.7523 117.052 59.9248 117.208C60.1006 117.361 60.3333 117.438 60.623 117.438C61.0202 117.438 61.3473 117.299 61.6045 117.022C61.8649 116.743 61.9951 116.389 61.9951 115.963V115.465ZM67.7129 117.765C67.3288 117.996 66.873 118.111 66.3457 118.111C65.6328 118.111 65.0566 117.88 64.6172 117.418C64.181 116.952 63.9629 116.35 63.9629 115.611C63.9629 114.788 64.1989 114.127 64.6709 113.629C65.1429 113.128 65.7728 112.877 66.5605 112.877C67 112.877 67.3874 112.958 67.7227 113.121V113.941C67.3516 113.681 66.9544 113.551 66.5312 113.551C66.0202 113.551 65.6003 113.735 65.2715 114.103C64.946 114.467 64.7832 114.947 64.7832 115.543C64.7832 116.129 64.9362 116.591 65.2422 116.93C65.5514 117.268 65.9648 117.438 66.4824 117.438C66.9186 117.438 67.3288 117.293 67.7129 117.003V117.765ZM71.2432 117.945C71.0544 118.049 70.8053 118.102 70.4961 118.102C69.6204 118.102 69.1826 117.613 69.1826 116.637V113.678H68.3232V112.994H69.1826V111.773L69.9834 111.515V112.994H71.2432V113.678H69.9834V116.495C69.9834 116.83 70.0404 117.07 70.1543 117.213C70.2682 117.356 70.457 117.428 70.7207 117.428C70.9225 117.428 71.0967 117.372 71.2432 117.262V117.945ZM72.7227 111.725C72.5794 111.725 72.4574 111.676 72.3564 111.578C72.2555 111.48 72.2051 111.357 72.2051 111.207C72.2051 111.057 72.2555 110.934 72.3564 110.836C72.4574 110.735 72.5794 110.685 72.7227 110.685C72.8691 110.685 72.9928 110.735 73.0938 110.836C73.1979 110.934 73.25 111.057 73.25 111.207C73.25 111.35 73.1979 111.472 73.0938 111.573C72.9928 111.674 72.8691 111.725 72.7227 111.725ZM73.1133 117.994H72.3125V112.994H73.1133V117.994ZM76.8242 118.111C76.0853 118.111 75.4945 117.879 75.0518 117.413C74.6123 116.944 74.3926 116.324 74.3926 115.553C74.3926 114.713 74.6221 114.057 75.0811 113.585C75.54 113.113 76.1602 112.877 76.9414 112.877C77.6868 112.877 78.2679 113.106 78.6846 113.565C79.1045 114.024 79.3145 114.661 79.3145 115.475C79.3145 116.272 79.0882 116.912 78.6357 117.394C78.1865 117.872 77.5827 118.111 76.8242 118.111ZM76.8828 113.551C76.3685 113.551 75.9616 113.727 75.6621 114.078C75.3626 114.426 75.2129 114.908 75.2129 115.523C75.2129 116.116 75.3643 116.583 75.667 116.925C75.9697 117.267 76.375 117.438 76.8828 117.438C77.4004 117.438 77.7975 117.27 78.0742 116.935C78.3542 116.599 78.4941 116.122 78.4941 115.504C78.4941 114.879 78.3542 114.397 78.0742 114.059C77.7975 113.72 77.4004 113.551 76.8828 113.551ZM84.7441 117.994H83.9434V115.143C83.9434 114.081 83.556 113.551 82.7812 113.551C82.3809 113.551 82.0488 113.702 81.7852 114.005C81.5247 114.304 81.3945 114.684 81.3945 115.143V117.994H80.5938V112.994H81.3945V113.824H81.4141C81.7917 113.193 82.3385 112.877 83.0547 112.877C83.6016 112.877 84.0199 113.054 84.3096 113.409C84.5993 113.761 84.7441 114.27 84.7441 114.938V117.994ZM89.8369 117.994H89.0361V117.213H89.0166C88.6683 117.812 88.1556 118.111 87.4785 118.111C86.9805 118.111 86.5898 117.979 86.3066 117.716C86.0267 117.452 85.8867 117.102 85.8867 116.666C85.8867 115.732 86.4368 115.188 87.5371 115.035L89.0361 114.825C89.0361 113.976 88.6927 113.551 88.0059 113.551C87.4036 113.551 86.86 113.756 86.375 114.166V113.346C86.8665 113.033 87.4329 112.877 88.0742 112.877C89.2493 112.877 89.8369 113.499 89.8369 114.742V117.994ZM89.0361 115.465L87.8301 115.631C87.459 115.683 87.179 115.776 86.9902 115.909C86.8014 116.039 86.707 116.272 86.707 116.607C86.707 116.852 86.7933 117.052 86.9658 117.208C87.1416 117.361 87.3743 117.438 87.6641 117.438C88.0612 117.438 88.3883 117.299 88.6455 117.022C88.9059 116.743 89.0361 116.389 89.0361 115.963V115.465ZM92.1465 117.994H91.3457V110.592H92.1465V117.994Z" fill="#696969"/>
<path d="M310.473 117.994V110.992H312.465C313.07 110.992 313.55 111.14 313.905 111.437C314.26 111.733 314.438 112.118 314.438 112.594C314.438 112.991 314.33 113.336 314.115 113.629C313.9 113.922 313.604 114.13 313.227 114.254V114.273C313.699 114.329 314.076 114.508 314.359 114.811C314.643 115.11 314.784 115.501 314.784 115.982C314.784 116.581 314.569 117.066 314.14 117.438C313.71 117.809 313.168 117.994 312.514 117.994H310.473ZM311.293 111.734V113.995H312.133C312.582 113.995 312.935 113.888 313.192 113.673C313.45 113.455 313.578 113.149 313.578 112.755C313.578 112.075 313.131 111.734 312.235 111.734H311.293ZM311.293 114.732V117.252H312.406C312.888 117.252 313.261 117.138 313.524 116.91C313.791 116.682 313.925 116.37 313.925 115.973C313.925 115.146 313.362 114.732 312.235 114.732H311.293ZM320.116 115.694H316.586C316.599 116.251 316.749 116.681 317.035 116.983C317.322 117.286 317.715 117.438 318.217 117.438C318.78 117.438 319.298 117.252 319.77 116.881V117.633C319.33 117.952 318.749 118.111 318.026 118.111C317.32 118.111 316.765 117.885 316.361 117.433C315.958 116.977 315.756 116.337 315.756 115.514C315.756 114.736 315.976 114.103 316.415 113.614C316.858 113.123 317.406 112.877 318.061 112.877C318.715 112.877 319.221 113.089 319.579 113.512C319.937 113.935 320.116 114.522 320.116 115.274V115.694ZM319.296 115.016C319.293 114.553 319.18 114.194 318.959 113.937C318.741 113.679 318.437 113.551 318.046 113.551C317.668 113.551 317.348 113.686 317.084 113.956C316.82 114.226 316.658 114.579 316.596 115.016H319.296ZM325.482 117.994H324.682V115.113C324.682 114.072 324.294 113.551 323.52 113.551C323.129 113.551 322.8 113.702 322.533 114.005C322.266 114.304 322.133 114.69 322.133 115.162V117.994H321.332V110.592H322.133V113.824H322.152C322.536 113.193 323.083 112.877 323.793 112.877C324.919 112.877 325.482 113.556 325.482 114.913V117.994ZM330.575 117.994H329.774V117.213H329.755C329.407 117.812 328.894 118.111 328.217 118.111C327.719 118.111 327.328 117.979 327.045 117.716C326.765 117.452 326.625 117.102 326.625 116.666C326.625 115.732 327.175 115.188 328.275 115.035L329.774 114.825C329.774 113.976 329.431 113.551 328.744 113.551C328.142 113.551 327.598 113.756 327.113 114.166V113.346C327.605 113.033 328.171 112.877 328.812 112.877C329.988 112.877 330.575 113.499 330.575 114.742V117.994ZM329.774 115.465L328.568 115.631C328.197 115.683 327.917 115.776 327.729 115.909C327.54 116.039 327.445 116.272 327.445 116.607C327.445 116.852 327.532 117.052 327.704 117.208C327.88 117.361 328.113 117.438 328.402 117.438C328.799 117.438 329.127 117.299 329.384 117.022C329.644 116.743 329.774 116.389 329.774 115.963V115.465ZM336.015 112.994L334.022 117.994H333.236L331.342 112.994H332.221L333.49 116.627C333.585 116.894 333.643 117.127 333.666 117.325H333.686C333.718 117.075 333.77 116.848 333.842 116.646L335.17 112.994H336.015ZM337.289 111.725C337.146 111.725 337.024 111.676 336.923 111.578C336.822 111.48 336.771 111.357 336.771 111.207C336.771 111.057 336.822 110.934 336.923 110.836C337.024 110.735 337.146 110.685 337.289 110.685C337.436 110.685 337.559 110.735 337.66 110.836C337.764 110.934 337.816 111.057 337.816 111.207C337.816 111.35 337.764 111.472 337.66 111.573C337.559 111.674 337.436 111.725 337.289 111.725ZM337.68 117.994H336.879V112.994H337.68V117.994ZM341.391 118.111C340.652 118.111 340.061 117.879 339.618 117.413C339.179 116.944 338.959 116.324 338.959 115.553C338.959 114.713 339.188 114.057 339.647 113.585C340.106 113.113 340.727 112.877 341.508 112.877C342.253 112.877 342.834 113.106 343.251 113.565C343.671 114.024 343.881 114.661 343.881 115.475C343.881 116.272 343.655 116.912 343.202 117.394C342.753 117.872 342.149 118.111 341.391 118.111ZM341.449 113.551C340.935 113.551 340.528 113.727 340.229 114.078C339.929 114.426 339.779 114.908 339.779 115.523C339.779 116.116 339.931 116.583 340.233 116.925C340.536 117.267 340.941 117.438 341.449 117.438C341.967 117.438 342.364 117.27 342.641 116.935C342.921 116.599 343.061 116.122 343.061 115.504C343.061 114.879 342.921 114.397 342.641 114.059C342.364 113.72 341.967 113.551 341.449 113.551ZM347.768 113.805C347.628 113.697 347.426 113.644 347.162 113.644C346.82 113.644 346.534 113.805 346.303 114.127C346.075 114.449 345.961 114.889 345.961 115.445V117.994H345.16V112.994H345.961V114.024H345.98C346.094 113.673 346.269 113.399 346.503 113.204C346.737 113.006 346.999 112.906 347.289 112.906C347.497 112.906 347.657 112.929 347.768 112.975V113.805ZM352.216 117.994H351.415V117.213H351.396C351.047 117.812 350.535 118.111 349.857 118.111C349.359 118.111 348.969 117.979 348.686 117.716C348.406 117.452 348.266 117.102 348.266 116.666C348.266 115.732 348.816 115.188 349.916 115.035L351.415 114.825C351.415 113.976 351.072 113.551 350.385 113.551C349.783 113.551 349.239 113.756 348.754 114.166V113.346C349.245 113.033 349.812 112.877 350.453 112.877C351.628 112.877 352.216 113.499 352.216 114.742V117.994ZM351.415 115.465L350.209 115.631C349.838 115.683 349.558 115.776 349.369 115.909C349.18 116.039 349.086 116.272 349.086 116.607C349.086 116.852 349.172 117.052 349.345 117.208C349.521 117.361 349.753 117.438 350.043 117.438C350.44 117.438 350.767 117.299 351.024 117.022C351.285 116.743 351.415 116.389 351.415 115.963V115.465ZM354.525 117.994H353.725V110.592H354.525V117.994Z" fill="#696969"/>
<path d="M65 62H64V40H65V62ZM73 62H72V48H73V62ZM81 62H80V48H81V62ZM89 62H88V48H89V62ZM97 62H96V48H97V62ZM104 62H103V48H104V62ZM112 62H111V48H112V62ZM120 62H119V48H120V62ZM128 62H127V48H128V62ZM136 62H135V48H136V62ZM144 62H143V48H144V62ZM152 62H151V48H152V62ZM160 62H159V48H160V62ZM167 62H166V48H167V62ZM175 62H174V48H175V62ZM183 62H182V48H183V62ZM191 62H190V48H191V62ZM199 62H198V40H199V62ZM207 62H206V48H207V62ZM215 62H214V48H215V62ZM223 62H222V48H223V62ZM231 62H230V48H231V62ZM238 62H237V48H238V62ZM246 62H245V48H246V62ZM254 62H253V48H254V62ZM262 62H261V48H262V62ZM270 62H269V48H270V62ZM278 62H277V48H278V62ZM286 62H285V48H286V62ZM294 62H293V48H294V62ZM301 62H300V48H301V62ZM309 62H308V48H309V62ZM317 62H316V48H317V62ZM325 62H324V48H325V62ZM333 62H332V40H333V62Z" fill="url(#paint1_linear_0_785)"/>
<defs>
<filter id="filter0_i_0_785" x="64" y="139" width="268" height="5" filterUnits="userSpaceOnUse" color-interpolation-filters="sRGB">
<feFlood flood-opacity="0" result="BackgroundImageFix"/>
<feBlend mode="normal" in="SourceGraphic" in2="BackgroundImageFix" result="shape"/>
<feColorMatrix in="SourceAlpha" type="matrix" values="0 0 0 0 0 0 0 0 0 0 0 0 0 0 0 0 0 0 127 0" result="hardAlpha"/>
<feOffset dy="1"/>
<feGaussianBlur stdDeviation="2"/>
<feComposite in2="hardAlpha" operator="arithmetic" k2="-1" k3="1"/>
<feColorMatrix type="matrix" values="0 0 0 0 0 0 0 0 0 0 0 0 0 0 0 0 0 0 0.09 0"/>
<feBlend mode="normal" in2="shape" result="effect1_innerShadow_0_785"/>
</filter>
<filter id="filter1_i_0_785" x="186" y="129" width="24" height="26" filterUnits="userSpaceOnUse" color-interpolation-filters="sRGB">
<feFlood flood-opacity="0" result="BackgroundImageFix"/>
<feBlend mode="normal" in="SourceGraphic" in2="BackgroundImageFix" result="shape"/>
<feColorMatrix in="SourceAlpha" type="matrix" values="0 0 0 0 0 0 0 0 0 0 0 0 0 0 0 0 0 0 127 0" result="hardAlpha"/>
<feOffset dy="2"/>
<feGaussianBlur stdDeviation="2.25"/>
<feComposite in2="hardAlpha" operator="arithmetic" k2="-1" k3="1"/>
<feColorMatrix type="matrix" values="0 0 0 0 0.625962 0 0 0 0 0.739716 0 0 0 0 1 0 0 0 0.25 0"/>
<feBlend mode="normal" in2="shape" result="effect1_innerShadow_0_785"/>
</filter>
<filter id="filter2_i_0_785" x="54" y="131" width="20" height="22" filterUnits="userSpaceOnUse" color-interpolation-filters="sRGB">
<feFlood flood-opacity="0" result="BackgroundImageFix"/>
<feBlend mode="normal" in="SourceGraphic" in2="BackgroundImageFix" result="shape"/>
<feColorMatrix in="SourceAlpha" type="matrix" values="0 0 0 0 0 0 0 0 0 0 0 0 0 0 0 0 0 0 127 0" result="hardAlpha"/>
<feOffset dy="2"/>
<feGaussianBlur stdDeviation="2.25"/>
<feComposite in2="hardAlpha" operator="arithmetic" k2="-1" k3="1"/>
<feColorMatrix type="matrix" values="0 0 0 0 0.625962 0 0 0 0 0.739716 0 0 0 0 1 0 0 0 0.25 0"/>
<feBlend mode="normal" in2="shape" result="effect1_innerShadow_0_785"/>
</filter>
<linearGradient id="paint0_linear_0_785" x1="198.04" y1="134" x2="198.04" y2="148" gradientUnits="userSpaceOnUse">
<stop stop-color="#73C2FF"/>
<stop offset="1" stop-color="#3EA0EB"/>
</linearGradient>
<linearGradient id="paint1_linear_0_785" x1="88.5" y1="51" x2="308" y2="51" gradientUnits="userSpaceOnUse">
<stop stop-color="#EAEAEA"/>
<stop offset="0.505335" stop-color="#1F63FF"/>
<stop offset="1" stop-color="#EAEAEA"/>
</linearGradient>
</defs>
</svg>
